<svg xmlns="http://www.w3.org/2000/svg" viewBox="0 0 200 200"><defs><style>.cls-1{fill:#9ca6ce;}.cls-10,.cls-11,.cls-14,.cls-2,.cls-4{fill:#27255c;}.cls-3{fill:#96c6f9;}.cls-10,.cls-11,.cls-3,.cls-4,.cls-5,.cls-6,.cls-7,.cls-9{stroke:#050324;}.cls-10,.cls-11,.cls-12,.cls-13,.cls-14,.cls-3,.cls-4,.cls-5,.cls-6,.cls-7,.cls-9{stroke-miterlimit:10;}.cls-11,.cls-12,.cls-13,.cls-14,.cls-3,.cls-5,.cls-9{stroke-width:0.5px;}.cls-4{font-size:54.17px;font-family:MyriadPro-Regular, Myriad Pro;}.cls-10,.cls-4,.cls-6,.cls-7{stroke-width:0.25px;}.cls-5,.cls-7{fill:#3f51ba;}.cls-6,.cls-8{fill:#f6f8fd;}.cls-13,.cls-9{fill:#0b20f5;}.cls-12{fill:none;}.cls-12,.cls-13,.cls-14{stroke:#27255c;}.cls-15{fill:#739ddc;}</style></defs><g id="Layer_1" data-name="Layer 1"><rect class="cls-1" x="10" y="11" width="180" height="178"/></g><g id="Layer_2" data-name="Layer 2"><rect class="cls-2" x="129" y="76.47" width="49" height="77" rx="5.59"/><rect class="cls-3" x="23" y="23.47" width="16" height="49" rx="3.88"/><text class="cls-4" transform="translate(24.77 65.87)">!</text><rect class="cls-5" x="43" y="23.47" width="81" height="49" rx="5.58"/><path class="cls-6" d="M50,72.47s3-29,24-24c0,0,16,2,21,0,0,0,22-4,23,24Z"/><path class="cls-7" d="M74,48.47l-12,24h44l-11-24S82,49.47,74,48.47Z"/><path class="cls-6" d="M80.5,39.47v14s3,5,7,0v-14Z"/><circle class="cls-6" cx="84" cy="37.47" r="6"/><path class="cls-2" d="M84,36.47H78a6,6,0,0,1,12,0Z"/><path class="cls-2" d="M52.34,30.46a11.93,11.93,0,0,1,5-4.36,3.74,3.74,0,0,1,1.56-.42c1.58,0,2.58,1.64,3.85,2.58a1.12,1.12,0,0,0,1.66,0c.74-.65,1.36-1.43,2.12-2.05a3.44,3.44,0,0,1,2.71-.87,3.79,3.79,0,0,1,2.42,2.26,3.44,3.44,0,0,0,.68,1.06c.83.7,2.13.2,2.92-.55A8.6,8.6,0,0,1,77.69,26c1.62-.63,3.41.58,4.36,2s1.43,3.2,2.53,4.54c.38-2,.8-4.11,2.14-5.65s3.91-2.21,5.43-.85A22,22,0,0,1,93.66,28a1.87,1.87,0,0,0,2.17.64,3.36,3.36,0,0,0,.9-1,4.3,4.3,0,0,1,7,0,2,2,0,0,0,.71.77c.74.36,1.48-.44,2.07-1a5,5,0,0,1,7,.32c.5.59.92,1.34,1.66,1.57s1.67.11,1.8.8l-4.64.48a4.84,4.84,0,0,0-3,1,11,11,0,0,0-1.07,1.66,4.58,4.58,0,0,1-7,.38,4.8,4.8,0,0,0-.79-.89,1.68,1.68,0,0,0-2.31.38c-.29.42-.37,1-.64,1.41-.64,1-2.07,1.16-3.28,1.17a2.61,2.61,0,0,1-1.33-.23,3.8,3.8,0,0,1-1.05-1.34,4.13,4.13,0,0,0-5.3-1.24,4.51,4.51,0,0,1-1.21.63,2.91,2.91,0,0,1-1.4-.16l-4-1.14a3,3,0,0,0-2.46,0c-.79.54-.86,1.69-1.46,2.43-.77,1-2.18,1-3.41,1a2.62,2.62,0,0,1-1.18-.19c-.93-.49-1-1.91-1.82-2.51a2.11,2.11,0,0,0-2.2.08c-.68.38-1.22,1-1.86,1.39a5.66,5.66,0,0,1-7.72-1.68,5.7,5.7,0,0,0-1-1.5c-1.32-1.15-3.44,0-5.11-.57"/><circle class="cls-8" cx="78.5" cy="50.97" r="1.5"/><circle class="cls-8" cx="73.5" cy="53.97" r="1.5"/><circle class="cls-8" cx="80.5" cy="58.97" r="1.5"/><circle class="cls-8" cx="78.5" cy="65.97" r="1.5"/><circle class="cls-8" cx="70.5" cy="68.97" r="1.5"/><circle class="cls-8" cx="72.5" cy="60.97" r="1.5"/><circle class="cls-8" cx="85.5" cy="68.97" r="1.5"/><circle class="cls-8" cx="86.5" cy="63.97" r="1.5"/><circle class="cls-8" cx="88.5" cy="55.97" r="1.5"/><circle class="cls-8" cx="92.5" cy="50.97" r="1.5"/><circle class="cls-8" cx="94.5" cy="59.97" r="1.5"/><circle class="cls-8" cx="93.5" cy="66.97" r="1.5"/><circle class="cls-8" cx="101.5" cy="68.97" r="1.5"/><rect class="cls-9" x="129" y="22.47" width="49" height="50" rx="4.34"/><path class="cls-10" d="M140,72.47s-6-29,18-24c0,0,16,2,20,0v22h0a2,2,0,0,1-2,2Z"/><path class="cls-8" d="M167,49h9a9,9,0,1,1-18,0c0-.18,0-.36,0-.53Z"/><polyline class="cls-6" points="170 50.47 170 37.47 163 37.47 163 53.47"/><circle class="cls-6" cx="165" cy="37.47" r="6"/><path class="cls-7" d="M165,36.47l-5.45-2.1a6.19,6.19,0,0,1,5.45-2.9c3.29,0,6,2.26,6,5a4.19,4.19,0,0,1-.42,1.83Z"/><polyline class="cls-7" points="159.87 34.46 154 32.47 155 32.47 159.89 33.87"/><rect class="cls-11" x="22" y="76.47" width="32" height="48" rx="4.36"/><ellipse class="cls-8" cx="38" cy="96.97" rx="11" ry="11.5"/><rect class="cls-8" x="33" y="99.47" width="10" height="17"/><rect class="cls-2" x="32" y="110.47" width="12" height="1" rx="0.5"/><polyline class="cls-12" points="36.5 111.47 36.5 102.47 33.5 98.47 42.5 98.47 39.5 102.47 39.5 111.47"/><rect class="cls-3" x="58" y="76.47" width="67" height="48" rx="4.8"/><polygon class="cls-13" points="72.5 119.97 72.5 92.97 106.5 92.97 106.5 112.97 77.5 112.97 72.5 119.97"/><polygon class="cls-11" points="110.5 102.97 116.5 108.97 116.5 82.97 81.5 82.97 81.5 102.97 110.5 102.97"/><circle class="cls-8" cx="91" cy="93.47" r="2.5"/><circle class="cls-8" cx="108" cy="93.47" r="2.5"/><circle class="cls-8" cx="99.5" cy="93.47" r="2.5"/><rect class="cls-9" x="22" y="129.47" width="103" height="50" rx="5.4"/><path class="cls-14" d="M28.5,179s-9-28,25-25c0,0,36,1,42,0,0,0,30-5,23,25Z"/><path class="cls-8" d="M72.5,154h21c0,6-9.48,11-21,11s-21-5-21-11c0-.11,0-.22,0-.32Z"/><polyline class="cls-8" points="71 155.47 71 143.47 76 143.47 76 155.47"/><path class="cls-2" d="M60,140a4.5,4.5,0,0,1,1.55-2.69,4.43,4.43,0,0,1,1.9-.53A124.69,124.69,0,0,1,82,136a7.35,7.35,0,0,1,3.94.91A7.14,7.14,0,0,1,88,139.66a1.52,1.52,0,0,0,.7.81,2,2,0,0,0,1.18-.09,3.63,3.63,0,0,1,4,2.19,2,2,0,0,1,.12,1.28c-.31,1-1.65,1.28-2.74,1.32q-17.84.77-35.69.86a2.43,2.43,0,0,1-1.2-.18,2.3,2.3,0,0,1-.86-.89,4.48,4.48,0,0,1-.83-2.09,2.13,2.13,0,0,1,.87-2,3.27,3.27,0,0,1,1.34-.37,30,30,0,0,1,3.91-.16"/><path class="cls-2" d="M61.44,140.43c.37-1.25.65-1.9,2-2.12s2.92-.32,4.38-.44c2.84-.23,5.68-.37,8.53-.4,1.39,0,2.77,0,4.15,0a12.27,12.27,0,0,1,3.92.37c2.23.83,2.1,4.3,4.86,4.16,1,0,1.69-.44,2.58.29.2.17.86.86.69,1.15a4.33,4.33,0,0,1-1,.21c-2.86.33-5.84.24-8.72.33q-8.67.3-17.35.44l-5,.06a43.22,43.22,0,0,1-5,0c-.68-.07-.85-.32-1.15-1-.16-.36-.43-1-.12-1.33s1.39-.28,1.81-.3c.89-.06,1.79-.08,2.69-.06,1.93,0,1.93-3,0-3-2.82-.05-7.53-.27-7.62,3.68a5.87,5.87,0,0,0,1.44,3.74c1.17,1.41,2.76,1.26,4.44,1.24q11.65-.08,23.3-.45c3.72-.11,7.49-.1,11.2-.41a4.8,4.8,0,0,0,3.24-1.26,3.47,3.47,0,0,0,0-4.3,5.25,5.25,0,0,0-3.2-2.18,4.85,4.85,0,0,0-1.78,0l-.32.05c-.46.16-.52.15-.19,0a10.88,10.88,0,0,1-.77-1.34c-2-3-5.21-3-8.5-3.09a124.84,124.84,0,0,0-12.68.44c-1.87.16-4.08.12-5.84.8S59,138,58.55,139.63c-.56,1.85,2.33,2.64,2.89.8Z"/><circle class="cls-8" cx="73" cy="142.47" r="6.5"/><ellipse class="cls-2" cx="69" cy="138.97" rx="4.5" ry="3.5"/><ellipse class="cls-2" cx="77.5" cy="138.97" rx="4.5" ry="3.5"/><ellipse class="cls-2" cx="72" cy="137.47" rx="4" ry="2"/><rect class="cls-8" x="38.5" y="156.97" width="5" height="1"/><rect class="cls-8" x="97.22" y="168.93" width="5" height="1" transform="translate(132.34 -24.45) rotate(40.03)"/><rect class="cls-8" x="100" y="158.47" width="5" height="1" transform="translate(-43.23 38.38) rotate(-17.58)"/><rect class="cls-8" x="109.46" y="164.45" width="5" height="1" transform="translate(190.25 -18.39) rotate(57.29)"/><rect class="cls-8" x="87" y="174.47" width="5" height="1" transform="translate(-75.49 68.19) rotate(-30)"/><rect class="cls-8" x="76" y="166.47" width="5" height="1" transform="matrix(0.97, 0.26, -0.26, 0.97, 45.79, -14.61)"/><rect class="cls-8" x="48.44" y="169.45" width="5" height="1" transform="translate(-116.08 110.09) rotate(-53.6)"/><rect class="cls-8" x="30.44" y="167.45" width="5" height="1" transform="translate(106.81 13.57) rotate(36.67)"/><rect class="cls-8" x="40.44" y="163.45" width="5" height="1" transform="translate(201.39 103.81) rotate(83.89)"/><rect class="cls-8" x="39" y="174.47" width="5" height="1"/><rect class="cls-8" x="56.95" y="175.45" width="5" height="1" transform="translate(182.1 36.49) rotate(60)"/><rect class="cls-8" x="66" y="169.47" width="5" height="1" transform="translate(94.16 -11.48) rotate(30)"/><rect class="cls-8" x="75" y="173.47" width="5" height="1" transform="translate(-41.87 25.57) rotate(-14.8)"/><rect class="cls-3" x="130" y="158.47" width="48" height="20" rx="4.51"/><ellipse class="cls-6" cx="148.5" cy="168.47" rx="8" ry="7.5"/><ellipse class="cls-11" cx="160" cy="168.97" rx="8" ry="7.5"/><path class="cls-15" d="M153.84,137.17l-14.63-26.06s-6.5-16.41,14.63-18.34c0,0,19,1,14.09,18.82Z"/><ellipse class="cls-2" cx="153.5" cy="106.41" rx="9.89" ry="8.81"/></g></svg>