<svg xmlns="http://www.w3.org/2000/svg" viewBox="0 0 2000 2000"><defs><style>.cls-1{fill:#96c6f9;opacity:0.54;}.cls-2{fill:#3f51ba;}.cls-3{fill:#f2f2d0;}.cls-4,.cls-9{opacity:0.8;}.cls-5{opacity:0.2;}.cls-6,.cls-7{fill:none;stroke-miterlimit:10;}.cls-6{stroke:#050324;stroke-width:32px;}.cls-7{stroke:#96c6f9;stroke-width:3px;stroke-dasharray:23.96 11.98;}.cls-8{fill:#fff;}</style></defs><g id="Layer_4" data-name="Layer 4"><rect class="cls-1" x="100.1" y="100.1" width="1799.79" height="1799.79"/><path class="cls-2" d="M303.27,466l30.85,41.44a3.2,3.2,0,0,1,.47.92L346.1,546l26.82,22.85L395.57,557l46.49-86-52.89-24.3h0L354.43,430.8ZM368,395l-10.13,30.78L388.94,440l13.51-29.28ZM405.1,552l28.25-14.79L465,481.57l-17.44-8ZM313.94,427l-13,33.22,50.64-34.81,25-75.81L353,377.22ZM514.17,592.17,468.83,486.94l-30.69,54a3,3,0,0,1-1.22,1.17l-35.05,18.35,63.44,117.18ZM369.83,389.22l37.86,17.33a3,3,0,0,1,1.47,4l-14.76,32,50.53,23.21,47.77-88.33-83.21-66.21-.08-.08-25.78,30.19a3,3,0,0,1,.9,3.22ZM435.18,100.1H410.72l6.68,18.72Zm-247,67.9,10.39-45.27L180.51,111l-17.27,38.41Zm140.5,2.16a3,3,0,0,1,2.12.88l41,41L413,124.28l-8.63-24.18H209.92l-16.07,70.06ZM208.57,708.83,252,722.78l84.51,30.29a3,3,0,0,1,1.41,1l22.49-16.49,8.3-28.23-52.31,10.79L255,709.4l-22.42-48.17L192.7,673.69l-10,11.62-33.21-24.08-32.19-16.09L100.1,689v1.64l108,18.09A3,3,0,0,1,208.57,708.83Zm67.17-98.26L271.49,622l95.69-50.1L341.53,550a3,3,0,0,1-.92-1.41L329,510.56l-28.81-38.7L311.45,535l-8.3,50.66Zm-87.53-22.24-12.52,3.44,10.44,15.71,39.67,6.26,15.31-11.13-39.67-6.27ZM450.4,468.27l17.54,8.06,57.84-101.81-35.2-35.2,13.33,27.37a3,3,0,0,1-.06,2.75ZM172.94,808.77l55.5.6a3,3,0,0,1,2,.82L254.15,785l15.2-8.73L187,775.15ZM421.07,297.49l-7.76,9.09,82.29,65.48,2.23-4.12L477.56,326.3l-45-45.05ZM114.73,814.11l-2.94,18.06a3.55,3.55,0,0,1,.69.19L150,848.13,164,814.68l-48.79-.52A3.26,3.26,0,0,1,114.73,814.11Zm63,184.28-5,29.9,7.47,43.18,24.63,13.43L216.1,1024a2.72,2.72,0,0,1,.31-.88l63.33-117.9-39.22-19.1-3.81,35-10,34.05-29.9,12.45Zm44.17,27.17-1.76,9.54L328.29,928.87l-43.14-21ZM228,815.37l-57.56-.62-14.89,35.7,64.13,26.93ZM127.13,518.3a2.91,2.91,0,0,1-.22.51L111.7,546.89,123.46,555,189,456.09a2.48,2.48,0,0,1,.28-.36L237,403.24l-29.3-30.67L177,386.88a3,3,0,0,1-2.93-.22l-36.53-24.34-10.22,37.47V438l14.93,31.11a3,3,0,0,1,.15,2.22ZM113.81,624.69l27.4,2.49,5-31.56,32.39-68.09,35.71-47.34,34.05-21.59L250.83,486l-18.27,26.57-.83,35.71,24.08,44,23.26-12.45,6.64-73.91L274.08,458.6,299.83,383l31.55-39.86,13.29-35.71L382,282.55l26.58-14.12,5.49-5.59h0l-21.42-21.42L243.33,405.21h0L193.89,459.6,126.77,560.91a3,3,0,0,1-1.93,1.29,3.66,3.66,0,0,1-.57,0,3,3,0,0,1-1.71-.53L106.07,550.3a3,3,0,0,1-.93-3.9l16.36-30.21,14.77-45.54L121.56,440a3,3,0,0,1-.29-1.29V399.38a3.06,3.06,0,0,1,.1-.79l11.42-41.86a3,3,0,0,1,1.85-2,3,3,0,0,1,2.71.32L176,380.73l31.18-14.52a3,3,0,0,1,3.44.65l30.49,31.93L388.42,237.16l-61-61H190.08a3.07,3.07,0,0,1-.67-.08,1.06,1.06,0,0,1-.19-.06L189,176a3,3,0,0,1-.75-.39h0L160.71,155l-25.17,56a2.39,2.39,0,0,1-.36.59l-30.76,40,8.73,6.78a3,3,0,0,1,1.06,3.17L100.1,312.89V584l13.71,17.44Zm5,164.43-3.09,19,50.76.54L182.21,771a2.94,2.94,0,0,1,2.81-1.84l89.48,1.18a3,3,0,0,1,2.55,1.51l16.13-9.27,36.16-5.67-79.23-28.4-43.17-13.86L100.1,696.72v60l.36.05ZM376.32,216.57,392.8,233,494.67,152a2.93,2.93,0,0,1,.81-.46L582,118.8l17.2-18.7H443.46l-24.73,26.05Zm-276.22,578v3.37l.36-2.44Zm0-585.41v38.19l17.67-23Zm58.21-63.44,17.11-38-11.57-7.55h-14.6L134.2,127.69Zm426.52-21.52L498,157l-101,80.36,21.25,21.24,40.12-40.79L530.69,202l46-6.64h44.48l21.59-45.68L631.42,100.1h-24L586,123.39A3,3,0,0,1,584.83,124.17ZM188.36,1180.38l56.6-83.13L217,1052.1,210.6,1087a3,3,0,0,1-2.95,2.46,2.62,2.62,0,0,1-.55-.05,3,3,0,0,1-1.5-.76l-66.36,71Zm370.32-724.1,9.51,4.68,14.91-30.23L543.75,403.2Zm-28.5-77.36L472.54,480.39,517.9,585.64l63.66-111.39-13.34-6.57h0l-13.39-6.61a3,3,0,0,1-1.56-1.88l-22.39-79.57Zm43.39,84.7,11,5.43,15.68-26.3-12.19-8.53ZM701,401l-8.57-47.88a3,3,0,0,1,1-2.77L741.83,307l77.5-162.25L811.5,100.1H788v38.74a3,3,0,0,1-.42,1.54L652.35,367.14ZM661.9,874.65l12.9-17.9-74.89-5.86-15.46,90,62.88,19.62-1.21-12.73,18.27-16.61-16.61-14.94-12.45-14.95V887.11Zm-50.53,137.86,39.74-12.46-3.18-33.39a2.89,2.89,0,0,1-.29,0,3.09,3.09,0,0,1-.89-.13l-63.33-19.76-3.73,21.74a3,3,0,0,1-3.28,2.48l-82.08-8.84,9.09,16.31a3,3,0,0,1,.38,1.46v35.34a3,3,0,0,1-1.21,2.41l-35.12,26.15L416.7,1099c-.05,0-.13.08-.18.13a3.19,3.19,0,0,1-.6.44c-.06,0-.11.09-.17.12L353,1128.74l-43.89,47.06,41.89,21a3,3,0,0,1,1.65,2.68h9.46l25.74,13.17L402.8,1239l6.65-44.65,11.62-26.58,10-26.57,2.49-19.1,23.25,20.76,25.75,31.87,34,10.74L497.47,1152l17.44-18.29,22.42-12.43,25.75-31.56L586.33,1069l14.12-12.46,29.89,2.49-4.15-24.08-83.54-21.59,5.48-15ZM158.68,1418.17,151,1371.69a3,3,0,0,1,.15-1.52l20.45-55.89a3,3,0,0,1,.63-1l95.57-101.92,23-24.68-45.57,22.5L100.1,1408.43v45.33l19.17-12Zm289-638.94,6,4.72V767.63a3,3,0,0,1,.36-1.41l22.14-41.56-14.93-8.37ZM190.61,1187.84,100.1,1327.78v32.14l110.84-163.49ZM576.73,273.41l12.09-29.06-12.09-34.88L528.2,223.58l-52.32,11.63L446.82,261,436,276.35a2.29,2.29,0,0,1,.41.28l92.48,92.47L560,314.33l-26.79-5.21,9.14-23.25ZM100.1,641v31.6l11.54-29.35Zm0-385.16v34.4l7.79-28.35Zm30.11-47.64,25.57-56.86L131.29,133,100.1,190.17v11l21.34,18.35ZM203.76,100.1H185.4L183,105.42l17,11.07ZM326.18,782.93l-44.62,21.14-25.75,39.86-13.88,36.24a1.84,1.84,0,0,1,.25.09l40.41,19.67,62-115.45-15.68.17A2.87,2.87,0,0,1,326.18,782.93ZM178.81,100.1h-4l3.06,2ZM418.57,833.17l26.31-3,8.52-38.82L445.28,785Zm-59.78-69.8-24.9,15.22,108-1.13,20.14-93.16-65.52-121L271.31,628.85a3,3,0,0,1-1.39.34,2.88,2.88,0,0,1-1-.21l-11.41,30.59L269.1,682l49.83-2.49,35.71-5,29.06,24.91-2.49,45.67ZM100.1,109.73v67.9l26.33-48.24Zm42.31-9.63H100.1v2.13l29.24,21.83ZM459.74,768.38v20.27l5.42,4.23,32.79-56-16.48-9.24Zm47.34,117.23h0L519.53,843,480.26,812.3,440.8,895.79l56.36,23.78ZM638.79,502.46,572.12,622l-2.5,4.27,22.88,42,14.83-29.43h0l61.33-121.66Zm-141,511.33v-33l-10.47-18.8-59,11.31,51.17,54.16ZM621,487,659.45,506,646.21,478.5ZM842.12,100.1H817.6l6.26,35.75ZM677.24,659.3l-15.6-3.74L610,794.93l33.25,12.23Zm23.57-251.12-51.55-35.87-40.19,67.41L648.31,447a3,3,0,0,1,2.46,2.95v16.73ZM593.89,850.42l-68.7-5.36-11.77,40.26,65.52,52.09ZM575.23,959,501,927.72,492.78,956l81.47,8.77Zm2.55-14.86L511.6,891.55l-8.87,30.37,73.54,31Zm271.6-783.23,40-60.84H848.86L826.3,144.28ZM602.68,799.29l-30.18-3.82v47.26l22.41,1.75Zm53.07-145.14-30.66-7.34-51.5,142.74,30.59,3.88Zm41.3-123-23-11.34L614.45,638.09l43.4,10.39,7-19ZM862.87,219.84l7.54,42.73,2.26-3.16,57.5-100.17,28.46-59.14h-36L864.17,218.53A3,3,0,0,1,862.87,219.84ZM782.4,385.72l.14-.21,83-116.09-17-96.25-6.67,10.14L725.37,423.08l25.25,16.34Zm-34.84,58.87-27.68-17.91a3,3,0,0,1-1.07-3.83L836.53,180.51a2.17,2.17,0,0,1,.19-.33L846.08,166l-22.47-16.21L747,310.16a3,3,0,0,1-.71.95l-47.62,42.6,9.55,53.37h0a4.4,4.4,0,0,1,0,.62c0,.07,0,.13,0,.2s0,.28-.07.42,0,.15-.07.23-.09.24-.14.36l-.13.23c0,.06-.06.12-.1.18s-.07.06-.09.1a1.7,1.7,0,0,1-.1.14L679.69,442.1l51,30.94ZM965.3,100.1l-29.77,61.84a1.14,1.14,0,0,1-.1.19l-57.62,100.4a2.13,2.13,0,0,1-.16.25l-6.49,9.07h0l-83.65,117-53.17,89.84h0L705,528.39l40.59,20,17.68-38.3,24.91-43.18,63.11-84.71,33.22-62.28,12.46-53.15,55.64-68.1,55.81-98.57Zm-104,110.72L915.94,100.1H896.62l-43.29,65.76ZM321.42,1329.74l50.66,34,41.52,16.61,32.39-9.14L426.05,1343l-50.65-17.44-38.2-23.26,28.23-4.15L392.84,1265,372.08,1239l-20.94-36.94a3,3,0,0,1-2.83.07l-43.47-21.78-32.68,35.06L177,1316.92l-20,54.57,7.91,47.71a3,3,0,0,1-1.42,3.07l-41.12,24.66-22.3,13.9v11.26l7.34,40.39a3,3,0,0,1-3,3.54H100.1v32l12.05-9.89,14.11-34,56.47,5,38.2,26.57,34.88-5.62,35.71-28.43-.83-51.49L265,1397l-34.88-13.28-53.15-19.93,19.1-10,57.3,14.12,52.32,22.42,35.71,12.46L402.8,1436l14.95-16.61L410.28,1397l-73.08-35.7-80.56-34.88-.83-21.59,27.41-3.33ZM349,1124.21a3,3,0,0,1,.93-.67l56.58-26.22-48.48-17-51.6,59-51,58.13,46.91-23.16Zm378.65-646-51.92-31.48-24.42,28.54,16.88,35,31.35,15.45ZM100.1,1505.7V1510h.79ZM697.61,647.11,670.37,632l-6.63,17.91,17.79,4.26a3,3,0,0,1,2.23,3.59L648.37,811.83a3,3,0,0,1-2.93,2.33,2.81,2.81,0,0,1-1-.19l-35.89-13.2L600.93,845l71.51,5.59-13-9.93,8.3-21.6L681,816.52V775.83l31.56-42.35-5-36.54Zm4.88-113.24-31.09,95,50.11-21.66,11.81-32.39,9.7-21s0,0-.07,0ZM619.21,645.41l-7.54-1.81L540.22,785.33l27.26,3.45Zm-370.55,446.4L351.82,940.32,334,931.66,219.3,1044.36Zm-62.6-148.23,31.81-60.45-67.39-28.3h0l-39.65-16.65L108,855.55l-7.89,33v33.63l13.71,28Zm101.93-41,67.15,32.69,53.49-96.53-75.4-20.37ZM486.52,956l8.94-30.61L391.73,881.6l-31.18,56.29L422.8,968.2ZM336.15,812.91l75.48,20.39,27.6-49.8-87.77.91Zm230.34,29.35V794.71L537.35,791l-21.07,41.8,7.84,6.13Zm-53.13-96.77-10.17-5.71-33.25,56.83,8.39,6.56Zm-63.07,88a3,3,0,0,1-2.59,2.34L415,839.62l-20.33,36.7,40.6,17.13,40.15-84.94-16.76-13.09Zm217-733.42h-4.38l3.33,7.21Zm-132.7,515-16.48-17.72-50,87.55-5.46,25.21,16.43,9.21Zm27.25,12.54-22.22-9.2L484.29,722.3,501,731.66Zm82.92-175.2-39-7.23L590,471.71l23.4,11.54,31.36-10.6Zm-508,712.69L132.08,1221l-28.24,40.69-3.74,9v46L185,1185.47Zm79.8,33.67L100.1,1370.63v27.59l138.46-190.14ZM617.89,229.4l24.91,20.76L637,292.51l-15.78,23.25-25.74-19.93-29.82,17.58a3,3,0,0,1,0,3L533.26,373.5l2.42,2.43a2.91,2.91,0,0,1,.77,1.31l4.74,16.83,44.6,31.21L710.84,171.84a3,3,0,0,1,4.32-1.2l34.23,22L782,138V100.1H673.37l-1.85,12.64a3,3,0,0,1-3,2.57h-.11L666.88,158l-15.77,31.56-18.27,25.74ZM589.21,674.81,577,652.3,483.1,806.9l28.35,22.15Zm-287.29,460.5L354.69,1075l63.4-102.4L357.28,943,252.12,1097.4l34.36,55.52Zm-85.28,57,25.74,10.86,39.95-45.53-33.91-54.8L194,1182.76l22.63,9.55ZM628.71,497.49l-41.48,31.62-44.77,84,22.44,9.28,2-3.42L633.39,499.8ZM506.22,734.6l10.26,5.75,57.16-94.15-7.56-13.9ZM714.74,177.51l-124,251.26,12.59,8.81L746.31,197.82ZM521.23,591.93l16.35,17.58,44.65-83.81a3.11,3.11,0,0,1,.83-1l39.63-30.2L587,476.91Zm-58,447.65a2.93,2.93,0,0,1,.42-.37l11-8.18-51.75-54.79-61.26,98.94,52,18.27Z"/><polygon class="cls-3" points="782.17 1089.12 792.06 1095.01 796.06 1086.77 785.47 1083.24 782.17 1089.12"/><polygon class="cls-3" points="814.9 1052.63 809.48 1046.17 798.4 1056.39 798.4 1063.69 807.36 1063.69 814.9 1052.63"/><path class="cls-2" d="M1236.64,1078.33l-9.66-21.68a3,3,0,0,1-.19-.58l-11.25-51.29-12.76,1.94,10.49,79.65Zm24.51-330.47-44.53-7.92L1170.2,754.4l81.28,23.77Zm-61.12,238,2,14.95,12.25-1.87-3-13.6Zm76.58-194.05-21.19-6.19-7,21.76Zm-82.06,152.42,4.69,35.65,10.66-.49-12-37.92Zm92.74-89.89,12.77,5.71,32.84-44.53-15.41-11.75-32.77-9.58-36.5,20.2Zm-11.51,269.16-27.7-20.41a3,3,0,0,1-1-1.19l-8-18-22,7.55,45.58,33.95Zm-38.66,113.46-4.06-26.7-73.1,10.06,3.33,24.25Zm-16-105.6-1.76-11.61-71.82,9.49,1.7,12.45Zm319-619.15-40.94,4.44-13.61,17,53.77,8.86ZM1162,1282.57l-11.33-2.44-3.6,71.13,10.63.84Zm-15.23,74.7-2.45,48.46h10.11v-.14a2.34,2.34,0,0,1,0-.46l2.91-47Zm11.54-105-4.28-31.22-14.86,2.05,4,27.07Zm-5.09-37.17-3.36-24.5-15.18,2.36,3.6,24.2Zm-19.42-28.08,15.25-2.38-1.18-8.56-15.39,2.11ZM1352.1,534.71l-4.2,6.22,37,23.64,20.89-38-34.31-5.65h-.08l-6.07-1.17ZM1382,569.85l-37.45-23.94L1333.71,562l39.37,24.1Zm-58.92,7.87,40.26,26.09,6.85-12.48-39.83-24.39ZM1371.19,513l2.17,2.09,36,5.94,23.09-24-26.34-23.68Zm122.22,1.08L1456.24,481l-15.14,15.74,38.5,34.62ZM1153.86,750.37l5.76,1L1215.53,734a3.09,3.09,0,0,1,1.42-.09l46,8.19,3.71-11.64-59.46-20.31-28.8,18.12Zm256.23-281.49,26.54,23.86L1451.75,477l-27.37-24.37ZM1159.26,689.51l24.46,7.29,10.76-30.4-19.55-11.72Zm-25.74,57.21,12.85,2.3,27.68-24.9,7.66-21.65L1156.77,695Zm150.3-194.43L1318,574.46l7.18-10.66-34.08-20.86Zm-82.34,31.36-34.09,49.94-4.77,6.7,34.7,20.81,41.1-56.65-36.73-20.65Zm45.76,18.86L1288,625.43l26.84-45.9-34.64-22.44Zm-44.75,61.69,34,20.41,26.67-16.78L1285,630.61l-41.26-23.2Zm134.93,615.16-36.53-4.26-6.82,11.06,44.6,3.1Zm-185.23,292.88-5.77-56.28-16.72,1.22,7.48,56.28Zm-20.22,7.67-7.53.61,9.12,11.35Zm31.89-71.24-.72-7.92-12.13,1.11.79,7.69Zm13.47-40.67-3.53-56.26H1161l5.24,57Zm-77.26,111.12-53.62,30.48,6.34,28.55,51.41-31.23Zm8.23,55.47-3.15-21.22-51,31,4.52,20.32Zm18.58-41.45-10.68-13.28a2.22,2.22,0,0,1-.21-.37,1.13,1.13,0,0,1-.16-.26,2.87,2.87,0,0,1-.27-1v0h0l-.75-7.47-9.13,5.19,4.1,27.6Zm52-99.88L1177.7,1474l-10.92.69,1.79,19.53Zm106.11-9.75-1.37-16.21-100,6.31,1.2,19.1Zm9.28-209.18-26.88-3.14-4.6,12.79,24.49,1.7Zm-107,10.41L1183,1354.1l98.48,7.77,4.21-70.28Zm-7.22,222.75-.73-8.24-10.24,1,.74,8Zm-19.86-38.41-5.27-57.34h-11l-.74,14.5,4.47,43.63Zm122.91-7.77-4.2-49.57h-99.12l3.5,55.88Zm12-323.59-12.46-9.18-13.14,1.89,19.6,14.6Zm-174.82,427.79.93,9.24,9.94-.8-7.48-56.33-8.12.59,4.73,47.29Zm25.5-55.52-.78-7.58-16.48,1.51.53,7.28Zm-1.39-13.56-2.07-20.21-15.77,1,1.53,20.71Zm-35.36,17-1.67-16.68-12.62,5.71,2.44,16.41Zm5.09,50.77-4.45-44.45-11.58,5.31,6.61,44.5Zm-7.39-73.76-1.09-10.84-13.5,5.29,1.68,11.39Zm13.39-18.84-4.4-59.87h-10.84l6.06,60.45Zm1.78,24.15-1.34-18.16-9,.57,1.23,12.3Zm-29.49,31.91-58.25,26.71,10.9,49.08,54-30.71Zm48.34-171.35-7.14-1.84-11.35,51.25h16Zm1,113.92-4.47-43.61a3.53,3.53,0,0,1,0-.46l.73-14.43h-16.2l4.36,59.49Zm1.28-158-8.07,36.41,6.15,1.58Zm89.15-107.93-3.93-25.85-72.45,11.28,3.37,24.61Zm179.27,76.81,12.47,1.31,17.44-18-29.91-21.52Zm39.07-17.5,30.06,21.63,7.88-5.09L1457,1256.94Zm-4.23,4.36-14.77,15.24,42.07,4.4Zm22.84,31.8,30.77,2.48-2.83-20.51Zm-52.62-128L1376,1141.14l-24.64,30.56,42.23,31.11Zm4.79,3.62-22.83,31,20.39,15,22.56-30.81Zm-6.88,62.25,31.17,22.43,6.5-6.71-31.94-23.54Zm251-216.17-6-26.89-97.89,8.14h-.43l-75.78-4.59,31.8,90.68,13.65-2,96.87-40.73Zm1.7,6.06-35,22.88v30.12l50.7-3.14Zm-72.2,61.32-56.47,3.5,14.82,14.87,35-12.9Zm-223.64,48.68-24.1-18.23-33,4.74-10.34,12.61,14,10.32a3.16,3.16,0,0,1,.84.38,3.05,3.05,0,0,1,.85.87l27.06,19.93Zm135.54,107.77-1.12,8,44.52-29.35-7.6-35.53Zm-2.22,15.94-1.36,9.79,14-8,0,0,72.07-41.17-12.59-8.17Zm2.09-95.32-11.52-12-28.65,12.58L1448,1191.79h0L1423.68,1225l70.15,51.69,2.77-1.79,4.32-31a2.81,2.81,0,0,1,.43-1.18l38.28-60.8-32.11-15.3A3.17,3.17,0,0,1,1506.65,1165.9Zm18.69-45.08-13.94,25.3a3,3,0,0,1-1.42,1.3l-9,3.94,9.61,10,33.68,16,43.36-11.37-36.44-51.9Zm-270.12,114.23-4-27.33L1239,1209.4l4.08,26.9Zm-4.86-33.28-3.82-26.19-12.37,1.93,3.94,26Zm204.85-667.06,25.4,79.26,35.84-69.18Zm-210.83,584.47,1.25,8.61,8.64-1.24Zm39.26,44.55-.73-6.19-32.29,4.44,1,6.74Zm3.86,32.94-3.16-27-31.86,5,3.83,26.3Zm.69,6-31,4.27,4,27.54,30.35-3.13Zm42.64,24.63-3.8-30-32.88,4.52,3.38,28.88Zm-69.53,43.21-20.52-2.39v14.36l15.81,1.1Zm34.61-2-3.66-31.19-29.93,3.08,5.55,24.83Zm40.73,4.75-5.06-40-33.35,3.44,3.81,32.52Zm6.13-100.4-25.17-18.55-5.35,8,17.11,12.75,0,0,7.24,5.39ZM1256.3,1241l-13,1.34-2.19,19.75,20.46,2.39Zm27.66-89.65,1.36-1.65-24.22-18-14.6,2.1,3.26,22.3Zm575.75-290.62-28.81-26.82a3,3,0,0,1-.9-1.61l-11-56-32.68,12.4L1828.38,897l42.7-16.13ZM1794,658.8v11.27l29.16,98.15,57-21.63,19.67-41V675.36l-6.48-57.7Zm-82.88,158.33,13.44,26.4L1789.68,814l-9-23.18Zm164.7-250.76a3,3,0,0,1,1.3-.53l22.75-3.41V542.17l-35.15,8.66Zm21.74,43.06,2.31-.95v-40l-18.07,2.7ZM1760.3,740.52l-55.74-16.92,28.12,53a3,3,0,0,1,1.83,3.44l9.63,18.16,34.36-13-.12-.3Zm-45.68-54.09-12.1,30.27,54.86,16.66-20.39-50Zm-42.32,337.65,16.37,52L1724,1061.3,1696.38,1008Zm-35.91-433.29,37.32-6L1634,574Zm-152.78,30.45-.41.8,7,21.91,151.41-21.86-10.06-24.45Zm304.41.4-59.47,8.63,1.27,19.58,10.68,26.2L1788,654.84Zm-66.37-5-71.58,10.33,3.27,8.19,68.86-10ZM1899.9,536V517.76l-26.54,24.76Zm-212.08,52.68-50.16,8,10.1,24.54,73.5-10.61-.85-13.08Zm212.08,447.07V996.3L1858.67,1022Zm0-116V876.41L1879.75,884Zm0-298.24V615l-.7.29Zm-100.16,394.84-57.61-9.22,6.13,44,46.88-19.62Zm-12.43,25-37.13,15.54,6.24,10.39,13.23-5Zm-36.61,28.08-6.11-10.2-42.84,17.93h28.33ZM1764,927.73,1738.2,979l3.06,22,60.24,9.63,27.93-92.25-13.63-10.12Zm37.62,103h31.56l10.28-6.4-37.78-7Zm26.59-15.33,22.82,4.22,48.84-30.42V970.56l-38.09-28.25Zm71.66-270.91v-25l-12.5,26Zm-65.35,177.58-27.09,89.49,14.69,2.72,34.73-75.65Zm-9.88-148,11,56.08,28.45,26.47a3.29,3.29,0,0,1,.57.72l12,21.38L1899.9,870V750.54l-16.81,1.39Zm5.89,128.52,4.94,12.71,26.89,20,0,0,37.48,27.8V932l-25.83-45.81Zm-707.47,609-.63-8.63-8.92-5.17,1.44,14.39Zm498.24-240.07-75.11,26.86-.32.1-39.18,9.29.94,6.85,116.8-27.51Zm94.89-134.44h-29.43a3,3,0,0,1-2.25-1l-12.86-14.55-25,5.65-28.47,36.35a2.94,2.94,0,0,1-1.6,1l-16.8,4.41,38,25.07,42.36-24.2s0,0,.07,0a2.57,2.57,0,0,1,.41-.19,2.7,2.7,0,0,1,.49-.12l0,0h.07l45.31-7.37Zm-364.73,221.6-5.33,3.37h5.33ZM1640,1212.14l-23.11,6.67,5.51,27.47,26.14-11.37Zm-234.55,88.5-60.46-4.88-2.75,61.72,63.21-40Zm99.44,37.75-87.27,17.38,2.46,14.81,87-16.62Zm-84.07,73.26-5.65-34-57.66,11v25.85a2.59,2.59,0,0,1,0,.48l-1.34,8.26,2.11,2.4ZM1641.44,1199l2.21,5.88,42-12.14-5.63-15.81Zm91.26-37.79,41.08-6.69,5.93-32.22-57.37,14ZM1877.06,1125l22.84-16.93v-9.33l-34.66-3.7Zm-68.5-962.66a3,3,0,0,1-.48,2l17,11.06,23.23-50.5a3,3,0,0,1-1.72-2.18l-3.33-19.2-40.73,7Zm69,156.8-4.71-25.32-22.37,6.48v11.77l-47.12-8.24-4.12,15.31L1774,327.37v42.4l-33,15.31,8.25,24.73,45.93,6.48,5.3,88.92,11.78,17.67-3,15.9,24.15,18.84,26.4-8.45L1818,495v0l-4.59-5.94a3,3,0,0,1-.62-2l6.07-90.83a3,3,0,0,1,2.2-2.69l55.71-15.36a2.45,2.45,0,0,1,.54-.1l22.56-1.88v-15.3l-27-9.92Zm-38.75,773.08-72.07-7.7,18,30Zm12.52,1.34-65.2,26.85-5.91,32.1,48.37-17.49a3,3,0,0,1,1-.18h34.15l8.27-6.13-13.56-34.39Zm-701.43,518.69,6.31-.48-1.64-16-14.33.93.55,4.18Zm19.64-41.4-5.16-56.18-12,.88,5.77,56.23Zm1.65,17.87-1.1-11.88-11.33.91,1.2,11.69Zm2,21.74-1.44-15.76-11.17.72,1.63,15.89ZM1827.42,100.1h-26.14l.51,4.41ZM1139.08,1631.56l-1.15-7.9-14.75,8.94Zm14.91-41.75-1.19-11.59-14.83,1.2,1.5,11.33Zm251.44-309.35v-39.77a3,3,0,0,1,.55-1.72l-22-15.8-46.5,9.17,5.26,41.57Zm-63.68,87.65-.07,1.6,2.71-1.6Zm9.74,2.77-10.13,6-.39,8.82,10.52-2Zm0,43.39v-24.46l-10.8,2.06-.59,13.17,10.88,12.37ZM1185.6,1569.54l-5-56.07-10.21.75,5.15,56.13Zm100.8-69.79-.87-10.25-100.19,9.2.74,8.35Zm27.92-131.64h-27.18l-2.1,35.16,31.35-18.58ZM1460.25,161.69l38.06-33L1470.72,108l-5.62,3.78-13.48,47Zm206.54-16.48,18.61,33.54,34.7,5.07,33,45.7,48-2.32-45.93-37.08a3,3,0,0,1-1.07-1.8l-2.31-12.95-54.6-75.27h-101l26.67,26.18Zm-70.33,244.44,38.28-3.87L1664.86,366l-3.45-20.22-44.3-33.12-34-9L1553,285.55l-23.22,15.06v50.76l18.49,22.36ZM1324,453.91l-27.1,4.78-28.85-2.36-27.68,20.61v18.85l14.34,13.82a3.07,3.07,0,0,1,.65-.53l20.89-12,.08,0a2.84,2.84,0,0,1,.87-.31l.14,0a3,3,0,0,1,.95,0h0l35.87,7,17.3-22.11-7.45-27.41A2.51,2.51,0,0,1,1324,453.91Zm283.58-268.14L1597.5,164l-17.67,3,12.34,21.36ZM1586,139.17,1567.9,100.1h-18.62l17,42.8Zm209.85-33.64-.63-5.43h-50.84l2.48,13.86ZM1538.93,173.9l4.39,22.41,42.51-7L1573.51,168Zm30.23-25.43,7.47,12.94,18.25-3.1-6.26-13.52Zm-427,303.6-18.63,32.44,11.12,5.86,18.79-32.28Zm3-5.21,11.31,6,33.27-57.14L1177.78,390Zm-24.61,42.86-17.79,31,10.91,5.74,18-30.86ZM1261,245.09l-22.4,39,12.28,6.56,22.45-38.56Zm-80.21,139.67,11.94,5.78,55.13-94.7-12.25-6.54Zm39.82-110.28,12.69,6.78,22.48-39.14-12.67-7.2ZM1286,316.21l-32.84-17.54-55,94.5,13,6.29a2.93,2.93,0,0,1,1.29,1.19l13.48-7.8,29.62-51.62Zm473.79-130.06,45.79,37V165.67h0a3,3,0,0,1-3-2.65l-6-51.51-48.63,8.36Zm-10.46-24.36-7.31-40.9-19.88,3.42ZM1531.24,100.1h-48.87l-6.38,4.31,27,20.23Zm-23.37,28.23,18.78,14.09-5.09-26ZM1741,115l-2.66-14.87h-33.72l13.62,18.79Zm-205.74,39.92,2.57,13.11,32.53-5.52-7.41-12.82Zm324.45-54.79h-10.94l3,17.25Zm-378.31,51.24L1519.92,171l11.94-2-3.49-17.79-25.14-18.87ZM1137,1617.2l-.75-5.21-1.15-8.64-4.42-5.49-20,12.13,3.15,21.22ZM1432,126.8,1459.93,108l2.26-7.88h-48.26l-9,28.37Zm101.82,21,1.33,1L1560.3,144l-17.49-43.94h-2.41l-13.61,11.81Zm-65.38-47.7-.76,2.66,3.94-2.66Zm-33.76,32.14a3,3,0,0,1-1.49.51L1403,134.61l-2.12,6.67,45.09,15.49L1457.35,117ZM1849.33,558.8l-23.56,17.67-32.38,25.24,0,0,.12.18a3.79,3.79,0,0,1,.2.34l.09.22c0,.12.08.23.11.35a2.38,2.38,0,0,1,0,.26c0,.12,0,.23,0,.35s0,.08,0,.12V652.3l98-40.57L1874.82,570a3,3,0,0,1,0-2.15ZM1739,583.27l-9.39,9.67,51,6.3-41-16.92A3,3,0,0,1,1739,583.27Zm-278.6-106.58,36.76,32.73,7.58-9.46L1470,466.72Zm80.17,15.12-30,10.43-6.21,7.75,35.8-3.88Zm187.58,132.45,59.86-8.69V607l-60.41,8.73ZM1788,670.5v-9.08l-45.25,20.19,41.19,101,.15.39,33.45-12.69-29.41-99A2.8,2.8,0,0,1,1788,670.5Zm64.4-279.43v24.6L1899.9,417V382.17L1878.12,384Zm-514.73,797.62-4.92,6.1,4,31.57,40.72-8Zm525.55-644.94,36.66-34.2V491.79l-73.58,4.11Zm-568.37-5.58,33.72,20.65,10.89-16.14-32.09-20.51ZM1339,482.05l27.9,26.82,34.8-39.5-29.41-26.44Zm-27.84,35.37,31.73,20.28,4.39-6.51a3.55,3.55,0,0,1,.23-.31l11-12.49-41.78-8.1Zm82.8-99.95,30,26.68,10.31-11.71-29.22-28Zm34.44,30.67,27.57,24.55,9.75-10.13-27.15-26Zm-52.21-9.79,29.48,26.51,14.28-16.21L1390,422ZM1120.53,1717l-11.27-76-49.32,29.88,8.18,52.84Zm259.79-359.93,30.4-6.06-2-12.25Zm-22.83,25.47,56.67-10.83-2.45-14.77-54.22,10.8Zm81.6-79.19-27.33,17.28,1.35,8.12,37.86-24.44Zm-49-95.7-42.45-31.27-6.15,7.63,42.63,31.75Zm114,124.78-3.33-24.1-39.91-3.22-46.63,30.1,2.44,14.63Zm-88.76-106.19-20.4-15-6,8.1,20.58,14.81Zm204.85,39.37-2.35-11.7-98,14.55-17.13,9.78,3.26,23.6,38.46-9.12Zm111.54-182.67a3,3,0,0,1-1.06.19h-41.73l-12.7,34.46,12,13.53h29.71l61-14.84-25-41.65Zm147.66-47.73-27.29-9.11-16.4,10.21a3,3,0,0,1-1.58.45H1799l-25.26,30a2.94,2.94,0,0,1-1.24.88l-12.94,4.85,3.34,5.56,86.91,9.28,23.76-24Zm-.06,30.22a3,3,0,0,1-.81,1.51l-21,21.21,42.45,4.53v-30.49l0,0a3,3,0,0,1,0-2v-18.13l-14.83-5Zm-274.12,22.77-13.57,11.07a3.19,3.19,0,0,1-.86.49l-33.56,12.39,36.66,52.24,20.32-5.33,28.5-36.39a3,3,0,0,1,1.7-1.08l26.15-5.92,11.88-32.26Zm-8.92,136.57-62.12,35.49,82.49-12.25-5.53-27.52Zm-48.73-42,8.06,37.65,19.47-12.84a3,3,0,0,1,3.29,0l16.84,10.93,13.93-8a3,3,0,0,1,4.84-2.76l18.06-10.32-40-26.36ZM1320.85,505l41.69,8.08-27.4-26.34Zm-241.08,759.83,12.59,72.82,36.76,9.48,15.16-68.36Zm79.37-6.31L1076.7,1247l2,11.41,82.91,17.91Zm-60.26,153.24h-7.57v67l13.74-5.38Zm17.25-6,11.69-52.75-34.34-8.86,10.65,61.61ZM1132.31,1218l-3.58-24.1-59.61,9.28,4,23Zm4.66,31.33L1133.2,1224l-59.08,8.13,1.5,8.71ZM1306,514.17l4-5.16-17.41-3.38ZM1054.12,1249l18.06,7.15-1.83-10.61-17.82-8Zm37.4,272.47-2.44-16.45-59.84,27,3.62,16.29Zm-61.62,202.69-2.21,4.79,2.84-.36Zm24.49-49.89-23.54,14.27,3.54,24.65v0l2.1,14.6,25.68-3.31Zm-30.05,11.19-3-21.16-26,15.81,3.21,21Zm23-44-18.76-84.5-15.64,7.17,13,90.35Zm1.38,6.2-21.87,13.29,3,21.16,23.34-14.14Zm49.63-901.16-8.73,28.44h76l36.51,25.33,32.25,35.52h.11l5.92-22.88,0-.09s0,0,0-.07l9.19-28.83-90.53-26.48-60.39-10.83C1098.61,746.56,1098.5,746.51,1098.38,746.48Zm72.15,173.32L1191.46,939l4.21-3.45-43.43-84.85-11,1.38Zm-11.4-274.63-28.25,39.65-25.33,38.28-5.4,17.63,27.27,4.89,42.32-94-10.42-6.25Zm86.58-105.8-27.68,20-13.17,19.3L1242,599.55l33.17-45.73-28-18.11Zm-52.49,440.75-4.14-31.44-40.91,33.51Zm65.18-465.83a3,3,0,0,1-2.62.17l-6.32,15.63a2.45,2.45,0,0,1,.51.26L1278.76,549l23.55-30.08L1277.7,503.2Zm-190.3,683,59.74-9.3-1.33-8.93-60.13,8.27Zm60.27-46.57,3.21,21.58,15.46-2.13-3-21.71Zm28.93-162.93,1.94,19.49,36.82-5.6-2-15.57Zm-10.63,135.47,71.73-9.48-2.38-15.71-5.91-4.4-65.29,16.1Zm-77.56,115.16-.95-5.5-8.62,1.18Zm134-149.2-38-23.2,3.17,31.78Zm3.91-4.65-10.13-76.93-37,5.62,4.52,45.27Zm75.1-102.44-22.72,8,24.23,72,31.74-10.92,59-60.1Zm53.12,398.42-10.93,6.47,10.12,11.52Zm3.79-85.23-47.28-3.3-4.2,70.09H1336Zm28.58-1165.44,10.12-29.77h-36.9L1332,118Zm-65.2,48.45,60.57-43.66-33.62-11.21ZM1338.24,1496l1.33-8.2-2.36-3-45.7,4.2.88,10.36Zm-164.44-90.24,2.86-46.11-13.37-1-2.89,46.7,0,.46Zm161.94-37.62h-15.37l1.66,13.24,13.47-8Zm-46.09,98.81,1.35,16,41.82-3.84-11.1-14.22ZM1195.11,398.37l-33.38,57.35,7.71,4.11a3,3,0,0,1-2.82,5.3l-7.91-4.22-18.79,32.26,13.75,7.25L1197,422.7a3,3,0,0,1,3.87-1.25l7.65-16.57-.06,0ZM1089.65,881.51l-4.25,35.61,30-19.08-4.28-45.32a3,3,0,0,1,2.62-3.26l20-2.53a2.94,2.94,0,0,1,1.44-1.34,3,3,0,0,1,3.4.73l11.9-1.5-9.43-57.19a2.9,2.9,0,0,1,0-.72l-17.81-1.39-26.5,21.2L1089.65,848Zm53.6,261-1.72-12.51-15.93,2.11,1.88,12.67Zm-125.57,593.82-13.57,1.75,3.17,20.77Zm271.46-275.38,28.1-1.78-31.7-40.61Zm-260.81,252.31-3.06-21.31-25.81,15.64,3.75,24.55,17.44-2.25Zm94.74-598.13,1.64,11,16-2.12L1139,1111.2ZM1396.53,135l-11.83.73,10.46,3.59ZM994.06,867,964.8,851.29,932,910.13l33.31,13.34Zm30.46-122.46h-.14l-25.54,45.77,9.16,4.39a3,3,0,0,1,1.66,3.11l15.66,2.13Zm-50.59,33.82,19.49,9.34,25.5-45.71-18.2-9.66ZM926.35,907.88l33.16-59.43-20.12-10.79-35.61,61.18Zm10.76-78.25,28.35-48.69-9.58-4.59-27.82,48.43Zm72.84,6.15a3,3,0,0,1,2.23-1.61l-5-33.86a3.32,3.32,0,0,1-.44.06,3,3,0,0,1-1.3-.3l-9.49-4.54L967.73,846l29.06,15.57Zm487.57-581.63-8.17-7.74L1476,276.09h21.5Zm169.25,137.4-17.08-2.94-12.36,35.33-18.85-12.36-11.78,24.73-29.44-1.18v43l4.12,11.78-34.69-2.17-1.37,53.32,87.41-44,.09,0a3.06,3.06,0,0,1,1.56-.27.33.33,0,0,0,.1,0l37.73,5a3,3,0,0,1,1.56.7l43.24,37a3,3,0,0,1,1,2l35.29-3.26,8.24-30,4.71-8.25L1657.94,431.6ZM1398.48,128.87l9.14-28.77H1384l-10.3,30.29Zm-333,480.24-10.4-5.51-41.51,72.29,9.9,5.38Zm-54.91,72-21.84,38,9.7,5.15,22-37.82Zm344.67-274.23v13.54l-26.32,30.7a3.07,3.07,0,0,1,1,1.49l6.35,23.37,66.22-77.8a3,3,0,0,1,2.13-1.06,2.94,2.94,0,0,1,2.23.83L1472,460.31l37.56,35.94,33.14-11.54a2.1,2.1,0,0,1,.42-.09l-10.62-54.79-27.68-14.72-17.66-9.42L1501.29,391l-17.67-28.27L1418.85,348ZM1239.78,839.28a3,3,0,0,1-2.58,2.23l-78.58,8.42,41.81,81.68,40.26-33a3.22,3.22,0,0,1,.86-.5l41.78-15.45L1296.41,865l-12.1-5.4a3,3,0,0,1-.92-.64l-38.5-39.37ZM1726.5,598.61l.72,11.12,41.18-5.94ZM942.61,763.33l10.84,5.19,27-47-10.8-5.73Zm781.25-112.6-1.27-19.59-67,9.73,18,45.16,61-8.42-10.58-25.94A3.05,3.05,0,0,1,1723.86,650.73ZM1147.1,787.39l9.36,56.73,76.78-8.23-64.67-46.83Zm705.32-324.91a3,3,0,0,1-3,3l-.32,0-28.62-3-1.59,23.83,3,3.86,78-4.35V423l-47.48-1.36Zm-6-69.75-21.67,6-1.08,16.15,22.75.65Zm-501.63,897,60.64,4.89v-8.11l-61.87-6.47Zm12.7,71.89,6.81-1.35,43.31-28-1.36-8.19-48.76,30.82ZM1237.17,1243l-73.07,7.54.36,2.63,70.66,8.25Zm174.26,70.78,17.7-11.18-17.7-1.43ZM1234.77,1282v-14.64l-47.26-5.52v16.87Zm391.3-210.87-12.92,10.53,12.92-.8Zm0-17.87-77,32.38,53.79-3.34,23.21-18.92ZM1155.8,548.61l19.37-30.07-19.11-10.07-17.37,31.12,16.89,8.87C1155.66,548.5,1155.72,548.56,1155.8,548.61Zm312.56,744.48-56.93-6v8l47.84,3.86ZM1130.45,542l-14.53-7.63-32.59,56,15.67,8Zm-24.59,81.69,7.7-11.15-12.13-6.19L1095,617.93l10.58,5.6Zm-9.78-20.08-15.78-8-6.48,11.12,15.86,8.4ZM1119,529.21l14.42,7.59,17.37-31.14-13.84-7.29Zm-2,78.42,11.58-16.75,24-37.23-16.77-8.81-31.41,56.3,12.29,6.28A2.66,2.66,0,0,1,1117,607.63Zm42-104.41,19.22,10.13c.08,0,.14.1.22.15l31.38-48.72-9.09-36.36Zm468,62.69-3-31.46-68.08,12.15Zm6.19,1.68,89.19,24.23,12.34-12.73a3,3,0,0,1,.73-.5l-18.91-34.25a3,3,0,0,1-3.4-.34l-24.6-21.06-58.61,10.45Zm-110.48-21.77-35.63,68.79,143.41-22.88-2.79-19.4-86.12-23.4Zm-337.45-2.17-33.55,42.58-33.12,52.48-16.78,38.72,9.89,3.44,24.52-34.42,34.41-49.89,31.41-46,25-32.69V504.93h-15.49ZM1636.38,503l-5.75,24.14,52-9.27-12.07-10.34Zm184.5-46.58,25.54,2.7V421.51l-23.16-.66Zm-191.21,48.84-67.77,34.14,62.29-11.11Zm244.92-348.22,2.31-57H1864V183l15.23,36.39,20.7,8.28V204.09L1875,158.63A3.06,3.06,0,0,1,1874.59,157.06ZM907.29,1776.59l-25.07-19.44L852.29,1794l-1.2,7.28,21.69,17.16ZM850,1808.07l-7.83,47.52L869,1823.08Zm238.27,45.82,2.46,15.93,36.91-21.13Zm50.69-12.76-8.14-54.84-52,6.6,8.52,55.07Zm55.35-39.65-3.67-22.79-23.64,3,5.25,36.14ZM878.46,1597l-1-46.21-10.8-8.08-76.46,99.12,20.68,16.35ZM1487.74,1493l-2.65-18-41.54,36.92,2.35,14.18Zm-625.92,46.19-10.2-7.63L770,1625.91l15.47,12.23Zm103-983.38-9.7-5.14-40.2,71.62L925.51,628Zm251.94,1319.54-4.36.57,2.07,12.85,12.17-1.88ZM941.92,643.78l-14-7.61-21.36,39.31,13.86,7.36Zm-52,22.88,11.3,6,21.4-39.36-10.71-5.82Zm45.8,927.81-24.9-18.64-26.56,24-12.06,73.18Zm-29.8-22.3-22.41-16.77.81,36.31Zm261.78,256.47-14.26,10.57,15.5-2Zm653.12-215.91-14.15,30.08,27.43-9.73Zm13.28,209.69-7.08,43.35-6.64,28.31h31.19v-15.92l23.22-12.39,8-29.2-30.08-8.85Zm-208-177.11-4.13-18.84-7.77-8.67-13.18,29.26a3.22,3.22,0,0,1-.63.91l-93.87,92.28,7.69,4.58,19.43-5.89,22.38-34.15,16.49-8.83,24.73,7.65-1.77-21.2Zm241.44-220.78a3,3,0,0,1-2.88-2.16l-11-37.37-138.92,74.58,47.94,42.63,30,3.53,1.77,26.5s-5.89,17.08-5.89,18.85,9.42,15.9,9.42,15.9l28.27-3,30-2.35,23.56-6.48,4.12-17.08L1868,1424.47A3,3,0,0,1,1867.58,1424.53ZM772.67,1892.07l9.69,7.83h14.3l-18.42-14.7ZM807,1366.17l25.91,14.14,15.9,18.84-.53,1.22,21.94-29.76-74.36-147-7.71,7.16v21.79l-25.32,5.89L731,1287.26v30.63l30.62,23.55,14.72,17.67v34.15Zm622.74,402.6-55.09,5.71,18.29,26.47Zm-167.68,65.85-40,37.72,23.59,27.56h34.08l20.65-18.05Zm279-387.81,27.57,44,114.11-63-36.93-42.59Zm153.45-5.46-7.74-8.93L1612,1473.68l28.21,9.09Zm-378.26,339.19,3.65,43.09,19.45,24.18,49.05-42.88-20.55-29.74Zm538.11-414.86,3.08,10.53,10-5.37Zm-27.72-94.52,25.58,87.23,23.19,9.12,24.51,4.35v-93.32L1844,1263.09Zm-807,21.91-10.91,17,27.42,12.32ZM962.44,843.2l28-50.28-19.58-9.38-28.49,48.93ZM976,1295.32l27.19,12.22,13.12-20.38-18.57-32.92Zm-6.14,529.76-2-1.5-33.56,43.77a2.87,2.87,0,0,1,.55,1.32l.74,5.82,38.11-8Zm78.21-572-56.77-22.49,8.47,15a3,3,0,0,1,.9,1.6l37.64,66.72Zm-68.83,545.85-10.26-8.1L956.27,1807l10.52,8.16Zm483.29-322.6a3,3,0,0,1-1.33.64l-22.67,4.53,3.88,23.34,41.67-37-1.23-8.41ZM981.44,1180.67,977,1159.32H959.62l8.07,21.35Zm66.27,65.81-1.65-11.89-70.49-31.82,11,19.5Zm-62-522.14-26.87,46.78,9.61,4.61,26.93-46.25Zm-2.32,475.39-2.48-12H968.46l2.36,6.27Zm-57.37-64,.66,40.68L963.23,1191l-20.87-55.22Zm411.19,366.34-44.35,3.23,4.67,55.16,30.62-2.48ZM970.16,1135.73H948.78l7.19,19h18.14Zm354.66,443,2.38-14.68-29.12,2.36,1.19,14ZM921.4,1170.85l-.6-37H907.94l1.11,27Zm458.27,364L1355,1506.66l3,46.08Zm-62.88,93.49,2.23-13.76-15.93,11,1.45,17Zm495.53-389.08-12.59,5,14.78,4.41Zm-378.47,250.91-1.24-7.48-25.73,5.15a3.4,3.4,0,0,1-.45,0s-.09,0-.14,0h-.15l-60-2.9-.19,1.16,7.77,10,30.62,34.91Zm98.82-45.39-14.86-23.69-68.13,43.26a2.76,2.76,0,0,1-.92.38l-12.56,3,1.32,7.9,21.72-4.34,23.85-19.87.06,0a3,3,0,0,1,1.43-.63,1.9,1.9,0,0,1,.34,0l.09,0h37.64Zm-212.12,160.32-19.07,1.47,1,12.12,17.84-12.34ZM905.09,1079.5l2.06,50.22H920l-.66-41.44Zm379.19-971.06v39.39l16.77-33.8Zm459.86,1119.2,46.25,13.78,20.55-8.08-6.4-27.3ZM1334.09,100.1h-19.42l-5.17,10.42,16.73,5.58Zm-10.53,21.44L1306.81,116l-22.53,45.39v16.84l8.83,5.34Zm-72.51,56.7-23.16,41.12,12.95,7.37,17-29.81-6.31-10.46a3,3,0,0,1-.43-1.55Zm315.09,693.88L1531.59,898a3,3,0,0,1-1.8.6,3.11,3.11,0,0,1-.43,0l-10.69-1.52,16.68,37.3,72-46.08-17.23-25.24Zm-247,183.86a3,3,0,0,1-1.17.73L1288,1067l40.17,30.4,26.56-32.4-25.44-19.4Zm.66,61.16,20.63-3-11.24-8.5Zm-157.18,377.62-1.81-19.7-12.43.79,2.05,20ZM1380,919l-4.17,23.63,26.71-9.43-10.51-19Zm-7,31h0l-77.53,27.37,84.51,8.28,35.26-29.55-9.75-17.57Zm-5.09-140.72-3.58,22.59,18.23,13.89,18.17,8.87L1415.47,797Zm33.26,291.11-41.64-31.74L1333,1101l15.79,12,47.78-6.87ZM1391,1113l-35.51,5.1,19.5,14.75ZM1372.1,653.55,1340,659.41l-21.78,75.27,46.09,8.87,70.33-17,17.07-58.35-14.37-9.32Zm148.61,463.24a2.93,2.93,0,0,1,1.87-1.46l24.06-6.24-16.11-16.16-75.36,10.83,41.38,43,10.08-4.42Zm-77.82-121.24,15.43,38.39a2,2,0,0,1,.19.12,3,3,0,0,1,1,2.94l22.82,56.79,28.7-4.13-32.24-91.94Zm47.8,153.78-42.85-44.52-26.08,3.75,27.86,21.24a3,3,0,0,1,1.1.5,3,3,0,0,1,.85,1l29.31,22.34Zm-28.58,13a3,3,0,0,1,1.22-1l11.26-4.95-25.2-19.21-24.55,33.35,20.11,15.22Zm-17.5-28.78-31.18-23.77-13.68,2-20,24.74,40.25,30.45ZM1457,671.44,1441.38,725l16.86-4.07,14.12-40.67ZM1640.8,937.39l-89.31,33.06,2.16,4.83,99.29-10.08-3.28-14.83Zm43.64-21.14-12.61-16.72L1651,911.36l-5.74,21.83,8.31,12.18,39.34-18-8.42-11.15Zm-22.18-47.86-9.17,34.86,16.05-9.1Zm-93.93,72.89a3,3,0,0,1-.49-2.35l4.44-21.08-34.45,22.07,11.2,25,28.56-10.57Zm11.05-28-1.42,6.75,48.38-3.85-15.66-23Zm33-28.26,47.27-30.28,5.25-20.09-69,26.18Zm34.28-71.91-30.74,33.69,58.56-22.21ZM1505.81,734V715.61L1472,723.77Zm-28.14-50.75-12.49,36,39.79-9.6-4.21-13.12Zm37.13,89.24,57.94,11.15,39.52-9.47-14.5-21.34Zm188.41,41.21-6.16-19-42.8,15.06,28.41,11.73ZM1532.72,943.19l-54.43,34.87,4.88,13.91,73.36,4.44Zm115.49-196.51L1619.56,778l-9,13.79,35.37,14.6L1695.19,789l-11.67-36Zm-92,234.37,6.92,15.48,95-7.88-3.88-17.54Zm-299-201.2,26.76,7.83,21.37-11.82,3-19.6-41.3-7.34Zm117.12,136.48a3,3,0,0,1,1.85-2.27l12.86-5.09-9.27-16.71-27.49-2.5,0,0h-.15a2.71,2.71,0,0,1-.7-.21h-.06l-49.33-22L1287.63,887a3,3,0,0,1-1.37,1l-42.15,15.59-10.88,8.91L1255,977.28l26.1-1.2L1369.3,945Zm283-53L1615.75,890l16.92,24.8,13.12-7.43Zm-337.67-65.23a2.93,2.93,0,0,1,1,.5L1337,811.05h0l25.57-6.59,6-37.5-26.24-4.67-50.17,27.76Zm40.72-189-40.56-26.28-26.65,45.57,43.25,24.32ZM1269,743.14l40.36,7.18,1.7-10.91L1272.51,732Zm2.34-77.29,57.62-10.52-38.73-21.78Zm55,525.48-1.56-12.3-17.34-12.92-17.1,2.67,3.17,27.07Zm-25.65-30.24-10.49-7.82-1.47,1.8.91,7.74Zm-97.7-223.76,13,41,.06.26.11.49,32.73-1.5-20.52-61Zm41.86,144.55,7.49,16.81,32,23.56,26.7-3.84,13.41-16.36-43.21-32.68Zm-23.37-78.35,11.17,51,9.75,21.89,35.56-12.23-24.22-72ZM1217.36,985l2.76,12.6,31.65-11.18-1-3Zm120.32-165.9-32,43.39,44.56,19.92,7.59-47.95ZM1682.37,828l-10.65,4a1.51,1.51,0,0,1-.06.37l-6.31,24.21,10.05,37.62,11,14.57,32.78-60.23Zm7.33-2.78L1716.05,840l-10.55-20.73Zm39.75-41.94-26.74,9.41,6.12,18.85,29.65-11.24Zm-23.25,218.07-4.79,3.2,28.15,54.39,13-5.43-6.61-47.41ZM1689,750.51l11.85,36.5L1726.6,778l-27.69-52.2Zm43.77,233.08-19.25,12.89,21.53,3.44ZM1496.64,664l9.13,28.51,23.5,13.47,138.23-19.07-18-45.12Zm-32.38,4.7,13.24,7.59.09,0L1498,688l-7.43-23.2ZM1644,627.82l-151.88,21.93,2.7,8.41L1647.23,636Zm-197.57,29.81,9.53,6.17,32.83-4.77-2.67-8.33Zm91.4,53.2,62.79,36,0,0a3.75,3.75,0,0,1,.51.38s0,0,0,0a4,4,0,0,1,.38.44l0,0,16,23.51,27.37-29.86a3,3,0,0,1,2.74-.93l34.6,6.23-5.35-36.27-7.1-17.82Zm138.13-19.06,6.68,16.77a2.66,2.66,0,0,1,.18.67l4.39,29.73,8.58-21.46h0l12-30.1Zm-332.6-39.07,28.09-5.13a3,3,0,0,1,.79,0l54.49,4.49-61.21-39.66ZM1110.6,531.61l-10.88-5.71-32.36,56.34,10.61,5.42Zm526.71,400.66-7.07-10.35-53.57,4.27L1574,938.88l9.43,13.34Zm18.61,18.61,8.34,37.72,40.56,6.48,26-17.38-34.22-45.38Zm169-46.16-2.46.93,4,2.94Zm-388-403.63-20.36,21.16,31.79,5.24a2.85,2.85,0,0,1,1.16-.7,3,3,0,0,1,3.57,1.48l17.22,2.84Zm292.94,346.63,58.81,32.89a3.53,3.53,0,0,1,.32.21l27.74,20.58,6-2.28-30.9-79.56ZM1412.05,527.59l-33.84,61.61,55.42,33.93,41.49-6.62-26.57-82.9Zm65,95.07-.11-.36-43.5,6.94a3.88,3.88,0,0,1-.48,0,3,3,0,0,1-1.56-.45l-56.13-34.36-6.93,12.61,70.6,45.75,45.25-7.91-7.13-22.24Zm193.65,395.23,26.74-17.9-31.82-5.09Zm-271-157.06L1379.65,851a2.67,2.67,0,0,1-.51-.31l-15.89-12.11-7.2,45.45,25.88,2.35a3,3,0,0,1,2.35,1.53l9.61,17.32,5.83-6.8Zm-84.48-109.45,26,4.62,14.45-8-38.77-7.46Zm195.66-42.9,8.64-1.2-11-6.33ZM1312,772.18l20.88-11.56-18.58-3.31Zm38.61-14.51,21.85,3.89a3,3,0,0,1,2.44,3.42l-6,37.84,48.25-12.44,7.45-29.11-59.73-11.49Zm211.71-25.84-34.28-19.66-16.24,2.24v20.47Zm-200.78,79.1-18.47,4.76,15.8,12Zm-80.42,556.93-98.49-7.76-2.83,45.63h99Zm-38.85-679.79,1.27.77a2.87,2.87,0,0,1,.84.75l27.75,36.22,40.15,7.73,21.11-72.92-66.89,12.21Zm-8,423.6-11.42-8.51,1.49,9.82Zm-7,60.83-1.09-7.16-72.44,10,1.16,8.46Zm-45.83,88.66-16.19-1.89,2.47,18.09,13.73,1Zm-4.47,92.47,4.3-69.31-13.38-.93-4.29,69.18Zm48.31-194.23-3.37-22.14-72,10.34,3,21.75Zm-43-440.7,17.31-10.89-12.17-3.62Zm7.14-20.18,16.92,5,24.42-15.36-31.08-18.64Zm47.11-6.86L1213.77,706l48.28,16.48L1240,693.69Zm1.43,425.58-12.76,1.68,1.76,11.55,12.67-1.82Zm5.78,39.62-3.25-22.27-12.63,1.82,3.37,22.17Zm1.87,12.78-1-6.84-12.48,1.72,1.08,7Zm515.14-247.12,49.25-18.6-24.48-18.16-61.17-34.21-34.06,62.57,44.23,58.65L1759.19,924A3,3,0,0,1,1760.81,922.52ZM1604.65,789.8l5.89-9L1587,786.41Zm-41.78,77.26a3.12,3.12,0,0,1,.74-.4l23-8.72-10.72-15.71-63.27,41.29,3.17,7.08,13.21,1.87ZM1483,885.94l13.65,1.94,5.87-4.92a3.15,3.15,0,0,1,.29-.22l2.89-1.88-5.59-73.62-16.64,4Zm157.76-75.24-33.53-13.84-26.91,41.21,12.07,17.68,11.1-4.21Zm-134.52,77-1.59,1.33,4.11.59-1.23-2.76ZM1483.47,772.6v32.45l16.16-3.88-2-25.84ZM1506,805.82l5.41,71.29,63.1-41.17,26.58-40.71-28.23-5.43Zm-5.58-36.08L1591,748.28l-19.17-11-61.9,3.73-31.22,24.55ZM1460.14,926.3l16.11,45.93,54-34.58-18.6-41.57-13.2-1.88Zm180.59.32,2.93-11.13-7.6,4.3ZM1419.9,952.19l38.63-32.38-47.32,16.71Zm85.65-152.43,53-12.71-54.8-10.54Zm-54.07,190.29,25.19,1.52L1473,981.1ZM1300,1141.28l-6,7.34,13.47,10,5.33-8Zm120.66-55.45-10.92,13.54,5.36,4.08,25.83-3.71Zm34.68-197.9-27.26-13.29L1397,910.88l11.27,20.31,63.4-22.38,18.78-15.74-34.24-4.86A3.08,3.08,0,0,1,1455.31,887.93ZM1382.1,991.87l-35.33,36,72.67,49.9,33.37-41.39-16.55-41.2Zm-48.56,49.42,25,19.08,9-11-25.06-17.21Zm29.79,22.72,41.6,31.72,10.73-13.31-43.14-29.62ZM1421,959.11h0l-32.37,27.14,49.19,3,33.18-13.8-15.77-45Zm34.38,83.61-31,38.42,25.26,17.34,26.58-3.82ZM1477,885.09l.43-68.06-45.32,52.9,25.42,12.39Zm-98.41-138.8,47.64,9.17,6.5-22.22Zm27.15,117.46v27.71l16.75-19.54Zm44.82-76a3,3,0,0,1-1.11.54l-27.32,7-15.88,62,20.28,9.89,51-59.47v-36.3l-5-1Zm-3.22-5.12L1464.65,769l-34.12-6.57-6.72,26.26Zm13.13-56.05-21,5.07-7.31,25,38.77,7.46,31.53-24.79ZM1150.72,237.17l12.61,6.74,22.58-41.5-12.17-6.91ZM845.59,986.85l-8.29-4L824.58,1005l7.71,4.73ZM858.76,1033l-24.37-15L792,1090.86Zm-26.88-52.81-9.86-4.8-15.45,27.15H819Zm-12.3-12.67L847,919.29l-10.63-4.77-27,48Zm-9.67-71.47,23.93,10.75,13.55-24.06-24.71-9.9ZM788.42,999.68l4.36,2.86h6.88l16.94-29.79-10.21-5Zm33.65,262.42,33.49-88.22,17.79-77.61a3.27,3.27,0,0,1,.17-.53l12.32-28.06-7,2.28-14.72,27-20.61,47.22L828.77,1193l-28.43,26.38a3.26,3.26,0,0,1,.48.67Zm-87.66,335.7,8.18,6.46.3-.45a1,1,0,0,1,.15-.2l76.23-96.3L808,1498.86ZM823,1502.59l77.88-98.38-12.56-13.38L811.57,1494Zm27.37-625.13,37.85-67.22-24-12.86L825.6,867.54Zm58.84,469.88L897.57,1340l-20,30.58,10.06,10.71Zm63.75-794L987.49,561,993,551l-14.7-7.51Zm-80.47,783.47-29.43-18.57-6,13.09,17,33.61Zm-16.43-61.4v0l7-15.21-11.18-5-23.69,58.57,5.44,10.74Zm176.62-950,16.11,8.72,40.08-72-16.12-9.09Zm-16.35,67-15.91-8.75-19.51,35.22,16,8.4Zm-149.24,351-13.84-6.63-24.68,45.42,13.26,7.1Zm74.78-254,16.28,7.51L1014,432.54l-16-8.39Zm61.46-111,15.93,8.75,26.6-47.78-16.09-8.72ZM713.46,1626l10.76,6.09,15-22.78-8.44-6.67ZM966.25,530.59l48.27,24.66,148.83-262.34-49.25-27.78ZM945.74,482l10.66,4.91,36.28-65.51-10.57-5.55Zm-123.1,223.9,9.85,4.72,29-52.25-9.8-5.21Zm59.06-36.77-15-7.94-28.82,52,15,7.19Zm39.8-143,10.2,5.41,21.78-39.33-10.64-4.91ZM843.27,779.34l24.56-45.18-12.43-5.95-24.87,44.3Zm11.26-131.49,9.82,5.21,21.9-39.54-9.89-5.37Zm24.73-45,9.9,5.39,39.63-71.56-10.19-5.4ZM925.68,472.7l14.59,6.73L976.79,413l-14.11-7.41ZM1743,1669.8l13.71,16.36,27-19.46-13.5-13.27ZM1007.46,369.69l10.61,5.83,26.42-47.71L1033.7,322Zm71.82-131.09,32.45,18.3,15.29-29h0L1151,182.56l-31.32-17.8Zm-42.69,78.1,10.81,5.86,40.11-72.42-11.11-6.27Zm822.56,1065.4,11.31,38.59a3,3,0,0,1-1.1,3.25l6.47,8.78L1897.62,1534l2.28-.46V1378l-24.83-4.41ZM1153.77,177.24l25.79-48.85v0h0l14.91-28.26H1155l-32.47,59.39ZM1899.9,1815.47v-28.56l-12.79,14.49ZM985,410.54l10.59,5.56,19.57-35.32L1004.57,375ZM834.85,637.39,849.23,645l21.85-39.75-14.25-7.75Zm130.73-237,14.1,7.4,19.62-35.68-13.91-7.64ZM802.43,696.17l14.79,7.08,29.11-53L832,642.66Zm57.3-103.9L874,600l39.31-71.51L899.06,521ZM1117,259.85l11,6.18,14.59-26.43-11.59-6.19ZM902,515.7l14.23,7.54,21.18-38.54L922.77,478Zm-117.05,1166-36.24-28.1-11.62,57.47,8.21,6.5Zm-80.4-32.16,11.16,5.58,5.88-17.64-10.86-6.15ZM839.72,1800,817,1782l-38.1,48.1,22.26,17.42Zm9.51-68.39-10.19-7.9-33.57,41.53,10.52,8.32ZM834.29,1720l-44.56-34.56L750,1721.34l50.72,40.13Zm920.81-206-40.79-54-21,28v0L1650,1546,1624.42,1603a3.1,3.1,0,0,1-.8,1l28.43,33,21.2-8.84,2.35-25.32-18.84-19.43-3-20.61,14.73-.59,22.37,40.63,16.49-1.18,17.08-28.26,34.16-4.13ZM694.93,1677.74l10.44,8.27,8.38-25.14-11.19-5.6ZM710.38,1690l21.38,16.91,11.55-57.09-16.43-9.31Zm473.72,209.52.06.41h26l-.7-4.32Zm-382-43.64L782,1880.54l23.85,19,20.42-24.77Zm835.63-115.72-25.66,36.28v23h60.17l28.31-18.58,6.19-67.24L1692.57,1703Zm-130.53,75.37.59-48.29-10.6-14.13-18.26,3.53-17.66-24.14-86.57-48.29,11.19-15.9,115.49,68.87a2.66,2.66,0,0,1,.42-.63l60.73-59.7-17-20-30.25,25.9a2.81,2.81,0,0,1-2.11,1.81l-29.91,25.61a3,3,0,0,1-2,.72,3.07,3.07,0,0,1-1.49-.39l-55-31.29a3.2,3.2,0,0,1-.84-.71l-27.71-33.84-30.52,26,6.41,98.08,66.42-6.89a3,3,0,0,1,2.29,5.25L1342,1853.5v27.32l22.18,19.08h18.37L1367,1883.22l-12.36-17.07,26.5-32.39-1.77,47.7,17.08,18.25,5,.19h27.07l-3.85-13.73,15.9-4.71,9.43,10.6,20-5.3-1.18-31.21-42.4-50.65,7.07-9.42,50.64,55.35,1.18,35.34,12.37,5.3,25.91-13,22.38-41.22-20-18.84Zm-413.24,75.78.49,8.62H1142l5.49-.85-2.14-14.46ZM831,1878.5l-17.65,21.4H853l1.94-2.45-21.45-17Zm369-1743,19.57-35.43h-18.29l-15,28.37ZM865.58,1312.7l30.2,19.06,16.94-25.85L880,1281.29ZM916,1300.87l13.11-20-40.61-18.24-6,13.08Zm-10.93,101,25-40.07L915,1352.22l-22.82,35.83Zm11.78-383.28,16.77-32.92L887.4,990,865,1030.21l51.61-9.73A3,3,0,0,1,916.86,1018.57ZM911.71,1198l-14.44-5.72-23.17,57.27,11.62,5.21ZM862,1172.91l31.61,12.53,9-22.15-3.6-87.6-7.89-4.88-11.89,27.08Zm-22.75,61,29.42,13.21L891.31,1191l-31.14-12.33Zm89,83.66-10.67-8L900.86,1335l11.58,7.32ZM806.34,1662.3l-19.84-15.68-13.86,18,16.79,13ZM911,1568.44l56.87-28.13-.2-1.29-9.48-73.79-6.41-6.82h0L905,1408.63l-77.23,97.56Zm147.1-970,10.42,5.52,6.44-11-10.59-5.41ZM751,1647.82l16.87,13.08,13.88-18-15.73-12.44ZM729.46,1635l16.56,9.38,15.31-17.69L744,1613Zm18.37-27.81-.51.77,17.94,14.18,81.54-94.27-22.72-17ZM870.7,728.88l27.68-50.94-11.37-6L858.34,723Zm23.74-117.75,15.16,8.25,40.17-71.56-15.67-8.3Zm-24.79,44.75,15,8,22-39.23-15.13-8.22ZM937,534.27l15.69,8.31,22.52-40.43L959,494.65Zm-77,492.47,20.09-36-21.41,2a3,3,0,0,1-1.6-.29l-6.12-3-13.6,23.36ZM1133.72,228.1l11.7,6.24,23.09-41.81-12.32-7ZM930.79,630.89l14,7.63,39.78-72.25-14.51-7.69ZM958,545.39l9.64,5.11,5.3-9.74-9.62-4.92ZM917.52,688.11l-13.83-7.35-27.57,50.72L890,738.12ZM877.06,932.79l-8.77-3.94-28,48.75,8.32,4Zm-37.72-23.52L850,914.05l14-24.66L853,885ZM834.88,975l27.91-48.58-10.28-4.62L825,970.15ZM867,884.12l37.15-65.33-10.64-5.71L856,879.71ZM891.17,805l26.46-47-25.12-12-25.39,46.13Zm-32.76,915,2.4-14.61-4.25-3.36-13.74,17,10.13,7.86Zm683.18-67.71-64.88-76.18-30.27,25.78,66.06,75.3Zm54.22-8.18,13.51-30a3,3,0,0,1,.73-1l-5.87-6.55,0,0L1550,1652.92l16.76,19.68Zm-114.9,60.13,27-23.14-66.06-75.32-41.1,35,27.43,33.5Zm116.95-100.14-67.66-73.53-48.91,41.65,64.86,76.16Zm-266.32,95.62-20.67,17.6,4.85,57.26,50.39-5.22-4.74-72.43Zm74.64-134.63-45.08,35.63,4.09,62.46,72.72-61.92Zm-70.24,317.14v-23.45l-47,41.15h66L1337,1884.48A3,3,0,0,1,1335.94,1882.2ZM1852,1379.11l-4.76-16.21L1791.52,1341l-113.11,25-27.35,16.09,62.07,71.57Zm-1046.43-620,24-43.31-9.84-4.71-23.61,43Zm41,1032.31,9-54.9-1.7-1.31-33.27,42,22.81,18Zm782.23-213.06-61.73-79.3-32.35,27.54,49,53.31,13.46-6.48,22.23,25.81Zm15.74-35.19a3.3,3.3,0,0,1,.34-.57l42.49-56.79-12.19-22.25-32.63,24.89a3,3,0,0,1-1.82.62,2.91,2.91,0,0,1-.92-.15l-35.08-11.3-32.69,18,59.54,76.48Zm64-85.62-10.15-11.7-18.36,14,11.31,20.66ZM1159,180.21l12.42,7.06,25.67-46.48-13.59-7Zm-98.41,1715.41.62,4.28h27.2l-.44-7.84ZM1140,1848.5l-48.33,27.67,1.41,9.16,51.4-6.68Zm75.36,46.16.84,5.24h21.54l-6.57-7.68Zm-341.72-67.85-33.47,40.58-1.56,9.45,20.08,15.91L896.64,1845Zm293.08-4.92-5.73-39.44-24.26,3.08,7.83,52.78Zm-332.21,42.93,10.05-61-.16-.13-38.56,47.5,24.26,19Zm66.81-16.1-37.93,47.76,4.31,3.42h7.91l34.65-44.12Zm376.16-68.21-16.74-20.83-60,44.45,7.78,48.27Zm-71.11,96.14-25.14,3.27,2,13.62,25.26-3.89Zm51.85-46.7-9.09-11.2-38.53,40.2,7.55,8.83Zm-57.9,9.12-24.56,3.24,4.61,31.67,25-3.26Zm-30.51,4-24.06,3.18,4.68,31.59,24-3.12Zm-18.5,40.71,2.13,14.32,23.83-3.67-2-13.76Zm-285-631.14-29.3-13.17-11.34,29.85,18.83,37.23ZM235.89,1845.33a3,3,0,0,1,1,.22l35,14.22,18.91-31-6.13-26.89-22.47-12.86-40.5,47.34,6.14,8.52Zm70.45-42,3.87-42.12-19.77,39.15,4.81,21.12Zm-19.16,73.56-8.27,13.41v9.61h31.86l-1.12-2ZM303,1839.8l2.11-22.92-8,13a3,3,0,0,1-1.73,2.82l-17.9,29.32,9.4,3.82Zm-202.89,4.6v55.5h12.31l-10.29-55.4Zm178.78,24.71-4.56-1.85-9.77,16,.75,16.63h7.6v-10.46a3,3,0,0,1,.45-1.58l9.36-15.17Zm-19.94,11.81,9.75-16-33.61-13.67L189.7,1849l17.55,21.27a3,3,0,0,1,.65,2.44L203,1899.9h56.27l-.78-17.28A3,3,0,0,1,258.94,1880.92Zm-155-43.09a3,3,0,0,1,2.73.89l113.45,5.8-29.47-40.87-30.76,14.2a3.56,3.56,0,0,1-.72.23L106,1827.8a2.2,2.2,0,0,1-.36,0l-5.54.33v10.21l2.44.13A2.92,2.92,0,0,1,103.94,1837.83Zm249.68-70-9.19-30-27,10.16L315,1775.2l19.6,6.67Zm-40.42-39.21a3,3,0,0,1,.18-.79l15.86-42.09-25-28.71-11.2,13.85,7.83,12.66a3,3,0,0,1-.09,3.3l-17.2,24.65,3.47,50.84a3,3,0,0,1-.86,2.32l-19.81,20L286,1795.79l25.68-50.88Zm1.19,52.78-1.52,16.54,15.8-11.67Zm3.81-141.6-10.1,12.49,23.57,27.09L353,1623.72l-6.44-1.25Zm-218.1,93.82V1735l.56-.85Zm217.21,151.12-.14,0-.16-.05-.21-.07-22.38-9.1,19.67,18.41a3.19,3.19,0,0,1,.56.71l3,5.35h36.61l-2.33-7.81Zm39.18-67.21-22-28.11-22.37,16.53-3.22,35.15a3,3,0,0,1-.43,1.3l-15.94,25.83,24.24,9.86Zm352.83-34.21-10.81-8.47-14.11,22.77,17.26,11.25Zm-15.57-12.19-9.33-7.29-16.49,23,11.43,7.45ZM733,1878.24l16-20.17h0l21.38-27-13.5-10.57h0l-42.51-33.26-7.62,25.44a3,3,0,0,1-.18,3,3,3,0,0,1-1,.92l-11.33,37.79ZM676.2,1799.4l-11.76-7.67-18.5,25.86,12.71,10.11Zm-20.74,33.44-12.93-10.28-18.24,27.63,25.55-8.29Zm111.08,62h0l-23.77-19.21-4.82,6.09,22.83,18.18h12l-6.26-5.06ZM1012.15,303.45l41.74-75.72h0l70.34-127.62H1090l-60.4,108.27-43.23,81.09h0ZM108.29,1844.81l10.23,55.09h42.76l3.86-1.5a3,3,0,0,1,2.34.07l3.12,1.43h26.32l4.82-26.9-20.17-24.44Zm150.93-61.54,0,0,0,0,.09-.1L281,1761.34l-3.46-50.54a3,3,0,0,1,.54-1.92L294.74,1685l-5.68-9.19-6,7.36-10.21,22.35a3.11,3.11,0,0,1-.41.65l-76.85,94.14,22.43,31.11Zm-101.5,29,29.35-13.55-8-11.17-58.77-32.73a2.83,2.83,0,0,1-.72-.57l-14.64-15.56-4.79,7.26v76.24l5-.3Zm25.78-28.77,8.49,11.77,75.59-92.6,8.74-19.1-37.44-9.88-59,9.75,12.55,61.75a3,3,0,0,1-1.4,3.17l-33.69,20.22,25.22,14A2.89,2.89,0,0,1,183.5,1783.47Zm-47.08-99-4.53-32.21-22.69-.17,3.44,36.31Zm11.07,78.58-10.23-72.63-23,3.8,28.37,66.11Zm131.13-118.41a3,3,0,0,1-2.07.82H238.74v7.94l41.34,7.85,22.16-11.35,9.32-11.52-16.93-9ZM100.1,1619.76v26.82l2.52-.22Zm141.19-7.2-.29-11.45-74.58,16.18,6,29.37,60.36,5.94v-10.11a3,3,0,0,1,3-3h20.58L241.69,1614A3,3,0,0,1,241.29,1612.56Zm198,286.73a2.93,2.93,0,0,1-1.48.39,3,3,0,0,1-2.15-.91l-13.33-13.68-5.65,14.81h54l-7.64-14ZM104.63,1603.82l1.92,20.31,52.8-11.45-8.09-39.81Zm333.75,289.11,21.83-12.34-9.53-17.49-25.89,15.62-.07.18ZM157,1571l8.21,40.42,75.63-16.4-.57-22.47Zm463.05,274.71,17.75-26.88-10.88-8.66L620.06,1829ZM483.53,1870.8,449,1801.64l-42.49-32.2,71.11,130.46h29.28l-3.49-16.39Zm-88.46-22.35,25.32,26a3.31,3.31,0,0,1,.41-.35l27-16.28-16.92-31.06Zm294.1,9.79a3,3,0,0,1-1.3-3.42l12-40-18.63-12.14L654.37,1846a3,3,0,0,1-1.63,1.28L619,1858.21l27.79,35.61,18.68,6.08h85.64L732,1884.66ZM151.7,1565.38a2.82,2.82,0,0,1,.77-.34h0l.23-.07a3.47,3.47,0,0,1,.64-.06h0l89,1.66,45.2-28.88-49.15,21.38-37.12-2.54-51.87,2-28.48,23.9-20.84,10.29v6.87l51.56-34.21ZM362,1552.52l15.08,27.92a3,3,0,0,1,.3,2l-8.27,40.77,5.49,33a2.91,2.91,0,0,1-.26,1.81l-10.15,20.84,11.89,54.59,23.63,26.08L393,1720.27l-4.58-41.7-5.08-52.38,10.17-37.13-3-24.41-38.15-27.46-35.94-5.41,44.18,19.42A3,3,0,0,1,362,1552.52Zm22.92,199.61-23.78,17.57,41.79,67L428,1821.49l-29.83-54.72Zm-281.72-99.79-3.09.27v37.89l6.6-1.09Zm34.77,0,4.39,31.18,30.37-5-5.27-25.94Zm28.27-5.8-5.68-28-53.43,11.59,1.51,16ZM106.84,1732l16.74,17.81,10.43,5.81-25.89-60.32-8,1.33v28.21l6.37,6.77A2.72,2.72,0,0,1,106.84,1732ZM368,1899.9h20.54l-25.58-5.47ZM186.09,1744.27l-12.17-59.88-30.73,5.08,10.46,74.27Zm93.88-76.9-44.66-8.48-61.67-6.07,5,24.7,59.89-9.89a3.15,3.15,0,0,1,1.26.06l39.62,10.46,13.5-16.7-11,5.65A3,3,0,0,1,280,1667.37Zm27.14-84.86-9.54,41.7,18.52,9.8,28.37-17.27a3,3,0,0,1,2.13-.39l17.11,3.32,7.56-37.34-14.06-26-51.91-22.81-17.28,11,18.83,35.94A3,3,0,0,1,307.11,1582.51Zm37,122.26a3,3,0,0,1-1.32,1l-17,6.3-6.6,17.5-1.07,11.74,49.5-18.64-8.13-37.31Zm19.36-79-4.41-.85-23.54,61.27h0l-6.94,18.43,11.34-4.2,18.58-23.53,10.05-20.62Zm-80.5-78-36.67,23.44.62,24.62a3.17,3.17,0,0,1,.35.87,3,3,0,0,1-.28,2l.33,13,16,27.83h12.1l16-15.25,9.6-42Zm97.92,199.9-9.77-10.79a3,3,0,0,1-.71-1.38l-1.51-6.94-18.8,7.08,8.68,28.36Zm8.94,104-13,7.88-17.62,28,40.47,8.64a1.92,1.92,0,0,1,.32.09l10.41,3.48,7.38-19.35Zm-17.72,4.07a3,3,0,0,1,1-1l24.72-15-41.49-66.51-17,12.52,23.21,29.67a3,3,0,0,1,.15,3.5l-39.85,60.76,30,6.42Zm331.28-163.65-10.47-8.29-21.2,62.41,10.82,8.46Zm-46.64,94.63-4.24,11.43,6.93-9.68Zm23-26.62-10.15-7.94-10.68,28.79,4,2.63ZM1559,1895.59l-8.25,4.31H1587l-.29-1.37Zm-709-1170-15-7.17L810.89,762l14.34,7.69ZM619.08,1731.47l27.55,7.11,22.92-62.84-31-9.21Zm-9.7,32.29,15.8,33.64,10.05-27.56h0l9.33-25.59-27.21-7Zm19.71,40.44,11.37,9,11.1-29.9-12-7.82Zm168.26,47.94-22.21-17.37-19.55,24.68,21.74,17.35Zm-157-191.36,31.3,9.31,9.34-25.62-31.08-15.54Zm133.23,220.68-21.68-17.3-5.36,6.76L768,1888.29Zm38.72-103.23-10.56-8.36-38.65,47.81,11.09,8.68Zm-87.9-45.13-22.67,36.57,9.48,7.42Zm5.41-20.13L708.36,1696l-20.84,62.55,9.41,7.37ZM797,1766.14l-61.64-48.76-19.09,63.68L758.32,1814Zm-132.8-16.82-13.77-3.56-8.74,24,12,7.84Zm76.38-667.17,7.1,11.84,48.59-85.44h-4.37a3,3,0,0,1-1.65-.49l-4.76-3.13-42.66,75.74A3,3,0,0,1,740.56,1082.15Zm21.74-99.63,21.09,13.86L801,965.15,778,954Zm28.93-94.85,13.18,5.91,12.65-23-13.59-5.44Zm12.7,72.24,27-47.86L807,901.33l-26.09,47.39ZM820,865.29l38.95-70.74-13.23-7.09-39.34,72.38ZM808.15,844l32.25-59.34-12.81-6.87L816,798.38Zm-103.82,754-6.92,19,10.78,6.1,95-127.73-12.66-9.47Zm-15.9,43.58,10.66,5.33,6.28-18.52-10-5.69Zm-11,30.31,12,3.57,7.75-22.81-10.78-5.39Zm10.08,9.26-12.14-3.61-22.85,62.64,13.74,3.55Zm94.92-585.63,46.89-80.54-7.69-4.71-49.82,86.76H782A3.06,3.06,0,0,1,782.38,1095.43Zm24.38,395,77.38-104.06L874,1375.59l-28.67,38.89L794.18,1481Zm-41.07-395,49.9-86.9H803.16l-50.27,88.39H765.3A3,3,0,0,1,765.69,1095.45ZM783.92,694l-1.75,26.52,11.93-21.64Zm9.32,65.38-12.4,22.55a3,3,0,0,1-2.63,1.55,2.58,2.58,0,0,1-.29,0l-3.1,31.3,27.86-50.31ZM775.51,946.09l26-47.23L788.35,893l-22.61,41.61a3,3,0,0,1-2.64,1.57,2.54,2.54,0,0,1-.29,0l-.38,3.84a3.17,3.17,0,0,1,1,.28Zm-18.24,33.12,15.33-27.85-11.78-5.74a3,3,0,0,1-1.68-2.7H741.82l-4.44,23.5a3,3,0,0,1,1.09.44Zm42.5-122,10.4-60.35a3.06,3.06,0,0,1,.34-1l11.78-21L808,767.24,776.7,823.71a3,3,0,0,1-2.63,1.55,2.89,2.89,0,0,1-.29,0l-2.07,20.89a3,3,0,0,1,.82.19Zm-14,28,12.12-22.3-26.74-10.7-2.52,25.48a2.84,2.84,0,0,1,.93.24Zm-49.51,87.37-12.92,68.34,31.06-56.42ZM768,883.81l-4.12,41.63,19-35ZM634.55,1659.07l9.69-32.28-38.8-9.78-.05,0-8.31,31h.07Zm-1.73,5.75-37.3-11.09-18,67,35.75,9.23Zm16-43.06h.07c.1,0,.19.08.29.12l.19.07L683,1638.79l7-19.18L689,1619l-69.18-39.18-12.49,31.46,41.47,10.45Zm131.62-620.14-21-13.82-35.26,64a3,3,0,0,1-1.09,1.13l14.69,24.47ZM1148.15,100.1h-10.67l8.29,4.36ZM736.44,1218.76,772,1199l-13.34-32.62-22.75-6.43-32.13,32.13-15.32,26.7V1239h26.69Zm-37.6,376.66a3.27,3.27,0,0,1,.44-.8l88.25-114.81h0l51.59-67.11h-18l-25.91,14.13-4.13,13L752.81,1431l-14.14,8.84,14.73,22.37s-7.66,24.15-9.43,25.33-20.61,0-20.61,0l-11.78,14.72-4.71,16.49H689.21V1547l-36.52,30H627l65.12,36.89ZM988.29,359.16l13.91,7.64,26.22-47.7-13.89-7.53Zm-5.26-2.9,26.22-47.55L983.5,294.76,958,342.53l0,0Zm-25.67,46.55-24.56-12.9h0l-5.63,10.57-29.48,59.32,22.54,10.39Zm22.77-41.29-24.92-13.69-19.6,36.77,24.65,12.95Zm93.92-125.87,68.84-125.92-13.26-7L1060.57,228Zm-56.62,70.66,13.88,7.52,39.86-72.91-13.5-7.61Zm-237.36,446-1.39,21.06,9.26-16.85ZM797,693.57l29.63-53.73L806.32,629l-21.18,58.88a2.49,2.49,0,0,1,.29.11ZM603.45,1765.27a3,3,0,0,1-.15-2.14l8.23-27.41L577,1726.81l6.77,72.79,17.08,35.33,13.19,16.91v-23.4a3,3,0,0,1,.18-1l8-22.06Zm187.39-1014,23.48-42.71-14.79-7.09L784.33,729a3,3,0,0,1-2.63,1.55l-.19,0-1,15.47a3,3,0,0,1,1.22.35Zm38.7-116.66,22-39.92-20-10.84a3.13,3.13,0,0,1-.77-.62l-12,11.06-10.47,29.11a3.42,3.42,0,0,1,.4.17Zm67.11-121.69,20.65-37.44L895.07,465.2l-.07,0-18.44,37.1.05,0Zm-2.9,5.26-19.86-10.52-17.82,35.86L851,564.64,835.37,579l19.09,10.37ZM851.84,1698.27l-40.73-32.19-16.86,15.26,43.82,34ZM997.35,667.07,1008.3,673l41.48-72.23-11.33-6Zm-41.18,34.76,11.13,5.92,21.8-38.33-11.24-6.11Zm171.64-264.18,12,6.39,32.56-56.69-12.5-6.06ZM972.61,710.56l10.82,5.75,21.87-38.08-10.92-5.94Zm39.11,237.93c-.12,0-.24-.06-.36-.11l-43.21-17.3L953.22,960.4l49.58,22.26Zm38.77-374.87L1062,579.5l32.4-56.4L1082.71,517Zm35.19-61.89,11.71,6.16,17.79-31-11.84-6.25Zm-44.26,77.83,11.35,6,6.24-10.86-11.5-5.87ZM962.55,928.84,929,915.42,913.81,942.7l33.93,15.23ZM958,977.3a3.1,3.1,0,0,1,1.74.36l38.74,21.5,2.78-10.66a3.68,3.68,0,0,1-.47-.15L950.5,965.76l-6.56,12.88Zm-49.71-37.07,15.09-27.06-22.68-9.08L885.61,930ZM926,755.38l11.17,5.35L964.33,713l-11.11-5.9Zm-3.24,66.56,27.68-48.2-10.82-5.18-27.2,47.84Zm-24.63,74.64,36-61.75-9-4.84L888.94,892.9Zm208.17-421.13,11.86,6.26,18.64-32.46-12-6.38Zm56.52-99.39,12.53,6.07,54.94-95.66-12.68-6.76Zm481.83-143.69,15.2-22.06-11.39-25.15-32.08,5.26,11.61,25ZM1455,166.24,1398.92,147l-37.74,77.75,15.56,9.42Zm427.92-66.14-2.29,56.37,19.27,35.13V100.1ZM1359.74,286.43l-70.52,100.8L1313.39,421l21.1-21.89,37.86-43,24.09-21.29-9.47-29ZM1356,221.59,1393.2,145l-23.26-8-70.14,50.56Zm293.77-42.73a3,3,0,0,1,3.22,1.73l13,28.79a3,3,0,0,1-.26,2.94l-18.22,26.45a3,3,0,0,1-2.21,1.28l-.27,0a3,3,0,0,1-2.13-.9l-19.58-19.86a3.16,3.16,0,0,1-.59-.85l-12.53-27-19.07,3.13-.16,0-49.59,8.13a3,3,0,0,1-3.43-2.39l-5-25.42-13.07,2.22a2.89,2.89,0,0,1-.5,0,3.1,3.1,0,0,1-1.37-.32l-41.62-21.26-96.91,84.09L1364.88,273a2.21,2.21,0,0,1-.23.36l28.79,17.9,14.39,2.54,42.31-50.78,55-33,42.31,6.77,21.16,34.69,38.08-8.46,37.24,20.31,22.85-8.46,18.61-49.08L1649,152.51l-46.54-22-15.73-30.41h-12.22l39.25,84.66Zm-385.79,61,12.35,7,5.71-9.81-8.44-14Zm-17.93-10.19,12.7,7.22,11.3-19.67-8.71-14.43Zm-43.72,35,13,6.92,22.58-39.7-12.93-7.35Zm114.09-3.7L1307,286.84l-8.6,55.06h-10.75l-29.68,43.45-3.87,23.23,20.21,12,33.11,2.31L1283.1,389a3,3,0,0,1,0-3.47L1354.83,283a2.93,2.93,0,0,1,1.07-.92l-11.08-21Zm-22.07,2.57a3.06,3.06,0,0,1-1.48-.39l-14.34-8.15-22.37,38.42,33.56,17.92,8.93-20.1-3.88-27.75A3,3,0,0,1,1294.36,263.6ZM1292.74,252a3,3,0,0,1-2.57-1.45l-4.58-7.59-4,6.92,12.28,7-.69-4.91A2.9,2.9,0,0,1,1292.74,252ZM981.49,1160.75l4.35,21h52.88l-2.92-21Zm-2.1,57.52-11.53-20.43-41.73-16.62-6.19,13.5ZM994.21,1248l-6.86-12.16-32,50.2,15.11,6.78Zm-17.9-112.22,3.93,18.94H1035l-2.46-17.72Zm-51-43.78.61,37.69h14.13l-14.1-37.3Zm35.94,24.25,12.64,13.47,57.74,1.25-1.43-10.31Zm-25.93-21.14,12.34,32.64h19.47l-29-30.93Zm14.48,188.44L984,1229.94l-1.62-2.87-8.6-3.41L938,1278.27Zm24.62,260.17,4.48,29.36,27.2-12.48-7.44-28.86Zm-.05,39.45-16.26,20.53L980,1620.11ZM961.05,1373l38.83-60.32-26.73-12-.75,1.43-.11.18-34.84,55.81Zm57.93,140.6-17.05,6.68,1.65,6.42v0l2.4,9.33,16.33-7.38Zm-10.3-69.83a3,3,0,0,1,1.37,1.92l13.27,59.76,62.2-24.36-.18-1.25a3.13,3.13,0,0,1,0-.44v-69.84l-44.56-79-.19,0-62.48,94.65Zm28.72-114.1-29.83-13.41-39.93,62L994.22,1395Zm-57.59,297.81-25.39-19-79.53,100.39,23.65,18.69ZM1090,1102.32l8.6-21.81-32.5-36.29-12.28,2,.55,17.4Zm9.39-85.95,26.08-4,10-25.24L1066.55,956a.83.83,0,0,1-.16-.09l-6.77,12.74-9.34,29.41.14,0Zm-13.69,18.56a3.11,3.11,0,0,1,.83-1,3,3,0,0,1,3.81.2l4.56-.75.29,0,22.57-1.45,5.16-13.09-23.39,3.56a3.1,3.1,0,0,1-1.51-.15l-45.49-17,1.1,34.85Zm-34.63-332.25a3.1,3.1,0,0,1-1.44-.36l-1.31-.72-15.67,28.1,18.69-27.05Zm-25.33-13.35-22,37.77,18.09,9.61,21.19-38ZM1027,855.76l-12.35-16-12.57,24.68,24,12.87Zm9.35,265.32,1.39,10.05,12.87.28-1.65-9.53Zm2.23,16.08,2.44,17.59h13.62l-3-17.31Zm9,43.51h14.77l-3.69-21.35h-14.05Zm846.32-13,6-2.15v-50l-20.56,15.24Zm-775.14-40.76-1.55-10.38-29.23,7.21-3,7.64Zm-38.45,11.11h-.08l-22.45-.48,2.9,16.78,60.86-8.74-1.9-12.73-39,5.15Zm-55-241.67.53-12.73a3.07,3.07,0,0,1-1.3-.34L999.36,869.8l-28.47,55.91,42.35,16.95Zm31.42,235.16,21.53.47,3.18-8-26.31-1.68Zm-43.39,80.09,34.53,15.59L1045,1206.7Zm-24.52,466.1-6.66-43.66-78.91,97.18,25.08,19.82Zm99.33-178.87-1.73-11.71-61.79,24.2,3.27,14.75Zm-67.79,159-13.09-91.13-27.4,12.56,14.41,94.42Zm-33.28-470.08,3.11,15,10.9,4.92,40.35-6.28-1.89-13.66ZM1086,1336l-12.59-72.87-19.62-7.77-10.74,67,1.7,3Zm12.06,69.75-10.93-63.25-38.29-9.88,41.25,73.13Zm-70.75,145.21-3.63-16.32-16.13,7.3,4.17,16.17Zm839.29-410.7a3,3,0,0,1-1.79.59h-34.61L1781,1158.61l26.88,39.85,80.36-28.74-13.9-35.25Zm-827,651.57-8.22-57.26-6.68.86-15.78,34.21,3.9,25.59Zm23.47-61.35-25.73,3.32,5.48,38.15,26.07-3.87ZM998.8,1743.1l-2.18-14.34-37.22,46.86,8.55,6.76Zm3.86,25.26-2.61-17.12-27.39,34.86,10.21,8.07Zm-7.28-47.7-2.16-14.16v0L990,1685.69l-57,69.11,21.64,17.1ZM1043,1815.6l-2.56-17.84-26.73,3.39,2.75,18Zm68.86-752.44,30.43,41,20.07-5-3.71-37.15-37.36-22.84Zm20.44-51.8,21-3.19-2-20.11-10,.46Zm-8.77,22.22,34.37,21-4-40.44-24.11,3.67Zm-40-110-14.34,27,69.6,31.47,48-39.29-20.77-19a3.12,3.12,0,0,1-.73-1l-30.22-69.95-17.69,2.23,4.17,44.25a3,3,0,0,1-1.37,2.82l-33.6,21.38A3,3,0,0,1,1083.54,923.61Zm8.52-300.43-40.82,73.18,1.25.68a3,3,0,0,1,1.46,1.82l48.49-70.18Zm-5.31-2.81-16-8.45-42,72.22,17.2,9.35Zm33.55,476.13,1.88,12.65,13.82-3.4-26.7-36-3.76,9.53,14,15.67A3,3,0,0,1,1120.3,1096.5Zm-74.68,91.27,1.77,12.73,14.77-2.3-1.8-10.43Zm19.74-6.37,60.27-8.29-3.21-21.55-60.71,8.72Zm-14,47.75,15.78-2.17-4-22.86-15,2.33Zm65-118.55-1.84-12.32-11.42-12.76-12.39,31.4Zm-21.91-71,13.26,17.87,7.63-19.34-19.6,1.25Zm-21.3,3.47,27.93,31.19,4-10.2-17.33-23.38Zm-69.2,733.53-16.34,21.29,22.27,17.6Zm390.16-301,0,0-39.19-44.59-7.8,48.08,52.28,2.53Zm27.71-58-59,13.21,35,39.76,31.67-7.44Zm9.84,59.17-1.29-7.7-28.16,6.61,5.22,5.94Zm15.26-17.76,68.62-43.57-7.66-55.5-86.8,16.59,14.17,85.22ZM1319,1390.13l-32.83,19.45,39.28,50.33.08.11,14.56,18.65,1,0,8.69-53.63Zm29.58,111.11-5.17.38-9.06,55.86,17.82-1.45Zm297.19-290.77,8.27,22,39.7-17.27-6-16.88Zm79.08,17.69-27.15-8.09-41.55,18.08L1661,1251ZM1296.7,1621.3l-1.21-14.28-51.39,4,1.07,13.67Zm389-446.42,14.08,39.56,34.59,10.3,67.64-24.19-27.11-40.18Zm-35.11,65.66-27,11.77,2.26,11.26,29.47-10.54Zm-142.14,80.11,1.46,10.6,118.62-23.62-2.93-14.58Zm-436.55,467.06-2.12-13.71-26.14,3.88,1.89,13.17Zm438.84-450.5,2.15,15.62,120.1-23-3.28-16.35Zm-335.84,292-1.18-12.81-13.9,1.07h0l-5.35.42,9.67,12Zm.55,6-6.73.44,7.64,9.51Zm11.72-47.55-1.08-12.14-10,.81,1.1,12Zm-44,30.66,1.86,12.85,11.75-.76-14.47-18,.85,5.88Zm7.7,94.76-11-75.56-24.9,1.63,11.43,77.08Zm-24.1,46.38-5.42-36.52L1069,1729.7l5.8,37.48Zm160.08-253.73-100.3,7.31,5,56,100-8.11ZM1295,1601l-1.2-14.25-51.3,3.32,1.16,14.89Zm-57.33,4.42-1.16-15-42.75,2.77,1.37,15.49Zm55.62-24.66-1.18-13.87-51.09,4.14,1,13Zm-54.1,44.25-1.05-13.6-45.46,3.51h0l-12.87,1,1.19,12.88Zm-47.05-50,1.09,12.24,42.81-2.77-1-12.94Zm-3,34.18-1.38-15.56-10,.64,1.44,15.68ZM976.33,1830.13l3.3,35.13,33.07-6.93Zm106,24.55-27.07,3.58,4.23,29.45,25.67-14.7ZM949.61,1604.84l-9.05-6.77-70.31,87-2.93,17.78,2.86,2.27Zm-36-411.46,6.43-14.05-13.23-10.64-7.66,19Zm272.5,557.29v-.05l0-.2-3.25-35.4-25.07,3.23,5.22,35.85ZM937.65,1890.48l1.2,9.42h38l-.49-5.13Zm90.25,9.39v0h27.24l-.5-3.51Zm-45,0h38.89l0-.1-39.33-4.35Zm216.5-66.77-4-25-22.16,16.42,1.72,11.79Zm105.23-118.41-1-12.41-25.38,2.38v9.9a3,3,0,0,1-.65,1.86l-21.74,27.46,5.9,7.35Zm-115,58-2.6-16.16-23.23,3.44,2.28,15.71Zm102.14,25.52-10.5-13-28,29.16,9.28,11.42Zm21.06,26.19L1295.57,1803l-29.14,27.51,16.92,20.84Zm-397.86,35-31.72,40.39h18.5l24.27-31.65ZM1257,1755l-6.31-7.85-57.69,8.56,6.73,41.74Zm52.75,20.17-4.51-53.09L1265.47,1756l17.67,22ZM963.81,1462l.08.58L995.28,1496a2.92,2.92,0,0,1,.72,1.31l4.42,17.1,17.24-6.75-13.2-59.43-29.71-18.06-17,25.82,3.19,3.39A3,3,0,0,1,963.81,1462Zm-54.87-58.26-.14.17,19.2,20.45L957.8,1378l-23.53-14.85-25.13,40.26A2.83,2.83,0,0,1,908.94,1403.7Zm80-6-26.1-16.47-30.64,47.61,21.25,22.63ZM947.81,1808l-8.75-6.78-34,42.78,8.91,7Zm-16.37-495.55,15.13-23.76-11.9-5.35-13.84,21.14Zm1-36.69,35.62-54.36-51.38-20.35L891,1257.15Zm-.09,79.09,34.77-55.7.52-1-15.55-7-34.59,54.29Zm-71.3,385.89-6.81,41.3,23.21-28.58Zm136.09-214.93-6.78-26.29-25.19-26.82,8.34,64.8Zm-62.84,271.73L912,1780.28l-34.55,41.89,22.89,18.11Zm-71.72-103-2.27,2.8,1.6,1.27Zm109.3-117.83a3,3,0,0,1,1.1-.86l.26-.12-4.45-29.16-52.43,25.92,37,27.66Zm-94.77,29.65L815.63,1662l40,31.61,9-11.09Zm283,170.16-2.26-15.58-24.24,3.6,2.23,15.07Zm16.49-1586.26,12.14,6.9,25.75-47.35-12.1-6.24ZM1133.15,269l12.66,7.14,14.65-26.94-12.64-6.75ZM1835,1260.62l-12.35-3.41.65,2.75,1.57,5.37Zm-13.91-10.08,22.31,6.17,56.46-26.26v-25.66L1818,1237Zm78.28,21.64.49-.17v-34.94l-47.52,22.11ZM1165.76,252,1151,279.08l15.27,8.61,15.41-27.16Zm51.64-107.5,24.16-44.41h-15.14l-21.09,38.19Zm-78.2,220.1,54.89-97.47-7.07-3.78-17,29.88h0L1131.66,361ZM1019.88,558l8.08,4.14,32.13-57.05-7.85-4.13Zm-8.8,15.51,8.07,4.28,5.86-10.42-8.1-4.14Zm44.12-77.77,7.84,4.11,17.55-31.15-7.74-4.08Zm42.15-74.3,7.58,4,31.32-55.61-7.56-3.67Zm-21.53,38,7.71,4.06L1102,430.69l-7.6-4Zm364.7,1070.89-2.28-13.71-37.43,33.26,6.13,7Zm-81,137.74-4.1-62.8-33.68,26.61L1305.25,1651l3.79,44.77,20-1.88Zm42.74-107.47-7.88-9h0l-10.7-12.2-25.19,20.77,2.18,33.28Zm-67.42,291.23-18.17-22.61L1287.15,1856l17.78,21.89Zm138-280.26-30.09-35.33-31.83,25.15,31.58,36Zm-162.57,209.65-22.62,2.34,25.51,31.74Zm-.7-79.41.69,8.18,10.89-9.26ZM1737.89,1292l-35.22,7,29.72,11.87,33.88-6.47Zm-56.69-12-10.3,2.42a3,3,0,0,1-1.08.72,3,3,0,0,1-1.06.19,2.92,2.92,0,0,1-1-.18l-3,.72,27.69,11.07,45.2-9a3,3,0,0,1,1.79.19l97.87,42.81-16.5-56.26Zm37.15,71,63.26-14-49.81-19.91-19,3.64Zm-154.7,143.16-27.79-44.31-10.87,6.39a3,3,0,0,1-1.52.42h-35l5.45,37.13a3,3,0,0,1-1.11,2.8l-45.38,35.86,29.94,35.16ZM1776,1308.65l-33.26,6.36,50.14,20h0l52.24,20.55-5.62-19.17Zm-99.35,51.59,35.83-7.93-5.61-30.44-66.76,12.76,8.43,42,27.24-16A3,3,0,0,1,1676.65,1360.24Zm-41-47.9,3.29,16.4,69.79-13.34h0l12.71-2.43-29.57-11.82Zm-548.48,573.77-1.05-6.74-15.52,8.89Zm104.89-136.33,54.28-8-25.42-31.63-32.13,4.15,3.26,35.52Zm24.45-45.16-32.29-40.17,4,43.82Zm55.68,8.92v-8.29l-23.58,2.21h0l-20.54,1.92,23.9,29.73Zm-89.91-4.5L1177.4,1656l-16-19.85-15.48,1,10.93,75.18Zm62.87-7.29-5.5-70.71-58.15,3.78,1.72,18.81,40.32,50.14ZM1157,1755l-5.22-36-24.44,3.15,5.41,36.41Zm115.16-55.76v-17.79a3,3,0,0,1,.72-2l26.15-30.48-1.84-21.71-51.58,3.36,5.49,70.54Zm51.65-114.38-24.06,1.56,1.2,14.18,20.57-1.59Zm319.23-205-4.28-21.31L1523,1418.1l14.82,23.62Zm-129.3-21,7.39,53.52,116.4-59.91-3.34-16.64Zm-76.68,150.77L1435,1497l-46.72,38.53,8.58,9.78Zm-84.34,55.24-22.56,18.41-4.11,25.4v0l-2.25,13.87,31.09-24.57Zm-222.82,215.54-2.21-14.94-52,7.72,2.14,13.83Zm169.84-122.95-21.57,25.15v16.12l24.87-2.33ZM992.8,563.81l13,6.87,5.79-10.2-13.21-6.75ZM964.24,1787.1l-8.57-6.78-12.87,16.21,8.72,6.76Zm-1.1,32.8-10.58-8.21-33.85,43.1,11,8.7Zm-53.79,80h23.44l-3.33-26.22ZM951,1776.6l-21.72-17.17-13.36,16.21,22.18,17.2Zm-26.43-20.89-25-19.8L886,1752.49,911.12,1772Zm-29.76-23.53-23.59-18.64-7.09,9-1.9,11.52,19.08,14.8Zm122.42,131.34-37,7.76,1.7,18.06,39.89,4.42Zm26.71-42-26.49,3.6,4.79,31.43,26.23-3.47Zm5.52-3.78h0l5,34.54,27-3.57-8.52-55.1-26.43,3.36,3,20.76Zm-.14,41.29-26.17,3.46,4.78,31.3,25.9-3.36Zm-75,13.47-37.91,8,.5,3.88,38.93,4.31Zm1.24-50.62,40.05,31-4.39-28.75-27.25-21.54-12.39,16.15,1,.78A3,3,0,0,1,975.52,1821.9Zm656-530.23,3,14.78,47.18-9.39-27.07-10.82ZM1251.05,161.86V100.1h-2.66l-25.65,47.16ZM925.72,685.66,950.86,699l21.73-38.56-25.39-13.8Zm-5.14,67.12,27.34-48.53-25.09-13.33-27.41,49.8Zm112.74-187.93,11.81,6,32.26-56.73-12-6.29ZM907.13,813.56,934.2,766l-11.14-5.34-26.6,47.23Zm117.33-233,11.65,6.17,6.05-10.64-11.79-6Zm-43.65,77.5,11.26,6.12L1033.14,592l-11.63-6.15ZM950.1,641.39l25.43,13.82L1016.2,583l-26.3-13.92ZM883.31,890.64l36.46-63.49-10.31-5.53-36.82,64.75Zm85.31,131.83,26.35-18.4-37.31-20.7L940.71,985l-17.89,35.12ZM859,986.69l24.69-2.34,21.68-38.85-22.8-10.24-28.53,49Zm86-23.4L910.87,948,891,983.66l45.89-4.35Zm682,306.23,3.26,16.26,34.27-8.07-7.15-19.06Zm-732-367.69-9.17-3.67L871.3,923.62l8.8,4Zm-39.6,14.69,10.3,4.62,14.5-25.23-10.65-4.27ZM1899.9,1182.89v-11l-3.79,1.36ZM1295.68,248.43l14.83-2.83h34.7l15,23.21,13.07-29.76-93.52-56.61a3,3,0,0,1-1.45-2.57V100.1h-21.22v84l38.25,63.36A3.1,3.1,0,0,1,1295.68,248.43ZM1308,100.1h-23.68v2l19.47,6.49Zm582.49,1075.21L1810.23,1204l6.35,27.12,83-32.66Zm-74.36,80-25.43-7.58-60,23.59,88.36-4.63-1.54-5.24Zm-136,18.71a3.08,3.08,0,0,1,.53-.08l31.17-1.63,69.54-27.36-46.75-13.93-71.49,25.57,7.39,19.69ZM1110.23,428.28l12.28,6.54,31.93-56.15-12.78-6.2Zm34.39-61,12.8,6.2,54.9-96.55L1199.39,270Zm-76.26,135.4,12,6.31L1098,477.87l-12.13-6.39Zm20.49-36.38,12.15,6.4,18.54-32.6-12.26-6.53Zm102.28-260.87-22.5,41.36L1197,261.91l22.68-40.28Zm28.74-52.84L1194,200.1l28.67,16.3L1249.91,168ZM893.41,1065.21l10,6.2,0,0,37.13,23a2.67,2.67,0,0,1,.61.5l14.07,15,94.25,6a3,3,0,0,1,1.36-.63,3,3,0,0,1,2.68.89l30.2,1.93,3.78-9.57-38.36-41.66a3,3,0,0,1-.79-1.94l-.58-18.47a3,3,0,0,1-1.4-2.07,3,3,0,0,1,1.24-2.93l-1-31.92-2.92,9.2-10,28.85-10,25.91v23.45h-19.44l-16.48-31.1L946,1057.59l-41.81,4.13Z"/><g class="cls-4"><circle class="cls-5" cx="1447.45" cy="938.55" r="64.28"/><circle class="cls-5" cx="1447.45" cy="938.55" r="51.34"/></g><g class="cls-4"><circle class="cls-5" cx="1645.73" cy="1382.54" r="64.28"/><circle class="cls-5" cx="1645.73" cy="1382.54" r="51.34"/></g><g class="cls-4"><circle class="cls-5" cx="957.69" cy="852.2" r="64.28"/><circle class="cls-5" cx="957.69" cy="852.2" r="51.34"/></g><g class="cls-4"><circle class="cls-5" cx="1058.05" cy="508.29" r="64.28" transform="translate(-49.52 897.03) rotate(-45)"/><circle class="cls-5" cx="1058.05" cy="508.29" r="51.34" transform="translate(-113.97 443.59) rotate(-22.5)"/></g><g class="cls-4"><circle class="cls-5" cx="1010.82" cy="1724.53" r="64.28"/><circle class="cls-5" cx="1010.82" cy="1724.53" r="51.34"/></g><path class="cls-6" d="M999.32,1725l-38.18-257.91a11.63,11.63,0,0,0-3-6.27l-78.3-83.55a11.67,11.67,0,0,1-1.24-14.38l88.68-135.27a11.69,11.69,0,0,1,14.17-4.42l69.72,28.4,6.07,2.32a11.67,11.67,0,0,0,15.66-13l-8.27-44.26a11.69,11.69,0,0,1,9.91-13.72l206.27-28a11.67,11.67,0,0,0,7.45-4.16l32.88-40a11.67,11.67,0,0,0-1.95-16.71l-34-25.84a11.7,11.7,0,0,1-4-5.52L1235,927.82a11.68,11.68,0,0,0-18.42-5.27l-75.11,61.21a11.73,11.73,0,0,0-3.47,4.73l-8.22,20.63a11.68,11.68,0,0,1-9.16,7.23l-19.11,2.77a11.64,11.64,0,0,1-5.73-.6L1051.24,1002l-48.55-16.54c-.32-.11-.64-.23-1-.37l-80.6-35.56a11.68,11.68,0,0,1-5.51-16.32l41.73-75.75a11.68,11.68,0,0,0-4.64-15.89L902.79,814.4a11.67,11.67,0,0,1-4.59-16L1058.12,515a11.67,11.67,0,0,1,15.84-4.46l253.22,140.69a11.67,11.67,0,0,0,15.81-4.42l15.27-26.78a11.67,11.67,0,0,1,16.39-4.07l63.28,40.15,9.7,6.33a11.68,11.68,0,0,1,4.89,12.84L1403,857.47a11.85,11.85,0,0,0-.4,3.36l.85,33.89a11.7,11.7,0,0,1-3,8.13l-1.29,1.42a11.66,11.66,0,0,0-1.45,13.71l15.29,26.33a11.68,11.68,0,0,0,17.62,3.07l12.8-10.78a11.68,11.68,0,0,1,18.52,5l50.49,141.6a11.69,11.69,0,0,0,12.42,7.67l2.08-.26a11.66,11.66,0,0,1,9.84,3.5l15.68,16.31a12.07,12.07,0,0,1,1.12,1.36l38.57,54.66a11.86,11.86,0,0,0,3,2.91l26.4,18a11.68,11.68,0,0,1-1.18,20h0a11.67,11.67,0,0,0-6,12.68l31.28,153.45a11.67,11.67,0,0,1-5.58,12.43l-114.24,66.25a11.69,11.69,0,0,1-5.68,1.57l-31.53.49a11.68,11.68,0,0,0-7.16,2.6l-121.66,98.31a11.66,11.66,0,0,0-4.31,9.9l8.3,118.16a11.66,11.66,0,0,1-10.9,12.46l-46.51,3-121,13.65-172.9,22.53A11.67,11.67,0,0,1,999.32,1725Z"/><path class="cls-7" d="M999.32,1725l-38.18-257.91a11.63,11.63,0,0,0-3-6.27l-78.3-83.55a11.67,11.67,0,0,1-1.24-14.38l88.68-135.27a11.69,11.69,0,0,1,14.17-4.42l69.72,28.4,6.07,2.32a11.67,11.67,0,0,0,15.66-13l-8.27-44.26a11.69,11.69,0,0,1,9.91-13.72l206.27-28a11.67,11.67,0,0,0,7.45-4.16l32.88-40a11.67,11.67,0,0,0-1.95-16.71l-34-25.84a11.7,11.7,0,0,1-4-5.52L1235,927.82a11.68,11.68,0,0,0-18.42-5.27l-75.11,61.21a11.73,11.73,0,0,0-3.47,4.73l-8.22,20.63a11.68,11.68,0,0,1-9.16,7.23l-19.11,2.77a11.64,11.64,0,0,1-5.73-.6L1051.24,1002l-48.55-16.54c-.32-.11-.64-.23-1-.37l-80.6-35.56a11.68,11.68,0,0,1-5.51-16.32l41.73-75.75a11.68,11.68,0,0,0-4.64-15.89L902.79,814.4a11.67,11.67,0,0,1-4.59-16L1058.12,515a11.67,11.67,0,0,1,15.84-4.46l253.22,140.69a11.67,11.67,0,0,0,15.81-4.42l15.27-26.78a11.67,11.67,0,0,1,16.39-4.07l63.28,40.15,9.7,6.33a11.68,11.68,0,0,1,4.89,12.84L1403,857.47a11.85,11.85,0,0,0-.4,3.36l.85,33.89a11.7,11.7,0,0,1-3,8.13l-1.29,1.42a11.66,11.66,0,0,0-1.45,13.71l15.29,26.33a11.68,11.68,0,0,0,17.62,3.07l12.8-10.78a11.68,11.68,0,0,1,18.52,5l50.49,141.6a11.69,11.69,0,0,0,12.42,7.67l2.08-.26a11.66,11.66,0,0,1,9.84,3.5l15.68,16.31a12.07,12.07,0,0,1,1.12,1.36l38.57,54.66a11.86,11.86,0,0,0,3,2.91l26.4,18a11.68,11.68,0,0,1-1.18,20,11.67,11.67,0,0,0-6,12.68l31.28,153.45a11.67,11.67,0,0,1-5.58,12.43l-114.24,66.25a11.69,11.69,0,0,1-5.68,1.57l-31.53.49a11.68,11.68,0,0,0-7.16,2.6l-121.66,98.31a11.66,11.66,0,0,0-4.31,9.9l8.3,118.16a11.66,11.66,0,0,1-10.9,12.46l-46.51,3-121,13.65-172.9,22.53A11.67,11.67,0,0,1,999.32,1725Z"/><polygon class="cls-8" points="1429.26 760.04 1449.51 736.23 1442.78 736.88 1452.04 707.6 1440.75 704.04 1431.5 733.31 1426.37 728.92 1429.26 760.04"/><circle class="cls-9" cx="1454.75" cy="679.16" r="29.77" transform="translate(-54.15 1227.58) rotate(-45)"/><circle class="cls-8" cx="1454.75" cy="679.16" r="23.13" transform="translate(-149.32 746.38) rotate(-27.43)"/><circle class="cls-9" cx="1454.75" cy="679.16" r="18.29" transform="translate(400.82 1890.28) rotate(-74)"/><circle class="cls-8" cx="1454.75" cy="679.16" r="10.68"/></g></svg>