<svg xmlns="http://www.w3.org/2000/svg" viewBox="0 0 200 200"><defs><style>.cls-1{fill:#9ca6ce;}.cls-2,.cls-5{fill:#3f51ba;}.cls-10,.cls-12,.cls-2,.cls-3,.cls-4,.cls-5,.cls-8,.cls-9{stroke:#050324;}.cls-10,.cls-11,.cls-12,.cls-13,.cls-14,.cls-2,.cls-3,.cls-4,.cls-5,.cls-8,.cls-9{stroke-miterlimit:10;}.cls-10,.cls-11,.cls-12,.cls-13,.cls-14,.cls-2,.cls-8{stroke-width:0.5px;}.cls-3{font-size:81.36px;font-family:MyriadPro-Regular, Myriad Pro;}.cls-10,.cls-14,.cls-3,.cls-6,.cls-9{fill:#27255c;}.cls-3,.cls-4,.cls-5,.cls-9{stroke-width:0.25px;}.cls-4,.cls-7{fill:#f6f8fd;}.cls-13,.cls-8{fill:#0b20f5;}.cls-11{fill:none;}.cls-11,.cls-13,.cls-14{stroke:#27255c;}.cls-12{fill:#96c6f9;}.cls-15{fill:#739ddc;}</style></defs><g id="Layer_1" data-name="Layer 1"><rect class="cls-1" x="10" y="11" width="180" height="178"/></g><g id="Layer_2" data-name="Layer 2"><rect class="cls-2" x="74" y="61.25" width="52" height="73.5" rx="3.88"/><text class="cls-3" transform="translate(83.48 123.88)">?</text><rect class="cls-2" x="23" y="137" width="70.2" height="42.47" rx="5.58"/><path class="cls-4" d="M29.07,179.47s2.6-25.14,20.8-20.8c0,0,13.87,1.73,18.2,0,0,0,19.07-3.47,19.93,20.8Z"/><path class="cls-5" d="M49.87,158.67l-10.4,20.8H77.6l-9.53-20.8S56.8,159.53,49.87,158.67Z"/><path class="cls-4" d="M55.5,150.87V163s2.6,4.34,6.07,0V150.87Z"/><circle class="cls-4" cx="58.54" cy="149.13" r="5.2"/><path class="cls-6" d="M58.54,148.27h-5.2a5.2,5.2,0,0,1,10.4,0Z"/><path class="cls-6" d="M31.1,143.06a10.23,10.23,0,0,1,4.33-3.78,3.09,3.09,0,0,1,1.35-.36c1.37,0,2.24,1.42,3.34,2.23a1.15,1.15,0,0,0,.87.3,1.22,1.22,0,0,0,.57-.33c.64-.56,1.17-1.23,1.83-1.77a3,3,0,0,1,2.36-.76,3.34,3.34,0,0,1,2.09,2,3.1,3.1,0,0,0,.59.91c.72.61,1.85.17,2.53-.47s1.23-1.51,2.11-1.85c1.4-.55,3,.5,3.78,1.77s1.24,2.77,2.19,3.94A10.27,10.27,0,0,1,60.89,140c1.16-1.33,3.39-1.91,4.71-.73a19.11,19.11,0,0,1,1.31,1.66,1.61,1.61,0,0,0,1.88.56,2.88,2.88,0,0,0,.78-.91,3.72,3.72,0,0,1,6.07,0,1.82,1.82,0,0,0,.62.67c.64.31,1.28-.38,1.79-.88a4.36,4.36,0,0,1,6.09.27c.43.51.8,1.16,1.44,1.36s1.44.1,1.56.69l-4,.42a4.15,4.15,0,0,0-2.63.91,8.05,8.05,0,0,0-.93,1.44,4,4,0,0,1-6.06.33,3.92,3.92,0,0,0-.69-.77,1.45,1.45,0,0,0-2,.33c-.26.36-.32.83-.56,1.22-.55.89-1.79,1-2.84,1a2.14,2.14,0,0,1-1.15-.19,3.38,3.38,0,0,1-.91-1.16,3.56,3.56,0,0,0-4.59-1.08,4.23,4.23,0,0,1-1,.55,2.56,2.56,0,0,1-1.22-.15l-3.42-1a2.55,2.55,0,0,0-2.13,0c-.68.47-.75,1.47-1.27,2.11-.66.84-1.89.9-3,.89a2.29,2.29,0,0,1-1-.17c-.81-.43-.84-1.65-1.58-2.18a1.83,1.83,0,0,0-1.91.07c-.59.33-1.06.83-1.61,1.21a4.9,4.9,0,0,1-6.69-1.46,4.8,4.8,0,0,0-.87-1.29c-1.15-1-3,0-4.43-.51"/><circle class="cls-7" cx="53.77" cy="160.83" r="1.3"/><circle class="cls-7" cx="49.44" cy="163.44" r="1.3"/><circle class="cls-7" cx="55.5" cy="167.77" r="1.3"/><circle class="cls-7" cx="53.77" cy="173.84" r="1.3"/><circle class="cls-7" cx="46.83" cy="176.44" r="1.3"/><circle class="cls-7" cx="48.57" cy="169.5" r="1.3"/><circle class="cls-7" cx="59.84" cy="176.44" r="1.3"/><circle class="cls-7" cx="60.7" cy="172.1" r="1.3"/><circle class="cls-7" cx="62.44" cy="165.17" r="1.3"/><circle class="cls-7" cx="65.9" cy="160.83" r="1.3"/><circle class="cls-7" cx="67.64" cy="168.64" r="1.3"/><circle class="cls-7" cx="66.77" cy="174.7" r="1.3"/><circle class="cls-7" cx="73.7" cy="176.44" r="1.3"/><rect class="cls-8" x="129" y="76" width="54" height="58.47" rx="4.34"/><path class="cls-9" d="M141.12,134.47S134.51,100.56,161,106.4c0,0,17.63,2.34,22,0v25.73h0a2.28,2.28,0,0,1-2.2,2.34Z"/><path class="cls-7" d="M170.88,107h9.92c0,6.09-4.48,11.11-9.92,11.11S161,113.08,161,107c0-.21,0-.42,0-.62Z"/><polyline class="cls-4" points="174.18 108.74 174.18 93.54 166.47 93.54 166.47 112.25"/><ellipse class="cls-4" cx="168.67" cy="93.54" rx="6.61" ry="7.02"/><path class="cls-5" d="M168.67,92.37l-6-2.45a6.72,6.72,0,0,1,6-3.4c3.63,0,6.62,2.64,6.62,5.85a5.31,5.31,0,0,1-.46,2.14Z"/><polyline class="cls-5" points="163.02 90.03 156.55 87.69 157.65 87.69 163.04 89.34"/><rect class="cls-10" x="99" y="18" width="26.98" height="40.47" rx="4.36"/><ellipse class="cls-7" cx="112.49" cy="35.28" rx="9.27" ry="9.7"/><rect class="cls-7" x="108.27" y="37.39" width="8.43" height="14.33"/><rect class="cls-6" x="107.43" y="46.67" width="10.12" height="0.84" rx="0.42"/><polyline class="cls-11" points="111.22 47.51 111.22 39.92 108.7 36.55 116.28 36.55 113.75 39.92 113.75 47.51"/><rect class="cls-12" x="130" y="18.5" width="52" height="53.97" rx="4.8"/><polygon class="cls-13" points="138.93 59.84 138.93 38.89 165.31 38.89 165.31 54.41 142.81 54.41 138.93 59.84"/><polygon class="cls-10" points="168.42 46.65 173.07 51.31 173.07 31.13 145.91 31.13 145.91 46.65 168.42 46.65"/><circle class="cls-7" cx="153.28" cy="39.28" r="1.94"/><circle class="cls-7" cx="166.48" cy="39.28" r="1.94"/><circle class="cls-7" cx="159.88" cy="39.28" r="1.94"/><rect class="cls-8" x="23" y="18" width="72.89" height="38.47" rx="5.4"/><path class="cls-14" d="M27.6,56.08S21.23,34.54,45.29,36.85c0,0,25.48.77,29.73,0,0,0,21.23-3.85,16.27,19.23Z"/><path class="cls-7" d="M58.74,36.85H73.6c0,4.64-6.71,8.46-14.86,8.46s-14.86-3.82-14.86-8.46V36.6Z"/><polyline class="cls-7" points="57.68 38 57.68 28.77 61.22 28.77 61.22 38"/><path class="cls-6" d="M49.89,26.12A3.51,3.51,0,0,1,51,24.06a2.92,2.92,0,0,1,1.35-.41A80.93,80.93,0,0,1,65.44,23a4.91,4.91,0,0,1,2.79.7,5.39,5.39,0,0,1,1.47,2.1,1.22,1.22,0,0,0,.5.63,1.34,1.34,0,0,0,.83-.08,2.54,2.54,0,0,1,2.83,1.69,1.58,1.58,0,0,1,.09,1c-.22.81-1.17,1-1.94,1q-12.62.59-25.26.67a1.65,1.65,0,0,1-.85-.15,1.75,1.75,0,0,1-.61-.68,3.72,3.72,0,0,1-.58-1.61,1.69,1.69,0,0,1,.61-1.52,2,2,0,0,1,1-.28A17,17,0,0,1,49,26.38"/><path class="cls-6" d="M51.33,26.52c.1-.34.18-.94.46-1.19s1.1-.25,1.51-.3q1.94-.23,3.87-.36c2.59-.17,5.19-.22,7.78-.14,1,0,2,0,2.73.76s.74,1.73,1.55,2.32a2.17,2.17,0,0,0,1.38.39c.43,0,.79-.26,1.2-.1a1.16,1.16,0,0,1,.68.84c-.1-.42.21-.12-.33-.17a29.07,29.07,0,0,0-3.61.16l-4,.15c-2.64.09-5.28.17-7.92.22s-5.28.1-7.93.13a7.31,7.31,0,0,1-2,0c-.33,0-.38,0-.16-.09a2.76,2.76,0,0,1-.37-.82c.1-.53.37-.38,1-.42s1.23-.05,1.84,0a1.5,1.5,0,0,0,0-3c-2.24,0-5.26-.1-5.77,2.68a4.69,4.69,0,0,0,.91,3.38A3.09,3.09,0,0,0,47,32.24c5.94,0,11.89-.16,17.83-.37L69,31.71a18.94,18.94,0,0,0,4.26-.31c2.35-.65,2.7-3.22,1.31-5a4.06,4.06,0,0,0-2.4-1.5c-.13,0-1.48-.21-1.58,0,.11-.26.6,1,.37.13a5.05,5.05,0,0,0-.53-1c-1.39-2.25-3.55-2.51-6-2.57a83,83,0,0,0-9.72.36c-1.38.14-3.14.1-4.37.81a4.71,4.71,0,0,0-1.94,3,1.5,1.5,0,0,0,2.89.8Z"/><ellipse class="cls-7" cx="59.09" cy="28" rx="4.6" ry="5"/><ellipse class="cls-6" cx="56.26" cy="25.31" rx="3.18" ry="2.69"/><ellipse class="cls-6" cx="62.28" cy="25.31" rx="3.18" ry="2.69"/><ellipse class="cls-6" cx="58.39" cy="24.16" rx="2.83" ry="1.54"/><rect class="cls-7" x="34.68" y="39.16" width="3.54" height="0.77"/><polygon class="cls-7" points="76.42 47.8 79.13 50.27 79.59 49.69 76.88 47.21 76.42 47.8"/><polygon class="cls-7" points="78.39 41.65 81.77 40.48 81.55 39.75 78.18 40.91 78.39 41.65"/><polygon class="cls-7" points="85.41 43.89 87.32 47.12 87.92 46.71 86.01 43.47 85.41 43.89"/><polygon class="cls-7" points="69.42 54.3 72.48 52.38 72.13 51.71 69.06 53.64 69.42 54.3"/><polygon class="cls-7" points="61.19 46.73 64.6 47.72 64.79 46.98 61.37 45.98 61.19 46.73"/><polygon class="cls-7" points="42.71 50.92 44.81 47.82 44.24 47.37 42.14 50.46 42.71 50.92"/><polygon class="cls-7" points="29.11 46.77 31.95 49.06 32.37 48.45 29.53 46.15 29.11 46.77"/><polygon class="cls-7" points="37.28 42.66 37.65 46.48 38.36 46.4 37.98 42.57 37.28 42.66"/><rect class="cls-7" x="35.03" y="52.62" width="3.54" height="0.77"/><polygon class="cls-7" points="48.31 52.29 50.08 55.62 50.69 55.23 48.92 51.9 48.31 52.29"/><polygon class="cls-7" points="54.2 48.53 57.26 50.45 57.62 49.79 54.55 47.87 54.2 48.53"/><polygon class="cls-7" points="60.66 53.1 64.08 52.12 63.9 51.38 60.48 52.36 60.66 53.1"/><rect class="cls-12" x="97.5" y="136.5" width="86.5" height="43" rx="4.51"/><ellipse class="cls-4" cx="130.39" cy="157.55" rx="14.42" ry="13.52"/><ellipse class="cls-10" cx="151.11" cy="158.45" rx="14.42" ry="13.52"/><rect class="cls-10" x="22" y="61" width="49" height="73.47" rx="5.59"/><path class="cls-15" d="M46.84,121.8,32.21,93.55s-6.5-17.79,14.63-19.88c0,0,19,1,14.09,20.4Z"/><ellipse class="cls-6" cx="46.5" cy="88.45" rx="9.89" ry="9.55"/><circle class="cls-15" cx="68.5" cy="103.5" r="1.5"/><circle class="cls-15" cx="28.5" cy="75.5" r="2.5"/><circle class="cls-15" cx="60.26" cy="114.13" r="2.74"/><circle class="cls-15" cx="38.5" cy="126.5" r="4.5"/><circle class="cls-15" cx="65.5" cy="65.5" r="2.5"/><circle class="cls-15" cx="27.5" cy="101.5" r="3.5"/><circle class="cls-15" cx="68.07" cy="85.94" r="1.06"/><circle class="cls-15" cx="65" cy="129" r="1"/><circle class="cls-15" cx="25.07" cy="120.94" r="1.06"/><circle class="cls-15" cx="54.5" cy="71.5" r="1.5"/><circle class="cls-15" cx="40.5" cy="67.5" r="3.5"/><circle class="cls-15" cx="26" cy="64" r="1"/></g></svg>