<svg id="Layer_1" data-name="Layer 1" xmlns="http://www.w3.org/2000/svg" viewBox="0 0 800 800"><defs><style>.cls-1{fill:#9ca6ce;opacity:0.54;}.cls-2{fill:#27255c;}.cls-10,.cls-3{fill:#96c6f9;}.cls-4,.cls-6{fill:#0b20f5;}.cls-5,.cls-8{fill:#739ddc;}.cls-10,.cls-11,.cls-14,.cls-5,.cls-6,.cls-7,.cls-8{stroke:#050324;}.cls-10,.cls-11,.cls-12,.cls-14,.cls-5,.cls-6,.cls-7,.cls-8{stroke-miterlimit:10;}.cls-10,.cls-12,.cls-5,.cls-6,.cls-7{stroke-width:2px;}.cls-11,.cls-7{fill:#f6f8fd;}.cls-9{fill:#050324;opacity:0.51;}.cls-12,.cls-14{fill:none;}.cls-12{stroke:#27255c;}.cls-13{fill:#3f51ba;}.cls-14{stroke-width:6px;}</style></defs><path class="cls-1" d="M33.26,184.17S63.09,290.33,124.51,314c0,0,9.65,1.75,12.28,24.56s-19.3,31.59-19.3,31.59-150.91,100.9-11.41,241.28c0,0,16.67,11.4,17.55,29.83s-22.81,29.83-22.81,29.83S39.4,718.48,46.42,786H270s-7.77-99.14-65.67-114.93c0,0-27.2-15.8-13.16-32.47s24.56-36.85,24.56-36.85,94.76-155.29-32.46-234.25c0,0-14.91-15.8-13.16-34.22,0,0,4.39-22.81,12.28-22.81S307.88,259.62,299.1,184.17Z"/><path class="cls-2" d="M280.68,333.32s-57-3.51-40.36-66.68c0,0,16.67-17.55,57.91-27.2,0,0,63.17-10.53,74.57-23.69,0,0,55.28-21.05,55.28,32.47,0,0,7,46.5,2.63,56.15Z"/><path class="cls-3" d="M378.94,281.56V235.93s17.55.88,25.45-10.53c0,0,14,16.67-11.41,30.71l1.76,24.57Z"/><polygon class="cls-2" points="269.27 674.62 245.58 789.55 279.8 790.43 279.8 770.25 297.35 791.3 385.96 791.3 385.96 778.14 336.39 756.65 355.69 681.2 269.27 674.62"/><polygon class="cls-4" points="293.84 545.64 256.99 733.4 354.38 733.4 387.72 579.86 293.84 545.64"/><polygon class="cls-2" points="595.65 628.12 664.97 700.94 686.02 679.88 673.74 661.46 701.81 662.33 755.33 605.3 753.58 600.04 702.69 620.22 662.33 573.72 595.65 628.12"/><polygon class="cls-4" points="626.36 661.46 507.92 541.26 567.58 473.7 693.04 591.27 626.36 661.46"/><path class="cls-5" d="M563.57,600.09l-322,27.39a37,37,0,0,1-40-33.7L185.64,406.41a37,37,0,0,1,33.69-40l322-27.38a37,37,0,0,1,40,33.7l15.93,187.37A37,37,0,0,1,563.57,600.09Z"/><rect class="cls-6" x="506.16" y="8.69" width="138.62" height="138.62"/><polygon class="cls-7" points="530.73 76.25 568.45 115.73 628.12 56.07 605.3 33.26 565.82 78.01 550.03 59.58 530.73 76.25"/><path class="cls-8" d="M550.91,178,550,125.38s12.28-16.67,18.42,1.76v12.28s22.82-10.53,33.34,14l-.87,28.08Z"/><polyline class="cls-5" points="566.7 349.99 414.92 527.22 461.42 487.74 582.49 592.14"/><rect class="cls-9" x="177.52" y="336.5" width="388.29" height="256.66" rx="47.38" transform="translate(-99.13 100.75) rotate(-13.64)"/><rect class="cls-10" x="173.79" y="331.53" width="388.29" height="256.66" rx="47.38" transform="translate(-98.06 99.73) rotate(-13.64)"/><path class="cls-10" d="M321.91,341.22l162.76-42a41.56,41.56,0,0,1,50.2,30.59l40.92,168.63a41.56,41.56,0,0,1-30.59,50.2"/><polyline class="cls-10" points="215.59 613.2 358.05 410.92 577.13 518.44"/><polyline class="cls-10" points="521.63 307.06 379.17 509.34 160.08 401.82"/><path class="cls-8" d="M319.28,445.62s14.92-1.75,20.18-6.14c0,0,5.7-5.7,9.21-5.7,0,0,10.83,0,9.76,8.93,0,.23-.06.47-.1.72-1.76,9.65-16.67,13.16-16.67,13.16l42.11,15.79A7.82,7.82,0,0,1,386.4,482s-6.14,2.64-11.4,0l-28.08-12.28,21.93,11.41s7,7.89.88,11.4a35.92,35.92,0,0,1-14.91,0L346,487.3l11.41,8.77s3.51,12.28-12.29,9.65l-12.28-4.38s-28.95,4.38-33.34,0S319.28,445.62,319.28,445.62Z"/><path class="cls-11" d="M309.63,507S207,473.7,223.65,369.29c0,0,13.16-93.88,119.32-96.51l159.68-.88s49.13,10.53,37.73-53.51l1.75-58.79,64,2.63-.88,91.25S583.81,351.31,484.67,339l-161.44,2.64s-69.31,51.76,11.41,101.77Z"/><rect class="cls-2" x="567.14" y="174.08" width="11.41" height="30.71" rx="5.13" transform="translate(-10.06 345.17) rotate(-33.26)"/><rect class="cls-2" x="546.37" y="201.41" width="9.53" height="24.97" rx="4.63" transform="translate(40.23 511.34) rotate(-51.42)"/><rect class="cls-2" x="590.89" y="220.89" width="9.01" height="22.8" rx="4.37" transform="matrix(0.82, 0.57, -0.57, 0.82, 237.66, -297.32)"/><rect class="cls-2" x="550.64" y="236.08" width="8.19" height="30.71" rx="3.97" transform="translate(303.3 806.16) rotate(-90)"/><rect class="cls-2" x="571.84" y="272.21" width="9.01" height="30.71" rx="3.36"/><rect class="cls-2" x="536.3" y="291.78" width="9.01" height="26.63" rx="4.37" transform="translate(304.74 -269.21) rotate(38.23)"/><rect class="cls-2" x="504.68" y="271.75" width="9.01" height="23" rx="2.93" transform="translate(-71.94 325.63) rotate(-33.26)"/><rect class="cls-2" x="456.29" y="287.77" width="7.61" height="28.9" rx="2.64" transform="translate(234.61 -199.95) rotate(32.52)"/><rect class="cls-2" x="393.26" y="275.6" width="9.01" height="30.71" rx="3.59" transform="translate(-94.45 315.44) rotate(-39.03)"/><rect class="cls-2" x="357.16" y="302.22" width="9.01" height="30.71" rx="3.08"/><rect class="cls-2" x="312.64" y="309.12" width="8.72" height="22.73" rx="3.49" transform="translate(13.86 -13.14) rotate(2.43)"/><rect class="cls-2" x="274.32" y="291.25" width="9.01" height="17.46" rx="3.23"/><rect class="cls-2" x="253.85" y="339.84" width="8.3" height="27.32" rx="3.89" transform="translate(-177.49 310.1) rotate(-48.18)"/><rect class="cls-2" x="247.34" y="386.84" width="11.41" height="30.71" rx="2.74" transform="translate(-149.15 655.23) rotate(-90)"/><rect class="cls-2" x="278.05" y="424.57" width="11.41" height="30.71" rx="5.13"/><polygon class="cls-3" points="95.55 607.06 61.34 596.53 100.82 572.84 95.55 607.06"/><path class="cls-12" d="M85.9,593.9s14,2.63,39.48,150"/><circle class="cls-2" cx="85.9" cy="593.9" r="3.51"/><polygon class="cls-3" points="98.19 548.27 119.24 573.72 140.3 548.27 98.19 548.27"/><line class="cls-12" x1="119.24" y1="555.29" x2="120.12" y2="747.44"/><circle class="cls-2" cx="119.24" cy="557.05" r="3.51"/><polygon class="cls-3" points="140.3 640.4 125.38 611.45 162.23 621.97 140.3 640.4"/><path class="cls-12" d="M145.56,622.85s-15.79,11.41-33.34,124.59"/><circle class="cls-2" cx="143.21" cy="625.09" r="3.51"/><circle class="cls-7" cx="118.37" cy="742.17" r="46.94"/><polyline class="cls-7" points="104.77 697.87 104.77 691.72 86.34 676.81 86.34 662.77 147.76 662.77 147.76 677.69 131.97 690.85 131.97 698.74"/><polygon class="cls-3" points="477 713.56 477.21 690.41 501.77 713.22 477 713.56"/><path class="cls-12" d="M483.35,706.2S452.64,739.54,450.89,758"/><circle class="cls-2" cx="484.23" cy="706.2" r="3.51"/><polygon class="cls-3" points="430.71 664.97 471.94 664.97 450.57 694.07 430.71 664.97"/><line class="cls-12" x1="450.01" y1="673.74" x2="450.89" y2="791.31"/><circle class="cls-2" cx="450.11" cy="674.75" r="3.51"/><polygon class="cls-3" points="426.32 725.5 425.44 700.06 399.12 724.63 426.32 725.5"/><path class="cls-12" d="M450.89,772c-11.41-39.48-32.47-52.64-32.47-52.64"/><circle class="cls-2" cx="418.42" cy="719.36" r="3.51"/><polyline class="cls-13" points="759.72 601.79 759.72 789.55 576.35 789.55"/><line class="cls-14" x1="12.2" y1="789.55" x2="787.8" y2="789.55"/></svg>