<svg id="Layer_1" data-name="Layer 1" xmlns="http://www.w3.org/2000/svg" viewBox="0 0 200 120"><defs><style>.cls-1,.cls-12,.cls-15,.cls-2{fill:#96c6f9;}.cls-1{opacity:0.16;}.cls-10,.cls-11,.cls-12,.cls-13,.cls-14,.cls-2,.cls-4,.cls-5,.cls-8{stroke:#050324;stroke-miterlimit:10;}.cls-11,.cls-13,.cls-2{stroke-width:0.5px;}.cls-11,.cls-3,.cls-5{fill:#f6f8fd;}.cls-13,.cls-4,.cls-7{fill:#0b20f5;}.cls-12,.cls-4,.cls-5,.cls-8{stroke-width:0.25px;}.cls-14,.cls-6{fill:#27255c;}.cls-8{fill:#739ddc;}.cls-9{fill:#050324;}.cls-10{fill:none;}.cls-14{stroke-width:2px;}</style></defs><circle class="cls-1" cx="66.35" cy="11.99" r="3.5"/><rect class="cls-2" x="30.49" y="33.53" width="80.57" height="16" transform="translate(7.53 -10.75) rotate(9.17)"/><polygon class="cls-3" points="38.52 32.48 37.52 39.48 43.52 37.48 38.52 32.48"/><path class="cls-4" d="M48.68,38.2h0c-.34,1.5.93,2.95,2.84,3.26l46.73,7.47c1.93.3,3.77-.67,4.12-2.18h0c.34-1.49-.93-3-2.85-3.26L52.79,36C50.87,35.72,49,36.7,48.68,38.2Z"/><circle class="cls-5" cx="94.52" cy="45.48" r="4.5"/><circle class="cls-6" cx="106.52" cy="30.48" r="8.5"/><polygon class="cls-6" points="130.76 78.34 165.02 113.98 179.02 64.98 130.76 78.34"/><path class="cls-3" d="M156,94l4,6s5,0,5-3l-1-5Z"/><circle class="cls-7" cx="157.5" cy="83.5" r="10.5"/><circle class="cls-3" cx="161.02" cy="79.98" r="2"/><polygon class="cls-2" points="156.02 61.98 161.02 56.98 159.17 49.52 166.02 51.98 171.02 47.98 171.02 54.98 176.02 58.98 170.02 59.98 168.02 66.98 164.02 61.98 156.02 61.98"/><path class="cls-8" d="M55,90l3,14s12-1,14,9l14-2S78,85,55,90Z"/><circle class="cls-9" cx="64.02" cy="95.98" r="3"/><path class="cls-10" d="M78,107S74,97,64,96"/><rect class="cls-11" x="15.52" y="68.48" width="40" height="40" transform="translate(31.7 -6.79) rotate(19.58)"/><rect class="cls-9" x="18.36" y="72.34" width="32.32" height="32.32" transform="translate(31.65 -6.45) rotate(19.58)"/><polygon class="cls-3" points="14.63 97.86 33.15 84.64 35.02 104.98 14.63 97.86"/><circle class="cls-3" cx="45.02" cy="83.98" r="2"/><polygon class="cls-3" points="27.26 102.21 44.02 107.98 42.02 93.98 42.02 93.98 27.26 102.21"/><circle class="cls-12" cx="130.52" cy="98.48" r="14.5"/><polygon class="cls-13" points="74.02 49.98 94.02 69.98 159.02 5.98 180.02 27.98 95.02 113.98 52.02 69.98 74.02 49.98"/><line class="cls-14" x1="11.02" y1="113.98" x2="185.02" y2="113.98"/><path class="cls-6" d="M130.65,107.87l-5.51-11s-2.45-6.94,5.51-7.76c0,0,7.15.41,5.31,8Z"/><circle class="cls-15" cx="130.52" cy="94.85" r="3.73"/><circle class="cls-1" cx="94.77" cy="59.73" r="3.25"/><circle class="cls-1" cx="109.27" cy="108.23" r="2.75"/><circle class="cls-1" cx="186.52" cy="38.48" r="3.5"/><circle class="cls-1" cx="147.85" cy="2.49" r="2"/></svg>