<svg xmlns="http://www.w3.org/2000/svg" viewBox="0 0 1080 1080"><defs><style>.cls-1{isolation:isolate;}.cls-2{fill:#96c6f9;opacity:0.54;}.cls-3{fill:#000026;}.cls-4{fill:#000017;}.cls-5{fill:#0c71b3;}.cls-13,.cls-6{fill:#fff;}.cls-6{mix-blend-mode:soft-light;}.cls-7{fill:#001;}.cls-8{fill:#000020;}.cls-9{fill:#00001a;}.cls-10{fill:#0b20f5;}.cls-11{fill:#f6f8fd;}.cls-12{fill:#3f51ba;}</style></defs><g class="cls-1"><g id="Layer_1" data-name="Layer 1"><rect class="cls-2" x="65" y="54" width="956" height="966"/><rect class="cls-3" x="197.57" y="212.36" width="167.06" height="251.09"/><rect class="cls-3" x="278.34" y="107.74" width="5.52" height="78.47"/><rect class="cls-4" x="207.9" y="184.1" width="146.4" height="28.26"/><rect class="cls-5" x="217.66" y="188.74" width="7.75" height="19.41"/><rect class="cls-5" x="234.7" y="188.74" width="7.75" height="19.41"/><rect class="cls-5" x="251.74" y="188.74" width="7.74" height="19.41"/><rect class="cls-5" x="268.78" y="188.74" width="7.74" height="19.41"/><rect class="cls-5" x="285.83" y="188.74" width="7.75" height="19.41"/><rect class="cls-5" x="302.86" y="188.74" width="7.75" height="19.41"/><rect class="cls-5" x="319.9" y="188.74" width="7.74" height="19.41"/><rect class="cls-5" x="336.95" y="188.74" width="7.74" height="19.41"/><path class="cls-5" d="M197.57,461.9v1.55H364.63V461.9h-19V441.23h19v-2.11h-19V418.45h19v-2.11h-19V395.67h19v-2.11h-19V371.11h19V369h-19V348.33h19v-2.11h-19V325.55h19v-2.11h-19V302.76h19v-2.11h-19V280h19v-2.1h-19V257.2h19v-2.1h-19V234.42h19v-2.11h-19V212.36h-2.11v19.95H322.87V212.36h-2.12v19.95H300.08V212.36H298v19.95H277.3V212.36h-2.1v19.95H254.52V212.36h-2.11v19.95H231.74V212.36h-2.11v19.95H209V212.36h-2.11v19.95h-9.28v2.11h9.28V255.1h-9.28v2.1h9.28v20.68h-9.28V280h9.28v20.67h-9.28v2.11h9.28v20.68h-9.28v2.11h9.28v20.67h-9.28v2.11h9.28V369h-9.28v2.11h9.28v22.45h-9.28v2.11h9.28v20.67h-9.28v2.11h9.28v20.67h-9.28v2.11h9.28V461.9Zm125.3-227.48h20.67V255.1H322.87Zm0,22.78h20.67v20.68H322.87Zm0,22.78h20.67v20.67H322.87Zm0,22.78h20.67v20.68H322.87Zm0,22.79h20.67v20.67H322.87Zm0,22.78h20.67V369H322.87Zm0,22.78h20.67v22.45H322.87Zm0,24.56h20.67v20.67H322.87Zm0,22.78h20.67v20.67H322.87Zm0,22.78h20.67V461.9H322.87ZM300.08,234.42h20.67V255.1H300.08Zm0,22.78h20.67v20.68H300.08Zm0,22.78h20.67v20.67H300.08Zm0,22.78h20.67v20.68H300.08Zm0,22.79h20.67v20.67H300.08Zm0,22.78h20.67V369H300.08Zm0,22.78h20.67v22.45H300.08Zm0,24.56h20.67v20.67H300.08Zm0,22.78h20.67v20.67H300.08Zm0,22.78h20.67V461.9H300.08ZM277.3,234.42H298V255.1H277.3Zm0,22.78H298v20.68H277.3Zm0,22.78H298v20.67H277.3Zm0,22.78H298v20.68H277.3Zm0,22.79H298v20.67H277.3Zm0,22.78H298V369H277.3Zm0,22.78H298v22.45H277.3Zm0,24.56H298v20.67H277.3Zm0,22.78H298v20.67H277.3Zm0,22.78H298V461.9H277.3ZM254.52,234.42H275.2V255.1H254.52Zm0,22.78H275.2v20.68H254.52Zm0,22.78H275.2v20.67H254.52Zm0,22.78H275.2v20.68H254.52Zm0,22.79H275.2v20.67H254.52Zm0,22.78H275.2V369H254.52Zm0,22.78H275.2v22.45H254.52Zm0,24.56H275.2v20.67H254.52Zm0,22.78H275.2v20.67H254.52Zm0,22.78H275.2V461.9H254.52ZM231.74,234.42h20.67V255.1H231.74Zm0,22.78h20.67v20.68H231.74Zm0,22.78h20.67v20.67H231.74Zm0,22.78h20.67v20.68H231.74Zm0,22.79h20.67v20.67H231.74Zm0,22.78h20.67V369H231.74Zm0,22.78h20.67v22.45H231.74Zm0,24.56h20.67v20.67H231.74Zm0,22.78h20.67v20.67H231.74Zm0,22.78h20.67V461.9H231.74ZM209,234.42h20.67V255.1H209Zm0,22.78h20.67v20.68H209ZM209,280h20.67v20.67H209Zm0,22.78h20.67v20.68H209Zm0,22.79h20.67v20.67H209Zm0,22.78h20.67V369H209Zm0,22.78h20.67v22.45H209Zm0,24.56h20.67v20.67H209Zm0,22.78h20.67v20.67H209Zm0,22.78h20.67V461.9H209Z"/><polygon class="cls-6" points="318.81 463.45 281.1 212.36 243.4 463.45 318.81 463.45"/><rect class="cls-3" x="443.79" y="100.2" width="5.52" height="72.87"/><polygon class="cls-3" points="461.53 185.83 461.53 157 431.57 157 431.57 185.83 417.78 185.83 417.78 211.04 475.32 211.04 475.32 185.83 461.53 185.83"/><rect class="cls-7" x="383.51" y="210.78" width="127.19" height="251.48"/><rect class="cls-8" x="486.84" y="241.7" width="48.39" height="96.18"/><rect class="cls-8" x="364.63" y="241.7" width="48.39" height="96.18"/><rect class="cls-3" x="478.4" y="337.46" width="60.72" height="124.79"/><rect class="cls-3" x="359.12" y="337.46" width="60.73" height="124.79"/><rect class="cls-5" x="426.69" y="241.38" width="17.55" height="31.64"/><polygon class="cls-6" points="443.14 241.38 440.58 241.38 427.4 273.03 430.54 273.03 443.14 241.38"/><path class="cls-6" d="M436.07,241.38s-8.54,21.41-9.38,23.57v6.62l12.08-30.19Z"/><rect class="cls-5" x="454.38" y="241.38" width="17.55" height="31.64"/><polygon class="cls-6" points="470.83 241.38 468.27 241.38 455.09 273.03 458.23 273.03 470.83 241.38"/><path class="cls-6" d="M463.76,241.38s-8.55,21.41-9.38,23.57v6.62l12.08-30.19Z"/><rect class="cls-5" x="426.69" y="282.8" width="17.55" height="31.66"/><polygon class="cls-6" points="443.14 282.8 440.58 282.8 427.4 314.46 430.54 314.46 443.14 282.8"/><path class="cls-6" d="M436.07,282.8s-8.54,21.42-9.38,23.58V313l12.08-30.2Z"/><rect class="cls-5" x="454.38" y="282.8" width="17.55" height="31.66"/><polygon class="cls-6" points="470.83 282.8 468.27 282.8 455.09 314.46 458.23 314.46 470.83 282.8"/><path class="cls-6" d="M463.76,282.8s-8.55,21.42-9.38,23.58V313l12.08-30.2Z"/><rect class="cls-5" x="426.69" y="324.23" width="17.55" height="31.65"/><polygon class="cls-6" points="443.14 324.24 440.58 324.24 427.4 355.88 430.54 355.88 443.14 324.24"/><path class="cls-6" d="M436.07,324.23s-8.54,21.42-9.38,23.57v6.63l12.08-30.2Z"/><rect class="cls-5" x="454.38" y="324.23" width="17.55" height="31.65"/><polygon class="cls-6" points="470.83 324.24 468.27 324.24 455.09 355.88 458.23 355.88 470.83 324.24"/><path class="cls-6" d="M463.76,324.23s-8.55,21.42-9.38,23.57v6.63l12.08-30.2Z"/><rect class="cls-5" x="440.54" y="367.86" width="17.55" height="31.65"/><polygon class="cls-6" points="456.98 367.86 454.42 367.86 441.24 399.51 444.39 399.51 456.98 367.86"/><path class="cls-6" d="M449.91,367.86s-8.54,21.41-9.37,23.57v6.62l12.08-30.19Z"/><rect class="cls-5" x="440.54" y="415.13" width="17.55" height="31.65"/><polygon class="cls-6" points="456.98 415.13 454.42 415.13 441.24 446.78 444.39 446.78 456.98 415.13"/><path class="cls-6" d="M449.91,415.13s-8.54,21.42-9.37,23.57v6.63l12.08-30.2Z"/><rect class="cls-5" x="374.01" y="250.02" width="11.21" height="23.08"/><polygon class="cls-6" points="384.52 250.02 382.88 250.02 374.46 273.11 376.47 273.11 384.52 250.02"/><path class="cls-6" d="M380,250s-5.45,15.62-6,17.19v4.84l7.72-22Z"/><rect class="cls-5" x="391.49" y="250.02" width="11.21" height="23.08"/><polygon class="cls-6" points="402 250.02 400.37 250.02 391.94 273.11 393.95 273.11 402 250.02"/><path class="cls-6" d="M397.49,250s-5.46,15.62-6,17.19v4.84l7.72-22Z"/><rect class="cls-5" x="374.01" y="280.61" width="11.21" height="23.08"/><polygon class="cls-6" points="384.52 280.61 382.88 280.61 374.46 303.69 376.47 303.69 384.52 280.61"/><path class="cls-6" d="M380,280.61s-5.45,15.62-6,17.18v4.84l7.72-22Z"/><rect class="cls-5" x="391.49" y="280.61" width="11.21" height="23.08"/><polygon class="cls-6" points="402 280.61 400.37 280.61 391.94 303.69 393.95 303.69 402 280.61"/><path class="cls-6" d="M397.49,280.61s-5.46,15.62-6,17.18v4.84l7.72-22Z"/><rect class="cls-5" x="374.01" y="310.74" width="11.21" height="23.08"/><polygon class="cls-6" points="384.52 310.74 382.88 310.74 374.46 333.82 376.47 333.82 384.52 310.74"/><path class="cls-6" d="M380,310.74s-5.45,15.62-6,17.19v4.83l7.72-22Z"/><rect class="cls-5" x="391.49" y="310.74" width="11.21" height="23.08"/><polygon class="cls-6" points="402 310.74 400.37 310.74 391.94 333.82 393.95 333.82 402 310.74"/><path class="cls-6" d="M397.49,310.74s-5.46,15.62-6,17.19v4.83l7.72-22Z"/><rect class="cls-5" x="496.7" y="247.88" width="11.2" height="23.09"/><polygon class="cls-6" points="507.2 247.88 505.56 247.88 497.14 270.97 499.15 270.97 507.2 247.88"/><path class="cls-6" d="M502.68,247.88s-5.46,15.63-6,17.2v4.83l7.7-22Z"/><rect class="cls-5" x="514.17" y="247.88" width="11.21" height="23.09"/><polygon class="cls-6" points="524.68 247.88 523.04 247.88 514.62 270.97 516.63 270.97 524.68 247.88"/><path class="cls-6" d="M520.16,247.88s-5.46,15.63-6,17.2v4.83l7.72-22Z"/><rect class="cls-5" x="496.7" y="278.47" width="11.2" height="23.08"/><polygon class="cls-6" points="507.2 278.47 505.56 278.47 497.14 301.56 499.15 301.56 507.2 278.47"/><path class="cls-6" d="M502.68,278.47s-5.46,15.63-6,17.19v4.83l7.7-22Z"/><rect class="cls-5" x="514.17" y="278.47" width="11.21" height="23.08"/><polygon class="cls-6" points="524.68 278.47 523.04 278.47 514.62 301.56 516.63 301.56 524.68 278.47"/><path class="cls-6" d="M520.16,278.47s-5.46,15.63-6,17.19v4.83l7.72-22Z"/><rect class="cls-5" x="496.7" y="308.6" width="11.2" height="23.08"/><polygon class="cls-6" points="507.2 308.6 505.56 308.6 497.14 331.69 499.15 331.69 507.2 308.6"/><path class="cls-6" d="M502.68,308.6s-5.46,15.62-6,17.2v4.83l7.7-22Z"/><rect class="cls-5" x="514.17" y="308.6" width="11.21" height="23.08"/><polygon class="cls-6" points="524.68 308.6 523.04 308.6 514.62 331.69 516.63 331.69 524.68 308.6"/><path class="cls-6" d="M520.16,308.6s-5.46,15.62-6,17.2v4.83l7.72-22Z"/><rect class="cls-5" x="370.68" y="355.39" width="14.95" height="26.98"/><polygon class="cls-6" points="384.69 355.39 382.51 355.39 371.28 382.36 373.96 382.36 384.69 355.39"/><path class="cls-6" d="M378.67,355.39s-7.28,18.25-8,20.09v5.65L381,355.39Z"/><rect class="cls-5" x="394.27" y="355.39" width="14.95" height="26.98"/><polygon class="cls-6" points="408.29 355.39 406.11 355.39 394.88 382.36 397.56 382.36 408.29 355.39"/><path class="cls-6" d="M402.26,355.39s-7.28,18.25-8,20.09v5.65l10.3-25.74Z"/><rect class="cls-5" x="370.68" y="392.46" width="14.95" height="26.98"/><polygon class="cls-6" points="384.69 392.46 382.51 392.46 371.28 419.44 373.96 419.44 384.69 392.46"/><path class="cls-6" d="M378.67,392.46s-7.28,18.25-8,20.09v5.64L381,392.46Z"/><rect class="cls-5" x="394.27" y="392.46" width="14.95" height="26.98"/><polygon class="cls-6" points="408.29 392.46 406.11 392.46 394.88 419.44 397.56 419.44 408.29 392.46"/><path class="cls-6" d="M402.26,392.46s-7.28,18.25-8,20.09v5.64l10.3-25.73Z"/><rect class="cls-5" x="370.68" y="429.53" width="14.95" height="26.98"/><polygon class="cls-6" points="384.69 429.53 382.51 429.53 371.28 456.5 373.96 456.5 384.69 429.53"/><path class="cls-6" d="M378.67,429.53s-7.28,18.25-8,20.09v5.64L381,429.53Z"/><rect class="cls-5" x="394.27" y="429.53" width="14.95" height="26.98"/><polygon class="cls-6" points="408.29 429.53 406.11 429.53 394.88 456.5 397.56 456.5 408.29 429.53"/><path class="cls-6" d="M402.26,429.53s-7.28,18.25-8,20.09v5.64l10.3-25.73Z"/><rect class="cls-5" x="491.77" y="355.39" width="14.95" height="26.98"/><polygon class="cls-6" points="505.77 355.39 503.59 355.39 492.36 382.36 495.04 382.36 505.77 355.39"/><path class="cls-6" d="M499.75,355.39s-7.28,18.25-8,20.09v5.65l10.28-25.74Z"/><rect class="cls-5" x="515.35" y="355.39" width="14.95" height="26.98"/><polygon class="cls-6" points="529.37 355.39 527.19 355.39 515.95 382.36 518.64 382.36 529.37 355.39"/><path class="cls-6" d="M523.35,355.39s-7.28,18.25-8,20.09v5.65l10.3-25.74Z"/><rect class="cls-5" x="491.77" y="392.46" width="14.95" height="26.98"/><polygon class="cls-6" points="505.77 392.46 503.59 392.46 492.36 419.44 495.04 419.44 505.77 392.46"/><path class="cls-6" d="M499.75,392.46s-7.28,18.25-8,20.09v5.64l10.28-25.73Z"/><rect class="cls-5" x="515.35" y="392.46" width="14.95" height="26.98"/><polygon class="cls-6" points="529.37 392.46 527.19 392.46 515.95 419.44 518.64 419.44 529.37 392.46"/><path class="cls-6" d="M523.35,392.46s-7.28,18.25-8,20.09v5.64l10.3-25.73Z"/><rect class="cls-5" x="491.77" y="429.53" width="14.95" height="26.98"/><polygon class="cls-6" points="505.77 429.53 503.59 429.53 492.36 456.5 495.04 456.5 505.77 429.53"/><path class="cls-6" d="M499.75,429.53s-7.28,18.25-8,20.09v5.64l10.28-25.73Z"/><rect class="cls-5" x="515.35" y="429.53" width="14.95" height="26.98"/><polygon class="cls-6" points="529.37 429.53 527.19 429.53 515.95 456.5 518.64 456.5 529.37 429.53"/><path class="cls-6" d="M523.35,429.53s-7.28,18.25-8,20.09v5.64l10.3-25.73Z"/><path class="cls-5" d="M599.16,166.28V109.21h-5.88v57.07c-11.57,2.84-20.52,22.07-20.52,42.78v16.1h46.91v-16.1C619.67,188.35,610.72,169.12,599.16,166.28Z"/><path class="cls-3" d="M626.64,240.89v-16.1c0-22.43-13.62-43.15-30.42-43.15s-30.43,20.72-30.43,43.15v16.1Z"/><path class="cls-5" d="M631.34,253.55v-16c0-22.35-15.73-43-35.12-43s-35.13,20.64-35.13,43v16Z"/><path class="cls-3" d="M634.58,266.65V250.21c0-22.92-17.18-44.07-38.36-44.07s-38.37,21.15-38.37,44.07v16.44Z"/><path class="cls-5" d="M637,276.62v-16c0-22.34-18.27-43-40.81-43s-40.82,20.64-40.82,43v16Z"/><path class="cls-3" d="M643.27,291.89V275.45c0-22.91-21.07-44.07-47-44.07s-47.05,21.16-47.05,44.07v16.44Z"/><rect class="cls-7" x="528.14" y="290.43" width="136.16" height="171.85"/><path class="cls-5" d="M646,423.93V289.3c0-23.11-22.27-44.44-49.75-44.44s-49.76,21.33-49.76,44.44V423.93Z"/><rect class="cls-9" x="635.19" y="423.93" width="37.75" height="38.34"/><rect class="cls-9" x="519.5" y="423.93" width="38.99" height="38.34"/><path class="cls-3" d="M635.19,462.28V297.88c0-22.71-17.45-41.12-39-41.12s-39,18.41-39,41.12v164.4Z"/><rect class="cls-5" x="566.25" y="291.89" width="14.98" height="27.03"/><polygon class="cls-6" points="580.29 291.89 578.11 291.89 566.85 318.92 569.55 318.92 580.29 291.89"/><path class="cls-6" d="M574.26,291.89s-7.3,18.29-8,20.13v5.66l10.32-25.79Z"/><rect class="cls-5" x="589.63" y="291.89" width="14.98" height="27.03"/><polygon class="cls-6" points="603.66 291.89 601.49 291.89 590.23 318.92 592.92 318.92 603.66 291.89"/><path class="cls-6" d="M597.64,291.89s-7.3,18.29-8,20.13v5.66l10.31-25.79Z"/><rect class="cls-5" x="613.01" y="291.89" width="14.98" height="27.03"/><polygon class="cls-6" points="627.05 291.89 624.86 291.89 613.6 318.92 616.29 318.92 627.05 291.89"/><path class="cls-6" d="M621,291.89s-7.29,18.29-8,20.13v5.66l10.31-25.79Z"/><rect class="cls-5" x="566.25" y="325.14" width="14.98" height="27.02"/><polygon class="cls-6" points="580.29 325.14 578.11 325.14 566.85 352.16 569.55 352.16 580.29 325.14"/><path class="cls-6" d="M574.26,325.14s-7.3,18.28-8,20.12v5.66l10.32-25.78Z"/><rect class="cls-5" x="589.63" y="325.14" width="14.98" height="27.02"/><polygon class="cls-6" points="603.66 325.14 601.49 325.14 590.23 352.16 592.92 352.16 603.66 325.14"/><path class="cls-6" d="M597.64,325.14s-7.3,18.28-8,20.12v5.66l10.31-25.78Z"/><rect class="cls-5" x="613.01" y="325.14" width="14.98" height="27.02"/><polygon class="cls-6" points="627.05 325.14 624.86 325.14 613.6 352.16 616.29 352.16 627.05 325.14"/><path class="cls-6" d="M621,325.14s-7.29,18.28-8,20.12v5.66l10.31-25.78Z"/><rect class="cls-5" x="566.25" y="358.38" width="14.98" height="27.03"/><polygon class="cls-6" points="580.29 358.38 578.11 358.38 566.85 385.41 569.55 385.41 580.29 358.38"/><path class="cls-6" d="M574.26,358.38s-7.3,18.28-8,20.13v5.65l10.32-25.78Z"/><rect class="cls-5" x="589.63" y="358.38" width="14.98" height="27.03"/><polygon class="cls-6" points="603.66 358.38 601.49 358.38 590.23 385.41 592.92 385.41 603.66 358.38"/><path class="cls-6" d="M597.64,358.38s-7.3,18.28-8,20.13v5.65l10.31-25.78Z"/><rect class="cls-5" x="613.01" y="358.38" width="14.98" height="27.03"/><polygon class="cls-6" points="627.05 358.38 624.86 358.38 613.6 385.41 616.29 385.41 627.05 358.38"/><path class="cls-6" d="M621,358.38s-7.29,18.28-8,20.13v5.65l10.31-25.78Z"/><rect class="cls-5" x="566.25" y="391.62" width="14.98" height="27.03"/><polygon class="cls-6" points="580.29 391.62 578.11 391.62 566.85 418.65 569.55 418.65 580.29 391.62"/><path class="cls-6" d="M574.26,391.62s-7.3,18.28-8,20.12v5.66l10.32-25.78Z"/><rect class="cls-5" x="589.63" y="391.62" width="14.98" height="27.03"/><polygon class="cls-6" points="603.66 391.62 601.49 391.62 590.23 418.65 592.92 418.65 603.66 391.62"/><path class="cls-6" d="M597.64,391.62s-7.3,18.28-8,20.12v5.66l10.31-25.78Z"/><rect class="cls-5" x="613.01" y="391.62" width="14.98" height="27.03"/><polygon class="cls-6" points="627.05 391.62 624.86 391.62 613.6 418.65 616.29 418.65 627.05 391.62"/><path class="cls-6" d="M621,391.62s-7.29,18.28-8,20.12v5.66l10.31-25.78Z"/><rect class="cls-5" x="566.25" y="431.28" width="14.98" height="27.03"/><polygon class="cls-6" points="580.29 431.29 578.11 431.29 566.85 458.31 569.55 458.31 580.29 431.29"/><path class="cls-6" d="M574.26,431.28s-7.3,18.29-8,20.13v5.66l10.32-25.79Z"/><rect class="cls-5" x="589.63" y="431.28" width="14.98" height="27.03"/><polygon class="cls-6" points="603.66 431.29 601.49 431.29 590.23 458.31 592.92 458.31 603.66 431.29"/><path class="cls-6" d="M597.64,431.28s-7.3,18.29-8,20.13v5.66l10.31-25.79Z"/><rect class="cls-5" x="613.01" y="431.28" width="14.98" height="27.03"/><polygon class="cls-6" points="627.05 431.29 624.86 431.29 613.6 458.31 616.29 458.31 627.05 431.29"/><path class="cls-6" d="M621,431.28s-7.29,18.29-8,20.13v5.66l10.31-25.79Z"/><rect class="cls-5" x="645.97" y="431.35" width="14.98" height="27.02"/><polygon class="cls-6" points="660.02 431.35 657.83 431.35 646.57 458.37 649.26 458.37 660.02 431.35"/><path class="cls-6" d="M654,431.35s-7.31,18.28-8,20.12v5.66l10.32-25.78Z"/><rect class="cls-5" x="531.5" y="431.35" width="14.98" height="27.02"/><polygon class="cls-6" points="545.55 431.35 543.37 431.35 532.11 458.37 534.79 458.37 545.55 431.35"/><path class="cls-6" d="M539.51,431.35s-7.29,18.28-8,20.12v5.66l10.32-25.78Z"/><path class="cls-3" d="M565.42,275.56a.9.9,0,0,1-.56-.19l-9-7.17a.91.91,0,0,1-.15-1.27.89.89,0,0,1,1.26-.14l9,7.17a.9.9,0,0,1-.56,1.6Z"/><path class="cls-3" d="M574.91,264.93a.87.87,0,0,1-.72-.38L568,255.93a.91.91,0,0,1,.21-1.26.89.89,0,0,1,1.25.21l6.19,8.63a.91.91,0,0,1-.21,1.25A.93.93,0,0,1,574.91,264.93Z"/><path class="cls-3" d="M588.45,259.17a.9.9,0,0,1-.86-.65l-3.22-10.93a.9.9,0,1,1,1.72-.5L589.31,258a.9.9,0,0,1-.6,1.12A1.17,1.17,0,0,1,588.45,259.17Z"/><path class="cls-3" d="M626.65,275.38a.89.89,0,0,1-.71-.33.9.9,0,0,1,.14-1.27l9-7.17a.89.89,0,0,1,1.26.14.91.91,0,0,1-.15,1.27l-9,7.17A.88.88,0,0,1,626.65,275.38Z"/><path class="cls-3" d="M617.14,264.74a.82.82,0,0,1-.51-.17.88.88,0,0,1-.21-1.25l6.18-8.63a.9.9,0,0,1,1.46,1.05l-6.18,8.62A.87.87,0,0,1,617.14,264.74Z"/><path class="cls-3" d="M603.61,259.17a.93.93,0,0,1-.24,0,.9.9,0,0,1-.62-1.12l3.22-11.1a.9.9,0,0,1,1.11-.61.88.88,0,0,1,.61,1.11l-3.22,11.11A.9.9,0,0,1,603.61,259.17Z"/><path class="cls-5" d="M574.59,251a.9.9,0,0,1-.79-.47l-4.56-8.42a.9.9,0,0,1,1.58-.86l4.56,8.42a.9.9,0,0,1-.36,1.22A1,1,0,0,1,574.59,251Z"/><path class="cls-5" d="M561.94,259.17a.87.87,0,0,1-.75-.42l-3.57-5.55a.89.89,0,0,1,.26-1.24.9.9,0,0,1,1.25.27l3.56,5.55a.89.89,0,0,1-.27,1.24A.83.83,0,0,1,561.94,259.17Z"/><path class="cls-5" d="M588.63,246.13a.91.91,0,0,1-.86-.64l-3.21-10.93a.88.88,0,0,1,.6-1.11.89.89,0,0,1,1.12.6L589.5,245a.89.89,0,0,1-.61,1.11A.75.75,0,0,1,588.63,246.13Z"/><path class="cls-5" d="M617.71,251a1,1,0,0,1-.4-.1.91.91,0,0,1-.4-1.21l4.22-8.42a.9.9,0,0,1,1.61.81l-4.22,8.42A.92.92,0,0,1,617.71,251Z"/><path class="cls-5" d="M630,258.79a.87.87,0,0,1-.46-.13.9.9,0,0,1-.31-1.23l3.43-5.72a.92.92,0,0,1,1.24-.31.91.91,0,0,1,.3,1.24l-3.43,5.71A.91.91,0,0,1,630,258.79Z"/><path class="cls-5" d="M603.8,246.74l-.24,0a.89.89,0,0,1-.63-1.1l3.22-11.72a.91.91,0,0,1,1.11-.63.9.9,0,0,1,.62,1.1l-3.21,11.73A.91.91,0,0,1,603.8,246.74Z"/><path class="cls-5" d="M573.46,226.82a.92.92,0,0,1-.79-.47l-3.12-5.78a.88.88,0,0,1,.35-1.22.91.91,0,0,1,1.22.36l3.14,5.78a.9.9,0,0,1-.37,1.22A.92.92,0,0,1,573.46,226.82Z"/><path class="cls-5" d="M587.51,222a.89.89,0,0,1-.86-.65l-3.22-10.92a.9.9,0,1,1,1.72-.51l3.22,10.92a.89.89,0,0,1-.6,1.12A1.27,1.27,0,0,1,587.51,222Z"/><path class="cls-5" d="M617.22,226a.9.9,0,0,1-.79-1.34l3.59-6.4a.9.9,0,0,1,1.57.87L618,225.56A.88.88,0,0,1,617.22,226Z"/><path class="cls-5" d="M602.67,222.61a.59.59,0,0,1-.23,0,.89.89,0,0,1-.64-1.1L605,209.75a.9.9,0,1,1,1.73.48L603.54,222A.9.9,0,0,1,602.67,222.61Z"/><path class="cls-5" d="M574.9,205.57a.88.88,0,0,1-.77-.43L572,201.58a.89.89,0,0,1,.31-1.23.88.88,0,0,1,1.23.3l2.16,3.56a.89.89,0,0,1-.3,1.23A.89.89,0,0,1,574.9,205.57Z"/><path class="cls-5" d="M588.16,199.73a.89.89,0,0,1-.86-.64l-3.22-10.92a.9.9,0,1,1,1.72-.51L589,198.58a.9.9,0,0,1-.6,1.12A.77.77,0,0,1,588.16,199.73Z"/><path class="cls-5" d="M617,204.83a.88.88,0,0,1-.48-.14.9.9,0,0,1-.28-1.24l2.63-4.16a.9.9,0,0,1,1.52,1l-2.63,4.16A.9.9,0,0,1,617,204.83Z"/><path class="cls-5" d="M603.32,200.35a1,1,0,0,1-.24,0,.92.92,0,0,1-.63-1.11l3.22-11.72a.9.9,0,1,1,1.74.48l-3.23,11.71A.88.88,0,0,1,603.32,200.35Z"/><path class="cls-3" d="M574.51,238.18a.9.9,0,0,1-.79-.47L569.55,230a.88.88,0,0,1,.35-1.22.9.9,0,0,1,1.22.36l4.18,7.72a.88.88,0,0,1-.36,1.21A1,1,0,0,1,574.51,238.18Z"/><path class="cls-3" d="M562.25,247.09a.9.9,0,0,1-.76-.4l-1.78-2.78a.89.89,0,1,1,1.5-1l1.79,2.77a.9.9,0,0,1-.27,1.24A.86.86,0,0,1,562.25,247.09Z"/><path class="cls-3" d="M588.63,233.27a.91.91,0,0,1-.86-.66l-2.91-10.12a.9.9,0,0,1,1.73-.49l2.91,10.12a.88.88,0,0,1-.61,1.11A.78.78,0,0,1,588.63,233.27Z"/><path class="cls-3" d="M618.23,238.47a.89.89,0,0,1-.39-.09.91.91,0,0,1-.41-1.21l4-8a.92.92,0,0,1,1.21-.41A.91.91,0,0,1,623,230l-4,8A.92.92,0,0,1,618.23,238.47Z"/><path class="cls-3" d="M630.32,246.73a1,1,0,0,1-.5-.16.9.9,0,0,1-.24-1.25l1.72-2.55a.9.9,0,1,1,1.49,1l-1.72,2.55A.89.89,0,0,1,630.32,246.73Z"/><path class="cls-3" d="M604.39,233.64l-.25,0a.9.9,0,0,1-.62-1.11l2.94-10.67a.89.89,0,0,1,1.1-.63.9.9,0,0,1,.63,1.1L605.25,233A.9.9,0,0,1,604.39,233.64Z"/><path class="cls-3" d="M574.48,215.31a.89.89,0,0,1-.78-.44L570.82,210a.9.9,0,0,1,1.56-.91l2.88,4.91a.9.9,0,0,1-.33,1.23A.8.8,0,0,1,574.48,215.31Z"/><path class="cls-3" d="M588.61,210.4a.91.91,0,0,1-.87-.65l-2.91-10.13a.89.89,0,0,1,.61-1.11.92.92,0,0,1,1.12.62l2.91,10.13a.91.91,0,0,1-.61,1.11Z"/><path class="cls-3" d="M618.2,215.6a.79.79,0,0,1-.44-.12.91.91,0,0,1-.35-1.22l2.76-4.94a.91.91,0,0,1,1.23-.34.9.9,0,0,1,.34,1.22L619,215.14A.9.9,0,0,1,618.2,215.6Z"/><path class="cls-3" d="M604.39,209a1.45,1.45,0,0,1-.28,0,.92.92,0,0,1-.58-1.14l2.91-8.92a.89.89,0,1,1,1.7.56l-2.89,8.92A.92.92,0,0,1,604.39,209Z"/><rect x="659.53" y="250.3" width="215.05" height="211.95"/><rect class="cls-5" x="671.89" y="263.96" width="11.21" height="23.08"/><polygon class="cls-6" points="682.39 263.96 680.76 263.96 672.34 287.04 674.35 287.04 682.39 263.96"/><path class="cls-6" d="M677.88,264s-5.46,15.62-6,17.19V286l7.72-22Z"/><rect class="cls-5" x="671.89" y="294.55" width="11.21" height="23.08"/><polygon class="cls-6" points="682.39 294.55 680.76 294.55 672.34 317.63 674.35 317.63 682.39 294.55"/><path class="cls-6" d="M677.88,294.55s-5.46,15.62-6,17.18v4.84l7.72-22Z"/><rect class="cls-5" x="671.89" y="324.67" width="11.21" height="23.09"/><polygon class="cls-6" points="682.39 324.67 680.76 324.67 672.34 347.76 674.35 347.76 682.39 324.67"/><path class="cls-6" d="M677.88,324.67s-5.46,15.62-6,17.2v4.83l7.72-22Z"/><rect class="cls-5" x="671.89" y="357.02" width="11.21" height="23.08"/><polygon class="cls-6" points="682.39 357.02 680.76 357.02 672.34 380.1 674.35 380.1 682.39 357.02"/><path class="cls-6" d="M677.88,357s-5.46,15.62-6,17.19V379l7.72-22Z"/><rect class="cls-5" x="671.89" y="389.36" width="11.21" height="23.08"/><polygon class="cls-6" points="682.39 389.36 680.76 389.36 672.34 412.44 674.35 412.44 682.39 389.36"/><path class="cls-6" d="M677.88,389.36s-5.46,15.62-6,17.19v4.83l7.72-22Z"/><rect class="cls-5" x="671.89" y="421.7" width="11.21" height="23.08"/><polygon class="cls-6" points="682.39 421.7 680.76 421.7 672.34 444.79 674.35 444.79 682.39 421.7"/><path class="cls-6" d="M677.88,421.7s-5.46,15.62-6,17.19v4.83l7.72-22Z"/><rect class="cls-5" x="671.89" y="454.05" width="11.21" height="8.21"/><polygon class="cls-6" points="679.53 462.25 682.39 454.05 680.76 454.05 677.76 462.25 679.53 462.25"/><path class="cls-6" d="M676.73,462.25l2.88-8.2h-1.73l-2.87,8.2Z"/><rect class="cls-5" x="689.37" y="263.96" width="11.21" height="23.08"/><polygon class="cls-6" points="699.88 263.96 698.24 263.96 689.82 287.04 691.83 287.04 699.88 263.96"/><path class="cls-6" d="M695.36,264s-5.45,15.62-6,17.19V286l7.72-22Z"/><rect class="cls-5" x="689.37" y="294.55" width="11.21" height="23.08"/><polygon class="cls-6" points="699.88 294.55 698.24 294.55 689.82 317.63 691.83 317.63 699.88 294.55"/><path class="cls-6" d="M695.36,294.55s-5.45,15.62-6,17.18v4.84l7.72-22Z"/><rect class="cls-5" x="689.37" y="324.67" width="11.21" height="23.09"/><polygon class="cls-6" points="699.88 324.67 698.24 324.67 689.82 347.76 691.83 347.76 699.88 324.67"/><path class="cls-6" d="M695.36,324.67s-5.45,15.62-6,17.2v4.83l7.72-22Z"/><rect class="cls-5" x="689.37" y="357.02" width="11.21" height="23.08"/><polygon class="cls-6" points="699.88 357.02 698.24 357.02 689.82 380.1 691.83 380.1 699.88 357.02"/><path class="cls-6" d="M695.36,357s-5.45,15.62-6,17.19V379l7.72-22Z"/><rect class="cls-5" x="689.37" y="389.36" width="11.21" height="23.08"/><polygon class="cls-6" points="699.88 389.36 698.24 389.36 689.82 412.44 691.83 412.44 699.88 389.36"/><path class="cls-6" d="M695.36,389.36s-5.45,15.62-6,17.19v4.83l7.72-22Z"/><rect class="cls-5" x="689.37" y="421.7" width="11.21" height="23.08"/><polygon class="cls-6" points="699.88 421.7 698.24 421.7 689.82 444.79 691.83 444.79 699.88 421.7"/><path class="cls-6" d="M695.36,421.7s-5.45,15.62-6,17.19v4.83l7.72-22Z"/><rect class="cls-5" x="689.37" y="454.05" width="11.21" height="8.21"/><polygon class="cls-6" points="697.02 462.25 699.88 454.05 698.24 454.05 695.25 462.25 697.02 462.25"/><path class="cls-6" d="M694.21,462.25l2.88-8.2h-1.73s-1.41,4-2.86,8.2Z"/><rect class="cls-5" x="833.54" y="263.96" width="11.21" height="23.08"/><polygon class="cls-6" points="844.04 263.96 842.41 263.96 833.99 287.04 835.99 287.04 844.04 263.96"/><path class="cls-6" d="M839.53,264s-5.45,15.62-6,17.19V286l7.71-22Z"/><rect class="cls-5" x="833.54" y="294.55" width="11.21" height="23.08"/><polygon class="cls-6" points="844.04 294.55 842.41 294.55 833.99 317.63 835.99 317.63 844.04 294.55"/><path class="cls-6" d="M839.53,294.55s-5.45,15.62-6,17.18v4.84l7.71-22Z"/><rect class="cls-5" x="833.54" y="324.67" width="11.21" height="23.09"/><polygon class="cls-6" points="844.04 324.67 842.41 324.67 833.99 347.76 835.99 347.76 844.04 324.67"/><path class="cls-6" d="M839.53,324.67s-5.45,15.62-6,17.2v4.83l7.71-22Z"/><rect class="cls-5" x="833.54" y="357.02" width="11.21" height="23.08"/><polygon class="cls-6" points="844.04 357.02 842.41 357.02 833.99 380.1 835.99 380.1 844.04 357.02"/><path class="cls-6" d="M839.53,357s-5.45,15.62-6,17.19V379l7.71-22Z"/><rect class="cls-5" x="833.54" y="389.36" width="11.21" height="23.08"/><polygon class="cls-6" points="844.04 389.36 842.41 389.36 833.99 412.44 835.99 412.44 844.04 389.36"/><path class="cls-6" d="M839.53,389.36s-5.45,15.62-6,17.19v4.83l7.71-22Z"/><rect class="cls-5" x="833.54" y="421.7" width="11.21" height="23.08"/><polygon class="cls-6" points="844.04 421.7 842.41 421.7 833.99 444.79 835.99 444.79 844.04 421.7"/><path class="cls-6" d="M839.53,421.7s-5.45,15.62-6,17.19v4.83l7.71-22Z"/><rect class="cls-5" x="833.54" y="454.05" width="11.21" height="8.21"/><polygon class="cls-6" points="841.18 462.25 844.04 454.05 842.41 454.05 839.41 462.25 841.18 462.25"/><path class="cls-6" d="M838.38,462.25l2.87-8.2h-1.72s-1.41,4-2.86,8.2Z"/><rect class="cls-5" x="851.02" y="263.96" width="11.21" height="23.08"/><polygon class="cls-6" points="861.52 263.96 859.9 263.96 851.48 287.04 853.48 287.04 861.52 263.96"/><path class="cls-6" d="M857,264s-5.46,15.62-6,17.19V286l7.72-22Z"/><rect class="cls-5" x="851.02" y="294.55" width="11.21" height="23.08"/><polygon class="cls-6" points="861.52 294.55 859.9 294.55 851.48 317.63 853.48 317.63 861.52 294.55"/><path class="cls-6" d="M857,294.55s-5.46,15.62-6,17.18v4.84l7.72-22Z"/><rect class="cls-5" x="851.02" y="324.67" width="11.21" height="23.09"/><polygon class="cls-6" points="861.52 324.67 859.9 324.67 851.48 347.76 853.48 347.76 861.52 324.67"/><path class="cls-6" d="M857,324.67s-5.46,15.62-6,17.2v4.83l7.72-22Z"/><rect class="cls-5" x="851.02" y="357.02" width="11.21" height="23.08"/><polygon class="cls-6" points="861.52 357.02 859.9 357.02 851.48 380.1 853.48 380.1 861.52 357.02"/><path class="cls-6" d="M857,357s-5.46,15.62-6,17.19V379l7.72-22Z"/><rect class="cls-5" x="851.02" y="389.36" width="11.21" height="23.08"/><polygon class="cls-6" points="861.52 389.36 859.9 389.36 851.48 412.44 853.48 412.44 861.52 389.36"/><path class="cls-6" d="M857,389.36s-5.46,15.62-6,17.19v4.83l7.72-22Z"/><rect class="cls-5" x="851.02" y="421.7" width="11.21" height="23.08"/><polygon class="cls-6" points="861.52 421.7 859.9 421.7 851.48 444.79 853.48 444.79 861.52 421.7"/><path class="cls-6" d="M857,421.7s-5.46,15.62-6,17.19v4.83l7.72-22Z"/><rect class="cls-5" x="851.02" y="454.05" width="11.21" height="8.21"/><polygon class="cls-6" points="858.66 462.25 861.52 454.05 859.9 454.05 856.9 462.25 858.66 462.25"/><path class="cls-6" d="M855.87,462.25l2.87-8.2H857s-1.4,4-2.86,8.2Z"/><rect class="cls-3" x="698.59" y="223.16" width="136.94" height="239.1"/><rect class="cls-3" x="766.56" y="146.86" width="5.52" height="78.47"/><rect class="cls-5" x="714.57" y="262.67" width="11.21" height="23.08"/><polygon class="cls-6" points="725.07 262.67 723.44 262.67 715.02 285.75 717.03 285.75 725.07 262.67"/><path class="cls-6" d="M720.56,262.67s-5.46,15.61-6,17.19v4.83l7.71-22Z"/><rect class="cls-5" x="733.13" y="262.67" width="11.21" height="23.08"/><polygon class="cls-6" points="743.63 262.67 742 262.67 733.58 285.75 735.59 285.75 743.63 262.67"/><path class="cls-6" d="M739.11,262.67s-5.45,15.61-6,17.19v4.83l7.71-22Z"/><rect class="cls-5" x="751.68" y="262.67" width="11.21" height="23.08"/><polygon class="cls-6" points="762.18 262.67 760.55 262.67 752.13 285.75 754.14 285.75 762.18 262.67"/><path class="cls-6" d="M757.67,262.67s-5.46,15.61-6,17.19v4.83l7.71-22Z"/><rect class="cls-5" x="770.24" y="262.67" width="11.21" height="23.08"/><polygon class="cls-6" points="780.74 262.67 779.11 262.67 770.68 285.75 772.7 285.75 780.74 262.67"/><path class="cls-6" d="M776.22,262.67s-5.45,15.61-6,17.19v4.83l7.71-22Z"/><rect class="cls-5" x="788.79" y="262.67" width="11.21" height="23.08"/><polygon class="cls-6" points="799.29 262.67 797.66 262.67 789.24 285.75 791.25 285.75 799.29 262.67"/><path class="cls-6" d="M794.79,262.67s-5.47,15.61-6,17.19v4.83l7.72-22Z"/><rect class="cls-5" x="807.34" y="262.67" width="11.21" height="23.08"/><polygon class="cls-6" points="817.85 262.67 816.22 262.67 807.79 285.75 809.8 285.75 817.85 262.67"/><path class="cls-6" d="M813.33,262.67s-5.45,15.61-6,17.19v4.83l7.72-22Z"/><rect class="cls-5" x="714.57" y="293.43" width="11.21" height="23.08"/><polygon class="cls-6" points="725.07 293.43 723.44 293.43 715.02 316.51 717.03 316.51 725.07 293.43"/><path class="cls-6" d="M720.56,293.43s-5.46,15.62-6,17.19v4.83l7.71-22Z"/><rect class="cls-5" x="733.13" y="293.43" width="11.21" height="23.08"/><polygon class="cls-6" points="743.63 293.43 742 293.43 733.58 316.51 735.59 316.51 743.63 293.43"/><path class="cls-6" d="M739.11,293.43s-5.45,15.62-6,17.19v4.83l7.71-22Z"/><rect class="cls-5" x="751.68" y="293.43" width="11.21" height="23.08"/><polygon class="cls-6" points="762.18 293.43 760.55 293.43 752.13 316.51 754.14 316.51 762.18 293.43"/><path class="cls-6" d="M757.67,293.43s-5.46,15.62-6,17.19v4.83l7.71-22Z"/><rect class="cls-5" x="770.24" y="293.43" width="11.21" height="23.08"/><polygon class="cls-6" points="780.74 293.43 779.11 293.43 770.68 316.51 772.7 316.51 780.74 293.43"/><path class="cls-6" d="M776.22,293.43s-5.45,15.62-6,17.19v4.83l7.71-22Z"/><rect class="cls-5" x="788.79" y="293.43" width="11.21" height="23.08"/><polygon class="cls-6" points="799.29 293.43 797.66 293.43 789.24 316.51 791.25 316.51 799.29 293.43"/><path class="cls-6" d="M794.79,293.43s-5.47,15.62-6,17.19v4.83l7.72-22Z"/><rect class="cls-5" x="807.34" y="293.43" width="11.21" height="23.08"/><polygon class="cls-6" points="817.85 293.43 816.22 293.43 807.79 316.51 809.8 316.51 817.85 293.43"/><path class="cls-6" d="M813.33,293.43s-5.45,15.62-6,17.19v4.83l7.72-22Z"/><rect class="cls-5" x="714.57" y="324.19" width="11.21" height="23.08"/><polygon class="cls-6" points="725.07 324.19 723.44 324.19 715.02 347.27 717.03 347.27 725.07 324.19"/><path class="cls-6" d="M720.56,324.19s-5.46,15.62-6,17.19v4.83l7.71-22Z"/><rect class="cls-5" x="733.13" y="324.19" width="11.21" height="23.08"/><polygon class="cls-6" points="743.63 324.19 742 324.19 733.58 347.27 735.59 347.27 743.63 324.19"/><path class="cls-6" d="M739.11,324.19s-5.45,15.62-6,17.19v4.83l7.71-22Z"/><rect class="cls-5" x="751.68" y="324.19" width="11.21" height="23.08"/><polygon class="cls-6" points="762.18 324.19 760.55 324.19 752.13 347.27 754.14 347.27 762.18 324.19"/><path class="cls-6" d="M757.67,324.19s-5.46,15.62-6,17.19v4.83l7.71-22Z"/><rect class="cls-5" x="770.24" y="324.19" width="11.21" height="23.08"/><polygon class="cls-6" points="780.74 324.19 779.11 324.19 770.68 347.27 772.7 347.27 780.74 324.19"/><path class="cls-6" d="M776.22,324.19s-5.45,15.62-6,17.19v4.83l7.71-22Z"/><rect class="cls-5" x="788.79" y="324.19" width="11.21" height="23.08"/><polygon class="cls-6" points="799.29 324.19 797.66 324.19 789.24 347.27 791.25 347.27 799.29 324.19"/><path class="cls-6" d="M794.79,324.19s-5.47,15.62-6,17.19v4.83l7.72-22Z"/><rect class="cls-5" x="807.34" y="324.19" width="11.21" height="23.08"/><polygon class="cls-6" points="817.85 324.19 816.22 324.19 807.79 347.27 809.8 347.27 817.85 324.19"/><path class="cls-6" d="M813.33,324.19s-5.45,15.62-6,17.19v4.83l7.72-22Z"/><rect class="cls-5" x="714.57" y="354.95" width="11.21" height="23.08"/><polygon class="cls-6" points="725.07 354.95 723.44 354.95 715.02 378.04 717.03 378.04 725.07 354.95"/><path class="cls-6" d="M720.56,355s-5.46,15.62-6,17.2V377l7.71-22Z"/><rect class="cls-5" x="733.13" y="354.95" width="11.21" height="23.08"/><polygon class="cls-6" points="743.63 354.95 742 354.95 733.58 378.04 735.59 378.04 743.63 354.95"/><path class="cls-6" d="M739.11,355s-5.45,15.62-6,17.2V377l7.71-22Z"/><rect class="cls-5" x="751.68" y="354.95" width="11.21" height="23.08"/><polygon class="cls-6" points="762.18 354.95 760.55 354.95 752.13 378.04 754.14 378.04 762.18 354.95"/><path class="cls-6" d="M757.67,355s-5.46,15.62-6,17.2V377l7.71-22Z"/><rect class="cls-5" x="770.24" y="354.95" width="11.21" height="23.08"/><polygon class="cls-6" points="780.74 354.95 779.11 354.95 770.68 378.04 772.7 378.04 780.74 354.95"/><path class="cls-6" d="M776.22,355s-5.45,15.62-6,17.2V377L778,355Z"/><rect class="cls-5" x="788.79" y="354.95" width="11.21" height="23.08"/><polygon class="cls-6" points="799.29 354.95 797.66 354.95 789.24 378.04 791.25 378.04 799.29 354.95"/><path class="cls-6" d="M794.79,355s-5.47,15.62-6,17.2V377l7.72-22Z"/><rect class="cls-5" x="807.34" y="354.95" width="11.21" height="23.08"/><polygon class="cls-6" points="817.85 354.95 816.22 354.95 807.79 378.04 809.8 378.04 817.85 354.95"/><path class="cls-6" d="M813.33,355s-5.45,15.62-6,17.2V377l7.72-22Z"/><rect class="cls-5" x="714.57" y="385.72" width="11.21" height="23.08"/><polygon class="cls-6" points="725.07 385.72 723.44 385.72 715.02 408.8 717.03 408.8 725.07 385.72"/><path class="cls-6" d="M720.56,385.72s-5.46,15.62-6,17.19v4.83l7.71-22Z"/><rect class="cls-5" x="733.13" y="385.72" width="11.21" height="23.08"/><polygon class="cls-6" points="743.63 385.72 742 385.72 733.58 408.8 735.59 408.8 743.63 385.72"/><path class="cls-6" d="M739.11,385.72s-5.45,15.62-6,17.19v4.83l7.71-22Z"/><rect class="cls-5" x="751.68" y="385.72" width="11.21" height="23.08"/><polygon class="cls-6" points="762.18 385.72 760.55 385.72 752.13 408.8 754.14 408.8 762.18 385.72"/><path class="cls-6" d="M757.67,385.72s-5.46,15.62-6,17.19v4.83l7.71-22Z"/><rect class="cls-5" x="770.24" y="385.72" width="11.21" height="23.08"/><polygon class="cls-6" points="780.74 385.72 779.11 385.72 770.68 408.8 772.7 408.8 780.74 385.72"/><path class="cls-6" d="M776.22,385.72s-5.45,15.62-6,17.19v4.83l7.71-22Z"/><rect class="cls-5" x="788.79" y="385.72" width="11.21" height="23.08"/><polygon class="cls-6" points="799.29 385.72 797.66 385.72 789.24 408.8 791.25 408.8 799.29 385.72"/><path class="cls-6" d="M794.79,385.72s-5.47,15.62-6,17.19v4.83l7.72-22Z"/><rect class="cls-5" x="807.34" y="385.72" width="11.21" height="23.08"/><polygon class="cls-6" points="817.85 385.72 816.22 385.72 807.79 408.8 809.8 408.8 817.85 385.72"/><path class="cls-6" d="M813.33,385.72s-5.45,15.62-6,17.19v4.83l7.72-22Z"/><rect class="cls-5" x="714.57" y="416.48" width="11.21" height="23.08"/><polygon class="cls-6" points="725.07 416.48 723.44 416.48 715.02 439.56 717.03 439.56 725.07 416.48"/><path class="cls-6" d="M720.56,416.48s-5.46,15.62-6,17.19v4.83l7.71-22Z"/><rect class="cls-5" x="733.13" y="416.48" width="11.21" height="23.08"/><polygon class="cls-6" points="743.63 416.48 742 416.48 733.58 439.56 735.59 439.56 743.63 416.48"/><path class="cls-6" d="M739.11,416.48s-5.45,15.62-6,17.19v4.83l7.71-22Z"/><rect class="cls-5" x="751.68" y="416.48" width="11.21" height="23.08"/><polygon class="cls-6" points="762.18 416.48 760.55 416.48 752.13 439.56 754.14 439.56 762.18 416.48"/><path class="cls-6" d="M757.67,416.48s-5.46,15.62-6,17.19v4.83l7.71-22Z"/><rect class="cls-5" x="770.24" y="416.48" width="11.21" height="23.08"/><polygon class="cls-6" points="780.74 416.48 779.11 416.48 770.68 439.56 772.7 439.56 780.74 416.48"/><path class="cls-6" d="M776.22,416.48s-5.45,15.62-6,17.19v4.83l7.71-22Z"/><rect class="cls-5" x="788.79" y="416.48" width="11.21" height="23.08"/><polygon class="cls-6" points="799.29 416.48 797.66 416.48 789.24 439.56 791.25 439.56 799.29 416.48"/><path class="cls-6" d="M794.79,416.48s-5.47,15.62-6,17.19v4.83l7.72-22Z"/><rect class="cls-5" x="807.34" y="416.48" width="11.21" height="23.08"/><polygon class="cls-6" points="817.85 416.48 816.22 416.48 807.79 439.56 809.8 439.56 817.85 416.48"/><path class="cls-6" d="M813.33,416.48s-5.45,15.62-6,17.19v4.83l7.72-22Z"/><rect class="cls-5" x="714.57" y="447.25" width="11.21" height="15.01"/><polygon class="cls-6" points="719.84 462.25 725.07 447.25 723.44 447.25 717.97 462.25 719.84 462.25"/><path class="cls-6" d="M717,462.25l5.25-15h-1.72s-3.6,10.29-5.24,15Z"/><rect class="cls-5" x="733.13" y="447.25" width="11.21" height="15.01"/><polygon class="cls-6" points="738.4 462.25 743.63 447.25 742 447.25 736.52 462.25 738.4 462.25"/><path class="cls-6" d="M735.58,462.25l5.26-15h-1.73l-5.23,15Z"/><rect class="cls-5" x="751.68" y="447.25" width="11.21" height="15.01"/><polygon class="cls-6" points="756.95 462.25 762.18 447.25 760.55 447.25 755.07 462.25 756.95 462.25"/><path class="cls-6" d="M754.14,462.25l5.25-15h-1.72s-3.6,10.29-5.23,15Z"/><rect class="cls-5" x="770.24" y="447.25" width="11.21" height="15.01"/><polygon class="cls-6" points="775.5 462.25 780.74 447.25 779.11 447.25 773.63 462.25 775.5 462.25"/><path class="cls-6" d="M772.69,462.25l5.26-15h-1.73l-5.23,15Z"/><rect class="cls-5" x="788.79" y="447.25" width="11.21" height="15.01"/><polygon class="cls-6" points="794.06 462.25 799.29 447.25 797.66 447.25 792.19 462.25 794.06 462.25"/><path class="cls-6" d="M791.25,462.25l5.26-15h-1.72s-3.61,10.29-5.25,15Z"/><rect class="cls-5" x="807.34" y="447.25" width="11.21" height="15.01"/><polygon class="cls-6" points="812.62 462.25 817.85 447.25 816.22 447.25 810.74 462.25 812.62 462.25"/><path class="cls-6" d="M809.8,462.25l5.26-15h-1.73l-5.23,15Z"/><path class="cls-10" d="M520.89,992c-28,0-54.35-30.07-64.37-43-54-69.72-153.48-224.61-201-305a235.68,235.68,0,0,1-13.33-27.25l-.21-.48a313.17,313.17,0,0,1-24.5-100.65l18.17-1.33a295.32,295.32,0,0,0,22.93,94.5l.21.45a223.17,223.17,0,0,0,12.41,25.49c47.28,79.93,146.14,233.91,199.73,303.07,12.85,16.58,33.64,35.94,50,35.94,23.8,0,45.88-27.38,52.08-35.77C620.18,874.14,730.75,724.54,786,645c21.64-31.12,35.13-69.49,40.1-114.06l18.11,2c-5.32,47.61-19.87,88.81-43.26,122.44-55.43,79.73-166.1,229.48-213.36,293.43C578,961.82,552.33,992,520.89,992Z"/><rect class="cls-3" x="789.77" y="460.3" width="65.58" height="116.43"/><rect class="cls-10" x="855.34" y="450.28" width="25.5" height="136.47"/><rect class="cls-3" x="211.96" y="460.3" width="65.57" height="116.43"/><rect class="cls-10" x="186.45" y="450.28" width="25.51" height="136.47"/><path class="cls-10" d="M522.06,939.18c23.53,0,48-34,48-34S716.94,711.8,764.74,643c27.35-39.35,39-89.08,39-140.49,0-150.33-121.87-272.21-272.22-272.21S259.31,352.22,259.31,502.55a271.48,271.48,0,0,0,21.9,107.12h0l.07.12a203,203,0,0,0,11.52,23.62c40.32,68.18,184,267.25,184,267.25S501.52,939.18,522.06,939.18Z"/><path class="cls-11" d="M762.31,498.64c0,127.47-103.32,230.79-230.78,230.79S300.75,626.11,300.75,498.64,404.08,267.86,531.53,267.86,762.31,371.19,762.31,498.64Z"/><rect class="cls-12" x="368.2" y="376.73" width="326.66" height="123.52"/><path class="cls-11" d="M489.22,438.49a38.86,38.86,0,1,1-38.86-38.86A38.86,38.86,0,0,1,489.22,438.49Z"/><path class="cls-11" d="M644.05,438.49a38.86,38.86,0,1,1-38.86-38.86A38.86,38.86,0,0,1,644.05,438.49Z"/><path class="cls-12" d="M438.19,576.56a41.91,41.91,0,1,1-41.91-41.9A41.91,41.91,0,0,1,438.19,576.56Z"/><path class="cls-12" d="M708.68,576.56a41.9,41.9,0,1,1-41.9-41.9A41.9,41.9,0,0,1,708.68,576.56Z"/><path class="cls-12" d="M605.28,612.27a74,74,0,1,1-74-74A74,74,0,0,1,605.28,612.27Z"/><path class="cls-10" d="M625.11,615.7c0,8.42-8.16,15.24-18.22,15.24H455.71c-10.06,0-18.22-6.82-18.22-15.24v-6.86c0-8.41,8.16-15.24,18.22-15.24H606.89c10.06,0,18.22,6.83,18.22,15.24Z"/><path class="cls-6" d="M741.46,329.36a273.52,273.52,0,0,0-63.62-56.3L365.54,743.31c13.42,19.4,27.2,39.1,40.3,57.7Z"/><path class="cls-6" d="M787.91,411.07A271.53,271.53,0,0,0,749.79,340L416.92,816.71c20.87,29.57,27.52,38.84,39.16,55.08Z"/><path class="cls-13" d="M931.66,168.16a10.1,10.1,0,0,0,.81-2.58c.83-5-2.23-9.82-6.83-10.67a7.61,7.61,0,0,0-3.83.26,17.38,17.38,0,0,0-12.89-11.3c-.45-.08-.91-.13-1.36-.18-2.64-9.83-10.13-17.65-20-19.49-9.52-1.77-18.77,2.47-24.47,10.22a21.13,21.13,0,0,0-9.2-4.21A20.86,20.86,0,0,0,840,132.46c-2.72-13.45-12.58-24.38-25.77-26.84-15.94-3-31.26,7.42-36.32,23.75a20.73,20.73,0,0,0-8.35-.17,21.29,21.29,0,0,0-9.2,4.2c-5.7-7.74-14.94-12-24.47-10.21-10.76,2-18.7,11.12-20.59,22.19a15.86,15.86,0,0,0-8-.58c-6.73,1.26-11.81,6.63-13.53,13.35a7.71,7.71,0,0,0-4.8-.64c-4.6.85-7.64,5.62-6.83,10.65Z"/><path class="cls-13" d="M397,151a9.37,9.37,0,0,0,.81-2.58c.83-5-2.22-9.82-6.82-10.68a7.76,7.76,0,0,0-3.84.27,17.35,17.35,0,0,0-12.89-11.3,12.34,12.34,0,0,0-1.36-.18c-2.63-9.83-10.13-17.65-20-19.49-9.53-1.77-18.77,2.47-24.48,10.22a21.23,21.23,0,0,0-9.19-4.22,20.94,20.94,0,0,0-13.85,2.25C302.64,101.89,292.78,91,279.58,88.5c-15.93-3-31.25,7.42-36.31,23.75a20.73,20.73,0,0,0-8.35-.17,21.29,21.29,0,0,0-9.2,4.2c-5.7-7.74-14.95-12-24.48-10.21-10.76,2-18.69,11.12-20.59,22.19a15.86,15.86,0,0,0-8-.58c-6.72,1.25-11.8,6.62-13.52,13.35a7.74,7.74,0,0,0-4.81-.64c-4.59.85-7.64,5.62-6.82,10.65Z"/></g></g></svg>